<svg width="41" height="42" viewBox="0 0 41 42" fill="none" xmlns="http://www.w3.org/2000/svg">
<path d="M1 23.7222C1 15.6367 1 11.5939 3.51222 9.08168C6.02444 6.56946 10.0672 6.56946 18.1528 6.56946C26.2383 6.56946 30.2811 6.56946 32.7933 9.08168C35.3056 11.5939 35.3056 15.6367 35.3056 23.7222C35.3056 31.8078 35.3056 35.8506 32.7933 38.3628C30.2811 40.875 26.2383 40.875 18.1528 40.875C10.0672 40.875 6.02444 40.875 3.51222 38.3628C1 35.8506 1 31.8078 1 23.7222Z" stroke="url(#paint0_linear_310_2638)" stroke-width="1.5" stroke-linejoin="round"/>
<path d="M19.3393 30.4488L15.4865 18.5184C15.3529 18.1419 15.104 17.8171 14.7753 17.5902C14.4465 17.3633 14.0546 17.2458 13.6552 17.2543C13.2562 17.2463 12.8649 17.3641 12.5366 17.591C12.2084 17.8179 11.9599 18.1423 11.8264 18.5184L7.97363 30.4488M25.9365 17.2543V30.4488M9.39072 26.4905H17.9196" stroke="url(#paint1_linear_310_2638)" stroke-width="2.5" stroke-linecap="round" stroke-linejoin="round"/>
<rect x="24" y="2" width="17" height="14" fill="white"/>
<path d="M28.5714 7.42859L25 6L28.5714 4.57141L30 1L31.4286 4.57141L35 6L31.4286 7.42859L30 11L28.5714 7.42859Z" fill="url(#paint2_linear_310_2638)"/>
<path d="M34.7857 3.21429L33 2.5L34.7857 1.78571L35.5 0L36.2143 1.78571L38 2.5L36.2143 3.21429L35.5 5L34.7857 3.21429Z" fill="url(#paint3_linear_310_2638)"/>
<path d="M34.1428 11.8572L32 11L34.1428 10.1428L35 8L35.8572 10.1428L38 11L35.8572 11.8572L35 14L34.1428 11.8572Z" fill="url(#paint4_linear_310_2638)"/>
<defs>
<linearGradient id="paint0_linear_310_2638" x1="18.1528" y1="6.56946" x2="18.1528" y2="40.875" gradientUnits="userSpaceOnUse">
<stop stop-color="#03AFBF"/>
<stop offset="1" stop-color="#143370"/>
</linearGradient>
<linearGradient id="paint1_linear_310_2638" x1="16.9551" y1="17.2539" x2="16.9551" y2="30.4488" gradientUnits="userSpaceOnUse">
<stop stop-color="#03AFBF"/>
<stop offset="1" stop-color="#143370"/>
</linearGradient>
<linearGradient id="paint2_linear_310_2638" x1="32.8261" y1="1" x2="28.8999" y2="7.94338" gradientUnits="userSpaceOnUse">
<stop offset="0.5" stop-color="#03AFBF"/>
<stop offset="1" stop-color="#143370"/>
</linearGradient>
<linearGradient id="paint3_linear_310_2638" x1="36.9131" y1="-1.9969e-07" x2="34.9499" y2="3.47169" gradientUnits="userSpaceOnUse">
<stop offset="0.5" stop-color="#03AFBF"/>
<stop offset="1" stop-color="#143370"/>
</linearGradient>
<linearGradient id="paint4_linear_310_2638" x1="36.6957" y1="8" x2="34.3399" y2="12.166" gradientUnits="userSpaceOnUse">
<stop offset="0.5" stop-color="#03AFBF"/>
<stop offset="1" stop-color="#143370"/>
</linearGradient>
</defs>
</svg>
