<svg width="46" height="39" viewBox="0 0 46 39" fill="none" xmlns="http://www.w3.org/2000/svg">
<path d="M23 3.33232e-06C22.2916 -0.00105216 21.6056 0.248665 21.0636 0.704926C20.5216 1.16119 20.1585 1.79455 20.0387 2.49283C19.919 3.19111 20.0502 3.90925 20.4092 4.52005C20.7681 5.13085 21.3317 5.5949 22 5.83V8H19C18.2044 8 17.4413 8.31607 16.8787 8.87868C16.3161 9.44129 16 10.2044 16 11V12.17C15.3325 12.4059 14.7699 12.8702 14.4117 13.4808C14.0534 14.0914 13.9225 14.809 14.0422 15.5068C14.1619 16.2046 14.5244 16.8375 15.0657 17.2939C15.6069 17.7502 16.2921 18.0005 17 18.0005C17.708 18.0005 18.3931 17.7502 18.9344 17.2939C19.4757 16.8375 19.8382 16.2046 19.9578 15.5068C20.0775 14.809 19.9467 14.0914 19.5884 13.4808C19.2301 12.8702 18.6675 12.4059 18 12.17V11C18 10.7348 18.1054 10.4804 18.2929 10.2929C18.4805 10.1054 18.7348 10 19 10H27C27.2652 10 27.5196 10.1054 27.7071 10.2929C27.8947 10.4804 28 10.7348 28 11V12.17C27.3325 12.4059 26.7699 12.8702 26.4117 13.4808C26.0534 14.0914 25.9225 14.809 26.0422 15.5068C26.1619 16.2046 26.5244 16.8375 27.0657 17.2939C27.6069 17.7502 28.2921 18.0005 29 18.0005C29.708 18.0005 30.3931 17.7502 30.9344 17.2939C31.4757 16.8375 31.8382 16.2046 31.9578 15.5068C32.0775 14.809 31.9467 14.0914 31.5884 13.4808C31.2301 12.8702 30.6675 12.4059 30 12.17V11C30 10.2044 29.684 9.44129 29.1214 8.87868C28.5587 8.31607 27.7957 8 27 8H24V5.83C24.6672 5.59385 25.2294 5.12952 25.5874 4.51904C25.9454 3.90855 26.0761 3.19118 25.9565 2.49366C25.8368 1.79614 25.4745 1.16334 24.9335 0.707048C24.3926 0.250755 23.7077 0.000328335 23 3.33232e-06Z" fill="url(#paint0_linear_315_2641)"/>
<path d="M9.00101 21C8.29253 20.9989 7.60654 21.2487 7.06453 21.7049C6.52253 22.1612 6.15949 22.7945 6.03972 23.4928C5.91994 24.1911 6.05117 24.9092 6.41014 25.52C6.76911 26.1309 7.33267 26.5949 8.00101 26.83V29H5.00101C4.20536 29 3.4423 29.3161 2.87969 29.8787C2.31708 30.4413 2.00101 31.2044 2.00101 32V33.17C1.33351 33.4059 0.770912 33.8702 0.412646 34.4808C0.0543804 35.0914 -0.0764802 35.809 0.043195 36.5068C0.16287 37.2046 0.525375 37.8375 1.06663 38.2939C1.60789 38.7502 2.29305 39.0005 3.00101 39.0005C3.70896 39.0005 4.39412 38.7502 4.93538 38.2939C5.47664 37.8375 5.83914 37.2046 5.95882 36.5068C6.07849 35.809 5.94763 35.0914 5.58937 34.4808C5.2311 33.8702 4.6685 33.4059 4.00101 33.17V32C4.00101 31.7348 4.10636 31.4804 4.2939 31.2929C4.48144 31.1054 4.73579 31 5.00101 31H13.001C13.2662 31 13.5206 31.1054 13.7081 31.2929C13.8956 31.4804 14.001 31.7348 14.001 32V33.17C13.3335 33.4059 12.7709 33.8702 12.4126 34.4808C12.0544 35.0914 11.9235 35.809 12.0432 36.5068C12.1629 37.2046 12.5254 37.8375 13.0666 38.2939C13.6079 38.7502 14.2931 39.0005 15.001 39.0005C15.709 39.0005 16.3941 38.7502 16.9354 38.2939C17.4766 37.8375 17.8391 37.2046 17.9588 36.5068C18.0785 35.809 17.9476 35.0914 17.5894 34.4808C17.2311 33.8702 16.6685 33.4059 16.001 33.17V32C16.001 31.2044 15.6849 30.4413 15.1223 29.8787C14.5597 29.3161 13.7967 29 13.001 29H10.001V26.83C10.6682 26.5939 11.2304 26.1295 11.5884 25.519C11.9464 24.9085 12.0771 24.1912 11.9574 23.4937C11.8378 22.7961 11.4755 22.1633 10.9345 21.707C10.3935 21.2508 9.70872 21.0003 9.00101 21Z" fill="url(#paint1_linear_315_2641)"/>
<line x1="8.5" y1="20" x2="8.5" y2="15" stroke="#334155"/>
<line x1="8" y1="15.5" x2="13" y2="15.5" stroke="#334155"/>
<path d="M37.0009 21C37.7094 20.9989 38.3954 21.2487 38.9374 21.7049C39.4794 22.1612 39.8425 22.7945 39.9622 23.4928C40.082 24.1911 39.9508 24.9092 39.5918 25.52C39.2328 26.1309 38.6693 26.5949 38.0009 26.83V29H41.0009C41.7966 29 42.5597 29.3161 43.1223 29.8787C43.6849 30.4413 44.0009 31.2044 44.0009 32V33.17C44.6684 33.4059 45.231 33.8702 45.5893 34.4808C45.9476 35.0914 46.0784 35.809 45.9588 36.5068C45.8391 37.2046 45.4766 37.8375 44.9353 38.2939C44.3941 38.7502 43.7089 39.0005 43.0009 39.0005C42.293 39.0005 41.6078 38.7502 41.0666 38.2939C40.5253 37.8375 40.1628 37.2046 40.0431 36.5068C39.9235 35.809 40.0543 35.0914 40.4126 34.4808C40.7709 33.8702 41.3335 33.4059 42.0009 33.17V32C42.0009 31.7348 41.8956 31.4804 41.7081 31.2929C41.5205 31.1054 41.2662 31 41.0009 31H33.0009C32.7357 31 32.4814 31.1054 32.2938 31.2929C32.1063 31.4804 32.0009 31.7348 32.0009 32V33.17C32.6684 33.4059 33.231 33.8702 33.5893 34.4808C33.9476 35.0914 34.0784 35.809 33.9588 36.5068C33.8391 37.2046 33.4766 37.8375 32.9353 38.2939C32.3941 38.7502 31.7089 39.0005 31.0009 39.0005C30.293 39.0005 29.6078 38.7502 29.0666 38.2939C28.5253 37.8375 28.1628 37.2046 28.0431 36.5068C27.9235 35.809 28.0543 35.0914 28.4126 34.4808C28.7709 33.8702 29.3335 33.4059 30.0009 33.17V32C30.0009 31.2044 30.317 30.4413 30.8796 29.8787C31.4422 29.3161 32.2053 29 33.0009 29H36.0009V26.83C35.3338 26.5939 34.7716 26.1295 34.4136 25.519C34.0556 24.9085 33.9249 24.1912 34.0445 23.4937C34.1642 22.7961 34.5265 22.1633 35.0674 21.707C35.6084 21.2508 36.2932 21.0003 37.0009 21Z" fill="url(#paint2_linear_315_2641)"/>
<line y1="-0.5" x2="5" y2="-0.5" transform="matrix(0 -1 -1 0 37.002 20)" stroke="#334155"/>
<line y1="-0.5" x2="5" y2="-0.5" transform="matrix(-1 0 0 1 38.002 16)" stroke="#334155"/>
<defs>
<linearGradient id="paint0_linear_315_2641" x1="13.999" y1="13.9039" x2="32.9372" y2="6.48694" gradientUnits="userSpaceOnUse">
<stop stop-color="#0692AD"/>
<stop offset="1" stop-color="#14336F"/>
</linearGradient>
<linearGradient id="paint1_linear_315_2641" x1="3.24403e-08" y1="34.9039" x2="18.9382" y2="27.4869" gradientUnits="userSpaceOnUse">
<stop stop-color="#0692AD"/>
<stop offset="1" stop-color="#14336F"/>
</linearGradient>
<linearGradient id="paint2_linear_315_2641" x1="46.002" y1="34.9039" x2="27.0638" y2="27.4869" gradientUnits="userSpaceOnUse">
<stop stop-color="#0692AD"/>
<stop offset="1" stop-color="#14336F"/>
</linearGradient>
</defs>
</svg>
