<svg width="30" height="30" viewBox="0 0 30 30" fill="none" xmlns="http://www.w3.org/2000/svg">
<circle opacity="0.1" cx="15" cy="15" r="15" fill="#AF52DE"/>
<path d="M15.0004 14.5C15.7383 14.501 16.46 14.2831 17.074 13.8739C17.6881 13.4646 18.1669 12.8824 18.45 12.2009C18.7331 11.5194 18.8077 10.7693 18.6643 10.0454C18.521 9.32154 18.1661 8.65645 17.6447 8.1343C17.1232 7.61215 16.4586 7.25641 15.7349 7.11208C15.0112 6.96775 14.261 7.04132 13.5791 7.32349C12.8973 7.60566 12.3144 8.08374 11.9044 8.69724C11.4943 9.31075 11.2754 10.0321 11.2754 10.77C11.2754 11.7584 11.6677 12.7064 12.3661 13.4058C13.0645 14.1051 14.012 14.4987 15.0004 14.5ZM15.0004 8.03504C15.5408 8.03405 16.0693 8.19345 16.519 8.49304C16.9687 8.79264 17.3194 9.21895 17.5266 9.718C17.7339 10.217 17.7884 10.7664 17.6832 11.2964C17.578 11.8264 17.3179 12.3133 16.9358 12.6954C16.5537 13.0775 16.0668 13.3376 15.5368 13.4428C15.0067 13.548 14.4574 13.4935 13.9584 13.2863C13.4593 13.079 13.033 12.7283 12.7334 12.2786C12.4338 11.8289 12.2744 11.3004 12.2754 10.76C12.2767 10.0377 12.5642 9.34538 13.075 8.83463C13.5857 8.32388 14.2781 8.03636 15.0004 8.03504Z" fill="#DB83ED"/>
<path d="M9.00031 21.9451V18.8851C9.77225 18.0749 10.7043 17.4342 11.7373 17.0038C12.7703 16.5734 13.8815 16.3627 15.0003 16.3851C16.5317 16.3642 18.0389 16.7674 19.3553 17.5501L20.0303 16.7951C18.5252 15.8471 16.779 15.3524 15.0003 15.3701C13.6989 15.3369 12.4062 15.5913 11.2144 16.115C10.0226 16.6387 8.961 17.419 8.10531 18.4001C8.03862 18.486 8.00175 18.5913 8.00031 18.7001V21.9451C7.99359 22.2174 8.09504 22.4813 8.28246 22.6791C8.46987 22.8768 8.72799 22.9922 9.00031 23.0001H15.1953L14.2453 22.0001L9.00031 21.9451Z" fill="#DB83ED"/>
<path d="M21.0004 21.945V22H19.4254L18.5254 23H21.0004C21.2692 22.9921 21.5243 22.8795 21.7111 22.6861C21.898 22.4927 22.0018 22.2339 22.0004 21.965V19.1L21.0004 20.215V21.945Z" fill="#DB83ED"/>
<path d="M23.38 15.31C23.2811 15.222 23.1514 15.1768 23.0192 15.1843C22.8871 15.1918 22.7633 15.2514 22.675 15.35L16.865 21.85L14.265 19.055C14.2223 19.0051 14.1702 18.9641 14.1117 18.9343C14.0532 18.9045 13.9894 18.8866 13.9239 18.8815C13.8584 18.8764 13.7926 18.8842 13.7302 18.9045C13.6677 18.9249 13.6099 18.9573 13.56 19C13.5111 19.0445 13.4716 19.0982 13.4436 19.158C13.4156 19.2179 13.3997 19.2827 13.3969 19.3487C13.3941 19.4148 13.4045 19.4807 13.4273 19.5427C13.4502 19.6047 13.4851 19.6616 13.53 19.71L16.875 23.31L23.42 16C23.5035 15.902 23.5459 15.7755 23.5384 15.647C23.531 15.5184 23.4742 15.3977 23.38 15.31Z" fill="#DB83ED"/>
</svg>
