<svg width="75" height="18" viewBox="0 0 75 18" fill="none" xmlns="http://www.w3.org/2000/svg">
<g clip-path="url(#clip0_287_2616)">
<rect width="75" height="17" transform="translate(0 0.5)" fill="white"/>
<path d="M9.79983 1.20288V8.20488V15.2069M14.7508 3.25388L4.84883 13.1559M9.79883 8.20588H2.79883M14.7518 13.1559L4.84883 3.25388" stroke="#3D3D3D" stroke-width="1.575" stroke-linecap="round" stroke-linejoin="round"/>
<mask id="path-2-inside-1_287_2616" fill="white">
<path d="M23.9399 11.176H19.7369L19.0149 13.226H17.2969L20.8929 3.176H22.7989L26.3949 13.226H24.6609L23.9399 11.176ZM23.4779 9.833L21.8459 5.168L20.1999 9.833H23.4779ZM30.8469 13.357C30.2209 13.357 29.6569 13.246 29.1569 13.024C28.6965 12.8174 28.2945 12.5 27.9869 12.1C27.703 11.7191 27.5418 11.2608 27.5249 10.786H29.2289C29.2589 11.123 29.4169 11.406 29.7059 11.638C30.0039 11.859 30.3749 11.97 30.8179 11.97C31.2799 11.97 31.6359 11.883 31.8869 11.71C32.1469 11.527 32.2769 11.296 32.2769 11.017C32.2769 10.719 32.1319 10.497 31.8429 10.353C31.5639 10.208 31.1159 10.049 30.4999 9.876C30.005 9.74609 29.5181 9.58715 29.0419 9.4C28.6634 9.24407 28.3267 9.00158 28.0589 8.692C27.7889 8.374 27.6549 7.955 27.6549 7.435C27.6549 7.012 27.7799 6.627 28.0309 6.28C28.2809 5.924 28.6369 5.645 29.0989 5.443C29.5709 5.24 30.1099 5.139 30.7169 5.139C31.6219 5.139 32.3489 5.37 32.8969 5.832C33.4559 6.285 33.7539 6.906 33.7929 7.695H32.1459C32.1375 7.53055 32.0947 7.3697 32.0201 7.2229C31.9455 7.07611 31.8408 6.94667 31.7129 6.843C31.4529 6.632 31.1019 6.526 30.6589 6.526C30.2259 6.526 29.8939 6.608 29.6619 6.771C29.5538 6.84115 29.4654 6.9376 29.4049 7.0513C29.3444 7.165 29.3137 7.29221 29.3159 7.421C29.3159 7.633 29.3929 7.811 29.5469 7.955C29.7009 8.1 29.8889 8.215 30.1099 8.302C30.3319 8.379 30.6589 8.48 31.0919 8.605C31.6699 8.759 32.1419 8.918 32.5079 9.082C32.8829 9.236 33.2059 9.467 33.4749 9.775C33.7449 10.083 33.8849 10.492 33.8939 11.003C33.8939 11.455 33.7689 11.859 33.5179 12.216C33.2679 12.572 32.9119 12.851 32.4499 13.053C31.9969 13.255 31.4629 13.356 30.8469 13.356V13.357ZM37.5939 6.612V11.017C37.5939 11.316 37.6609 11.532 37.7959 11.667C37.9399 11.792 38.1809 11.855 38.5179 11.855H39.5279V13.227H38.2289C37.4879 13.227 36.9189 13.053 36.5249 12.707C36.1299 12.36 35.9329 11.797 35.9329 11.017V6.612H34.9939V5.27H35.9329V3.291H37.5929V5.269H39.5289V6.612H37.5939ZM48.3389 9.052C48.3389 9.352 48.3189 9.621 48.2809 9.862H42.2009C42.2499 10.497 42.4849 11.007 42.9089 11.392C43.3329 11.778 43.8529 11.97 44.4689 11.97C45.3539 11.97 45.9799 11.6 46.3459 10.858H48.1219C47.8857 11.5835 47.4257 12.2154 46.8079 12.663C46.1819 13.126 45.4029 13.357 44.4679 13.357C43.7079 13.357 43.0249 13.188 42.4179 12.851C41.8238 12.5072 41.3346 12.008 41.0029 11.407C40.6659 10.781 40.4969 10.059 40.4969 9.241C40.4969 8.422 40.6609 7.705 40.9879 7.089C41.306 6.48274 41.7925 5.9813 42.3889 5.645C42.9959 5.308 43.6889 5.139 44.4689 5.139C45.2189 5.139 45.8889 5.303 46.4759 5.63C47.0629 5.958 47.5209 6.42 47.8479 7.017C48.1749 7.604 48.3389 8.283 48.3389 9.053V9.052ZM46.6209 8.533C46.6109 7.927 46.3939 7.44 45.9709 7.074C45.5469 6.709 45.0219 6.526 44.3959 6.526C43.8576 6.51502 43.3357 6.71119 42.9379 7.074C42.5339 7.431 42.2929 7.917 42.2159 8.533H46.6209ZM51.6059 6.425C51.8459 6.02 52.1639 5.707 52.5589 5.485C52.9629 5.255 53.4389 5.139 53.9889 5.139V6.843H53.5689C52.9249 6.843 52.4339 7.007 52.0969 7.334C51.7689 7.662 51.6059 8.23 51.6059 9.039V13.227H49.9589V5.269H51.6059V6.425ZM56.3389 4.215C56.1998 4.21831 56.0615 4.19313 55.9326 4.14103C55.8036 4.08892 55.6866 4.01098 55.5889 3.912C55.4896 3.81423 55.4114 3.69714 55.3591 3.56798C55.3068 3.43882 55.2816 3.30031 55.2849 3.161C55.2849 2.862 55.3859 2.612 55.5879 2.41C55.6857 2.3109 55.8029 2.23289 55.932 2.18078C56.0612 2.12867 56.1996 2.10356 56.3389 2.107C56.6289 2.107 56.8739 2.207 57.0759 2.41C57.2779 2.612 57.3789 2.862 57.3789 3.16C57.3789 3.46 57.2789 3.71 57.0759 3.912C56.9802 4.01018 56.8655 4.08772 56.7388 4.13983C56.612 4.19195 56.4759 4.21753 56.3389 4.215ZM57.1489 5.269V13.227H55.5009V5.269H57.1469H57.1489ZM62.1979 13.357C61.5719 13.357 61.0079 13.246 60.5079 13.024C60.0475 12.8174 59.6455 12.5 59.3379 12.1C59.054 11.7191 58.8928 11.2608 58.8759 10.786H60.5809C60.6089 11.123 60.7679 11.406 61.0569 11.638C61.3559 11.859 61.7269 11.97 62.1689 11.97C62.6309 11.97 62.9869 11.883 63.2379 11.71C63.4979 11.527 63.6279 11.296 63.6279 11.017C63.6279 10.719 63.4829 10.497 63.1939 10.353C62.9149 10.208 62.4679 10.049 61.8509 9.876C61.356 9.74609 60.8691 9.58715 60.3929 9.4C60.0147 9.24393 59.6784 9.00146 59.4109 8.692C59.1409 8.374 59.0059 7.955 59.0059 7.435C59.0059 7.012 59.1309 6.627 59.3819 6.28C59.6319 5.924 59.9879 5.645 60.4509 5.443C60.9219 5.24 61.4609 5.139 62.0679 5.139C62.9729 5.139 63.6999 5.37 64.2479 5.832C64.8069 6.285 65.1059 6.906 65.1439 7.695H63.4979C63.4894 7.53047 63.4464 7.36957 63.3716 7.22277C63.2969 7.07598 63.192 6.94658 63.0639 6.843C62.8039 6.632 62.4539 6.526 62.0099 6.526C61.5769 6.526 61.2449 6.608 61.0139 6.771C60.9057 6.84103 60.817 6.93743 60.7563 7.05114C60.6956 7.16484 60.6649 7.29212 60.6669 7.421C60.6669 7.633 60.7439 7.811 60.8979 7.955C61.0519 8.1 61.2399 8.215 61.4609 8.302C61.6829 8.379 62.0109 8.48 62.4429 8.605C63.0209 8.759 63.4929 8.918 63.8589 9.082C64.2339 9.236 64.5569 9.467 64.8259 9.775C65.0959 10.083 65.2359 10.492 65.2459 11.003C65.2459 11.455 65.1199 11.859 64.8699 12.216C64.6199 12.572 64.2629 12.851 63.8009 13.053C63.3479 13.255 62.8139 13.356 62.1979 13.356V13.357ZM70.1719 9.255L73.8399 13.227H71.6159L68.6709 9.804V13.227H67.0249V2.54H68.6709V8.75L71.5599 5.27H73.8409L70.1719 9.255Z"/>
</mask>
<path d="M23.9399 11.176H19.7369L19.0149 13.226H17.2969L20.8929 3.176H22.7989L26.3949 13.226H24.6609L23.9399 11.176ZM23.4779 9.833L21.8459 5.168L20.1999 9.833H23.4779ZM30.8469 13.357C30.2209 13.357 29.6569 13.246 29.1569 13.024C28.6965 12.8174 28.2945 12.5 27.9869 12.1C27.703 11.7191 27.5418 11.2608 27.5249 10.786H29.2289C29.2589 11.123 29.4169 11.406 29.7059 11.638C30.0039 11.859 30.3749 11.97 30.8179 11.97C31.2799 11.97 31.6359 11.883 31.8869 11.71C32.1469 11.527 32.2769 11.296 32.2769 11.017C32.2769 10.719 32.1319 10.497 31.8429 10.353C31.5639 10.208 31.1159 10.049 30.4999 9.876C30.005 9.74609 29.5181 9.58715 29.0419 9.4C28.6634 9.24407 28.3267 9.00158 28.0589 8.692C27.7889 8.374 27.6549 7.955 27.6549 7.435C27.6549 7.012 27.7799 6.627 28.0309 6.28C28.2809 5.924 28.6369 5.645 29.0989 5.443C29.5709 5.24 30.1099 5.139 30.7169 5.139C31.6219 5.139 32.3489 5.37 32.8969 5.832C33.4559 6.285 33.7539 6.906 33.7929 7.695H32.1459C32.1375 7.53055 32.0947 7.3697 32.0201 7.2229C31.9455 7.07611 31.8408 6.94667 31.7129 6.843C31.4529 6.632 31.1019 6.526 30.6589 6.526C30.2259 6.526 29.8939 6.608 29.6619 6.771C29.5538 6.84115 29.4654 6.9376 29.4049 7.0513C29.3444 7.165 29.3137 7.29221 29.3159 7.421C29.3159 7.633 29.3929 7.811 29.5469 7.955C29.7009 8.1 29.8889 8.215 30.1099 8.302C30.3319 8.379 30.6589 8.48 31.0919 8.605C31.6699 8.759 32.1419 8.918 32.5079 9.082C32.8829 9.236 33.2059 9.467 33.4749 9.775C33.7449 10.083 33.8849 10.492 33.8939 11.003C33.8939 11.455 33.7689 11.859 33.5179 12.216C33.2679 12.572 32.9119 12.851 32.4499 13.053C31.9969 13.255 31.4629 13.356 30.8469 13.356V13.357ZM37.5939 6.612V11.017C37.5939 11.316 37.6609 11.532 37.7959 11.667C37.9399 11.792 38.1809 11.855 38.5179 11.855H39.5279V13.227H38.2289C37.4879 13.227 36.9189 13.053 36.5249 12.707C36.1299 12.36 35.9329 11.797 35.9329 11.017V6.612H34.9939V5.27H35.9329V3.291H37.5929V5.269H39.5289V6.612H37.5939ZM48.3389 9.052C48.3389 9.352 48.3189 9.621 48.2809 9.862H42.2009C42.2499 10.497 42.4849 11.007 42.9089 11.392C43.3329 11.778 43.8529 11.97 44.4689 11.97C45.3539 11.97 45.9799 11.6 46.3459 10.858H48.1219C47.8857 11.5835 47.4257 12.2154 46.8079 12.663C46.1819 13.126 45.4029 13.357 44.4679 13.357C43.7079 13.357 43.0249 13.188 42.4179 12.851C41.8238 12.5072 41.3346 12.008 41.0029 11.407C40.6659 10.781 40.4969 10.059 40.4969 9.241C40.4969 8.422 40.6609 7.705 40.9879 7.089C41.306 6.48274 41.7925 5.9813 42.3889 5.645C42.9959 5.308 43.6889 5.139 44.4689 5.139C45.2189 5.139 45.8889 5.303 46.4759 5.63C47.0629 5.958 47.5209 6.42 47.8479 7.017C48.1749 7.604 48.3389 8.283 48.3389 9.053V9.052ZM46.6209 8.533C46.6109 7.927 46.3939 7.44 45.9709 7.074C45.5469 6.709 45.0219 6.526 44.3959 6.526C43.8576 6.51502 43.3357 6.71119 42.9379 7.074C42.5339 7.431 42.2929 7.917 42.2159 8.533H46.6209ZM51.6059 6.425C51.8459 6.02 52.1639 5.707 52.5589 5.485C52.9629 5.255 53.4389 5.139 53.9889 5.139V6.843H53.5689C52.9249 6.843 52.4339 7.007 52.0969 7.334C51.7689 7.662 51.6059 8.23 51.6059 9.039V13.227H49.9589V5.269H51.6059V6.425ZM56.3389 4.215C56.1998 4.21831 56.0615 4.19313 55.9326 4.14103C55.8036 4.08892 55.6866 4.01098 55.5889 3.912C55.4896 3.81423 55.4114 3.69714 55.3591 3.56798C55.3068 3.43882 55.2816 3.30031 55.2849 3.161C55.2849 2.862 55.3859 2.612 55.5879 2.41C55.6857 2.3109 55.8029 2.23289 55.932 2.18078C56.0612 2.12867 56.1996 2.10356 56.3389 2.107C56.6289 2.107 56.8739 2.207 57.0759 2.41C57.2779 2.612 57.3789 2.862 57.3789 3.16C57.3789 3.46 57.2789 3.71 57.0759 3.912C56.9802 4.01018 56.8655 4.08772 56.7388 4.13983C56.612 4.19195 56.4759 4.21753 56.3389 4.215ZM57.1489 5.269V13.227H55.5009V5.269H57.1469H57.1489ZM62.1979 13.357C61.5719 13.357 61.0079 13.246 60.5079 13.024C60.0475 12.8174 59.6455 12.5 59.3379 12.1C59.054 11.7191 58.8928 11.2608 58.8759 10.786H60.5809C60.6089 11.123 60.7679 11.406 61.0569 11.638C61.3559 11.859 61.7269 11.97 62.1689 11.97C62.6309 11.97 62.9869 11.883 63.2379 11.71C63.4979 11.527 63.6279 11.296 63.6279 11.017C63.6279 10.719 63.4829 10.497 63.1939 10.353C62.9149 10.208 62.4679 10.049 61.8509 9.876C61.356 9.74609 60.8691 9.58715 60.3929 9.4C60.0147 9.24393 59.6784 9.00146 59.4109 8.692C59.1409 8.374 59.0059 7.955 59.0059 7.435C59.0059 7.012 59.1309 6.627 59.3819 6.28C59.6319 5.924 59.9879 5.645 60.4509 5.443C60.9219 5.24 61.4609 5.139 62.0679 5.139C62.9729 5.139 63.6999 5.37 64.2479 5.832C64.8069 6.285 65.1059 6.906 65.1439 7.695H63.4979C63.4894 7.53047 63.4464 7.36957 63.3716 7.22277C63.2969 7.07598 63.192 6.94658 63.0639 6.843C62.8039 6.632 62.4539 6.526 62.0099 6.526C61.5769 6.526 61.2449 6.608 61.0139 6.771C60.9057 6.84103 60.817 6.93743 60.7563 7.05114C60.6956 7.16484 60.6649 7.29212 60.6669 7.421C60.6669 7.633 60.7439 7.811 60.8979 7.955C61.0519 8.1 61.2399 8.215 61.4609 8.302C61.6829 8.379 62.0109 8.48 62.4429 8.605C63.0209 8.759 63.4929 8.918 63.8589 9.082C64.2339 9.236 64.5569 9.467 64.8259 9.775C65.0959 10.083 65.2359 10.492 65.2459 11.003C65.2459 11.455 65.1199 11.859 64.8699 12.216C64.6199 12.572 64.2629 12.851 63.8009 13.053C63.3479 13.255 62.8139 13.356 62.1979 13.356V13.357ZM70.1719 9.255L73.8399 13.227H71.6159L68.6709 9.804V13.227H67.0249V2.54H68.6709V8.75L71.5599 5.27H73.8409L70.1719 9.255Z" fill="#3D3D3D" stroke="#3D3D3D" stroke-width="2" mask="url(#path-2-inside-1_287_2616)"/>
</g>
<defs>
<clipPath id="clip0_287_2616">
<rect width="75" height="17" fill="white" transform="translate(0 0.5)"/>
</clipPath>
</defs>
</svg>
