<svg width="22" height="20" viewBox="0 0 22 20" fill="none" xmlns="http://www.w3.org/2000/svg">
<path fill-rule="evenodd" clip-rule="evenodd" d="M10.9986 0.375001C11.2173 0.374763 11.4303 0.444029 11.6071 0.572796C11.7838 0.701563 11.915 0.883165 11.9817 1.09138L16.5 15.2112L18.2683 9.6865C18.3347 9.47826 18.4656 9.29651 18.6421 9.16751C18.8185 9.0385 19.0314 8.9689 19.25 8.96875H20.9688C21.2423 8.96875 21.5046 9.0774 21.698 9.2708C21.8914 9.46419 22 9.7265 22 10C22 10.2735 21.8914 10.5358 21.698 10.7292C21.5046 10.9226 21.2423 11.0313 20.9688 11.0313H20.0021L17.4817 18.9086C17.4149 19.1165 17.2839 19.2977 17.1074 19.4263C16.931 19.5549 16.7183 19.6242 16.5 19.6242C16.2817 19.6242 16.069 19.5549 15.8926 19.4263C15.7161 19.2977 15.5851 19.1165 15.5183 18.9086L11.0069 4.81075L7.85813 14.7795C7.79316 14.9849 7.6655 15.1648 7.49305 15.294C7.32061 15.4231 7.11205 15.495 6.89665 15.4996C6.68126 15.5041 6.46984 15.4411 6.2921 15.3194C6.11435 15.1976 5.9792 15.0232 5.90563 14.8207L4.16762 10.0413L4.07137 10.3273C4.00301 10.5325 3.87182 10.7111 3.69637 10.8377C3.52092 10.9643 3.3101 11.0325 3.09375 11.0326H1.03125C0.757745 11.0326 0.495443 10.924 0.302046 10.7306C0.108649 10.5372 0 10.2749 0 10.0014C0 9.72787 0.108649 9.46557 0.302046 9.27217C0.495443 9.07877 0.757745 8.97013 1.03125 8.97013H2.35125L3.146 6.58175C3.21337 6.37832 3.34245 6.20093 3.51528 6.07424C3.68812 5.94755 3.89613 5.87785 4.1104 5.87482C4.32468 5.8718 4.53457 5.9356 4.71092 6.05737C4.88726 6.17913 5.02129 6.3528 5.09437 6.55425L6.80625 11.2636L10.0169 1.09688C10.0826 0.887862 10.2132 0.705217 10.3897 0.575421C10.5662 0.445625 10.7795 0.375426 10.9986 0.375001Z" fill="#BFBFBF"/>
</svg>
