<svg width="24" height="24" viewBox="0 0 24 24" fill="none" xmlns="http://www.w3.org/2000/svg">
<path d="M9.5 2C9.10218 2 8.72064 2.15804 8.43934 2.43934C8.15804 2.72064 8 3.10218 8 3.5V4.5C8 4.89782 8.15804 5.27936 8.43934 5.56066C8.72064 5.84196 9.10218 6 9.5 6H14.5C14.8978 6 15.2794 5.84196 15.5607 5.56066C15.842 5.27936 16 4.89782 16 4.5V3.5C16 3.10218 15.842 2.72064 15.5607 2.43934C15.2794 2.15804 14.8978 2 14.5 2H9.5Z" fill="#03AFBF"/>
<path fill-rule="evenodd" clip-rule="evenodd" d="M6.5 4.03699C5.242 4.10699 4.448 4.30699 3.879 4.87699C3 5.75599 3 7.16999 3 9.99799V15.998C3 18.827 3 20.241 3.879 21.12C4.757 21.998 6.172 21.998 9 21.998H15C17.828 21.998 19.243 21.998 20.121 21.12C21 20.24 21 18.827 21 15.998V9.99799C21 7.16999 21 5.75599 20.121 4.87699C19.552 4.30699 18.758 4.10699 17.5 4.03699V4.49999C17.5 5.29564 17.1839 6.0587 16.6213 6.62131C16.0587 7.18392 15.2956 7.49999 14.5 7.49999H9.5C8.70435 7.49999 7.94129 7.18392 7.37868 6.62131C6.81607 6.0587 6.5 5.29564 6.5 4.49999V4.03699ZM15.512 12.548C15.5851 12.481 15.6441 12.4003 15.6858 12.3103C15.7274 12.2204 15.7509 12.1231 15.7547 12.0241C15.7585 11.9251 15.7427 11.8263 15.7082 11.7334C15.6736 11.6406 15.6209 11.5555 15.5533 11.483C15.4856 11.4106 15.4043 11.3523 15.314 11.3116C15.2237 11.2708 15.1262 11.2483 15.0271 11.2454C14.9281 11.2425 14.8294 11.2593 14.7369 11.2947C14.6443 11.3302 14.5598 11.3836 14.488 11.452L10.714 14.974L9.512 13.852C9.36628 13.7184 9.17372 13.6478 8.97621 13.6555C8.77869 13.6631 8.59219 13.7485 8.45724 13.8929C8.3223 14.0373 8.24983 14.2292 8.25559 14.4268C8.26135 14.6243 8.34487 14.8117 8.488 14.948L10.203 16.548C10.3419 16.6775 10.5246 16.7495 10.7145 16.7495C10.9044 16.7495 11.0871 16.6775 11.226 16.548L15.512 12.548Z" fill="#03AFBF"/>
</svg>
