<svg width="22" height="22" viewBox="0 0 22 22" fill="none" xmlns="http://www.w3.org/2000/svg">
<path fill-rule="evenodd" clip-rule="evenodd" d="M10.9986 1.375C11.2173 1.37476 11.4303 1.44403 11.6071 1.5728C11.7838 1.70156 11.915 1.88316 11.9817 2.09138L16.5 16.2112L18.2683 10.6865C18.3347 10.4783 18.4656 10.2965 18.6421 10.1675C18.8185 10.0385 19.0314 9.9689 19.25 9.96875H20.9688C21.2423 9.96875 21.5046 10.0774 21.698 10.2708C21.8914 10.4642 22 10.7265 22 11C22 11.2735 21.8914 11.5358 21.698 11.7292C21.5046 11.9226 21.2423 12.0313 20.9688 12.0313H20.0021L17.4817 19.9086C17.4149 20.1165 17.2839 20.2977 17.1074 20.4263C16.931 20.5549 16.7183 20.6242 16.5 20.6242C16.2817 20.6242 16.069 20.5549 15.8926 20.4263C15.7161 20.2977 15.5851 20.1165 15.5183 19.9086L11.0069 5.81075L7.85813 15.7795C7.79316 15.9849 7.6655 16.1648 7.49305 16.294C7.32061 16.4231 7.11205 16.495 6.89665 16.4996C6.68126 16.5041 6.46984 16.4411 6.2921 16.3194C6.11435 16.1976 5.9792 16.0232 5.90563 15.8207L4.16762 11.0413L4.07137 11.3273C4.00301 11.5325 3.87182 11.7111 3.69637 11.8377C3.52092 11.9643 3.3101 12.0325 3.09375 12.0326H1.03125C0.757745 12.0326 0.495443 11.924 0.302046 11.7306C0.108649 11.5372 0 11.2749 0 11.0014C0 10.7279 0.108649 10.4656 0.302046 10.2722C0.495443 10.0788 0.757745 9.97013 1.03125 9.97013H2.35125L3.146 7.58175C3.21337 7.37832 3.34245 7.20093 3.51528 7.07424C3.68812 6.94755 3.89613 6.87785 4.1104 6.87482C4.32468 6.8718 4.53457 6.9356 4.71092 7.05737C4.88726 7.17913 5.02129 7.3528 5.09437 7.55425L6.80625 12.2636L10.0169 2.09688C10.0826 1.88786 10.2132 1.70522 10.3897 1.57542C10.5662 1.44563 10.7795 1.37543 10.9986 1.375Z" fill="black"/>
</svg>
