<svg width="30" height="30" viewBox="0 0 30 30" fill="none" xmlns="http://www.w3.org/2000/svg">
<circle opacity="0.1" cx="15" cy="15" r="15" fill="#00C7BE"/>
<path d="M22.943 7.05878C22.411 6.5279 21.6902 6.22974 20.9386 6.22974C20.1871 6.22974 19.4662 6.5279 18.9342 7.05878L13.6217 12.3713C13.5531 12.4397 13.5013 12.5232 13.4705 12.615L11.908 17.3025C11.8712 17.4126 11.8657 17.5308 11.8923 17.6438C11.9189 17.7568 11.9764 17.8602 12.0584 17.9423C12.1404 18.0245 12.2437 18.0822 12.3567 18.1089C12.4696 18.1357 12.5878 18.1304 12.698 18.0938L17.3855 16.5313C17.4778 16.5006 17.5617 16.4488 17.6305 16.38L22.943 11.0675C23.4739 10.5356 23.772 9.81471 23.772 9.06316C23.772 8.31161 23.4739 7.59075 22.943 7.05878ZM19.818 7.94253C20.1168 7.65302 20.5174 7.49259 20.9334 7.49587C21.3495 7.49915 21.7475 7.66587 22.0417 7.96006C22.3359 8.25425 22.5026 8.6523 22.5059 9.06833C22.5092 9.48436 22.3487 9.885 22.0592 10.1838L16.8505 15.3913L13.488 16.5125L14.6092 13.15L19.818 7.94253ZM15.0005 8.75003C15.1538 8.75003 15.3063 8.75545 15.458 8.76628L16.5617 7.66253C14.9796 7.32615 13.3312 7.51024 11.8623 8.18734C10.3934 8.86443 9.18276 9.99825 8.41094 11.4197C7.63912 12.8411 7.34749 14.4739 7.57956 16.0746C7.81163 17.6753 8.55496 19.1581 9.69866 20.3019C10.8424 21.4456 12.3252 22.1889 13.9259 22.421C15.5266 22.653 17.1594 22.3614 18.5808 21.5896C20.0023 20.8178 21.1361 19.6071 21.8132 18.1382C22.4903 16.6693 22.6744 15.0209 22.338 13.4388L21.2342 14.5438C21.2451 14.6938 21.2505 14.8459 21.2505 15C21.2505 16.2362 20.8839 17.4445 20.1972 18.4723C19.5104 19.5002 18.5343 20.3012 17.3922 20.7743C16.2502 21.2473 14.9935 21.3711 13.7812 21.1299C12.5688 20.8888 11.4551 20.2935 10.5811 19.4195C9.70698 18.5454 9.11173 17.4317 8.87057 16.2193C8.62941 15.007 8.75318 13.7503 9.22623 12.6083C9.69928 11.4662 10.5004 10.4901 11.5282 9.80335C12.556 9.11659 13.7643 8.75003 15.0005 8.75003Z" fill="#5558F9"/>
</svg>
