<svg width="22" height="22" viewBox="0 0 22 22" fill="none" xmlns="http://www.w3.org/2000/svg">
<path d="M19.054 2.37077C19.1973 2.59602 18.9518 2.85841 18.6915 2.79925V2.79925C18.1823 2.64758 17.619 2.57175 17.0448 2.57175H13.4487C13.2915 2.57175 13.1434 2.4978 13.049 2.37212L11.7907 0.697581V0.697581C11.6381 0.481395 11.7823 0.166748 12.0469 0.166748H15.0298C16.7209 0.166748 18.2106 1.04504 19.054 2.37077Z" fill="#03AFBF"/>
<path d="M19.8187 5.08508C19.3528 4.74925 18.822 4.50008 18.2478 4.35925C17.8578 4.25091 17.457 4.19675 17.0453 4.19675H13.0153C12.387 4.19675 12.3437 4.14258 12.0078 3.69842L10.4912 1.68341C9.78699 0.740915 9.23449 0.166748 7.46866 0.166748H4.95533C2.31199 0.166748 0.166992 2.31175 0.166992 4.95508V17.0451C0.166992 19.6884 2.31199 21.8334 4.95533 21.8334H17.0453C19.6887 21.8334 21.8337 19.6884 21.8337 17.0451V8.98508C21.8337 7.37092 21.0428 5.95175 19.8187 5.08508ZM13.5895 15.7017H8.40033C7.97783 15.7017 7.65283 15.3659 7.65283 14.9434C7.65283 14.5317 7.97783 14.1851 8.40033 14.1851H13.5895C14.012 14.1851 14.3478 14.5317 14.3478 14.9434C14.3478 15.3659 14.012 15.7017 13.5895 15.7017Z" fill="#03AFBF"/>
</svg>
