<svg width="69" height="25" viewBox="0 0 69 25" fill="none" xmlns="http://www.w3.org/2000/svg">
<g clip-path="url(#clip0_287_2638)">
<rect width="69" height="24" transform="translate(0 0.5)" fill="white"/>
<path d="M31.5245 8.125C32.6805 8.125 33.6905 8.348 34.5545 8.796C35.4051 9.2106 36.1083 9.87576 36.5695 10.702C37.0495 11.525 37.2885 12.488 37.2885 13.592C37.2885 14.695 37.0485 15.654 36.5695 16.466C36.1015 17.278 35.4295 17.903 34.5545 18.34C33.6905 18.767 32.6805 18.98 31.5245 18.98H27.9785V8.126L31.5245 8.125ZM31.5245 17.528C32.7945 17.528 33.7685 17.184 34.4455 16.498C35.1225 15.81 35.4605 14.841 35.4605 13.592C35.4605 12.332 35.1225 11.348 34.4455 10.639C33.7685 9.931 32.7955 9.577 31.5245 9.577H29.7595V17.528H31.5245ZM46.8475 10.374V18.981H45.0675V17.965C44.7706 18.3313 44.3898 18.6208 43.9575 18.809C43.5047 19.0079 43.0151 19.1091 42.5205 19.106C41.8445 19.106 41.2345 18.966 40.6935 18.684C40.1591 18.3994 39.7194 17.965 39.4285 17.434C39.1265 16.882 38.9755 16.216 38.9755 15.434V10.374H40.7405V15.169C40.7405 15.94 40.9325 16.533 41.3185 16.95C41.7035 17.356 42.2285 17.56 42.8955 17.56C43.5625 17.56 44.0885 17.356 44.4735 16.95C44.8695 16.534 45.0675 15.94 45.0675 15.17V10.373L46.8475 10.374ZM53.5395 10.234C54.2165 10.234 54.8205 10.374 55.3515 10.655C55.8935 10.936 56.3155 11.353 56.6175 11.905C56.9195 12.457 57.0705 13.123 57.0705 13.905V18.981H55.3045V14.17C55.3045 13.399 55.1125 12.81 54.7265 12.405C54.3415 11.988 53.8165 11.78 53.1495 11.78C52.4825 11.78 51.9515 11.988 51.5565 12.405C51.1705 12.811 50.9785 13.399 50.9785 14.17V18.98H49.1975V10.375H50.9775V11.359C51.2768 10.9991 51.6573 10.7153 52.0875 10.531C52.5459 10.3331 53.0402 10.232 53.5395 10.234ZM67.2295 14.466C67.2295 14.789 67.2095 15.081 67.1675 15.341H60.5905C60.6435 16.029 60.8985 16.581 61.3565 16.997C61.8145 17.413 62.3765 17.622 63.0435 17.622C64.0015 17.622 64.6785 17.221 65.0735 16.419H66.9955C66.7401 17.204 66.2422 17.8878 65.5735 18.372C64.8975 18.872 64.0535 19.122 63.0435 19.122C62.2205 19.122 61.4815 18.939 60.8255 18.575C60.1828 18.2031 59.6535 17.6631 59.2945 17.013C58.9305 16.336 58.7475 15.555 58.7475 14.669C58.7475 13.784 58.9245 13.009 59.2785 12.342C59.6228 11.6861 60.1492 11.1437 60.7945 10.78C61.4505 10.416 62.1995 10.233 63.0435 10.233C63.8555 10.233 64.5795 10.41 65.2145 10.764C65.8429 11.1112 66.3581 11.6319 66.6985 12.264C67.0525 12.899 67.2295 13.634 67.2295 14.466ZM65.3705 13.904C65.3605 13.248 65.1265 12.722 64.6675 12.326C64.2095 11.931 63.6425 11.733 62.9655 11.733C62.3829 11.7208 61.8179 11.9331 61.3875 12.326C60.9505 12.712 60.6895 13.238 60.6075 13.904H65.3705Z" fill="black"/>
<path d="M23.8773 12.774C23.8773 6.559 18.8393 1.521 12.6243 1.521C7.58029 1.521 3.31129 4.839 1.88129 9.413C1.79029 9.706 1.74429 9.852 1.74829 10.035C1.75229 10.185 1.79829 10.368 1.86329 10.502C1.94429 10.666 2.07029 10.792 2.32029 11.042L14.3563 23.077C14.6063 23.327 14.7323 23.453 14.8963 23.534C15.0303 23.6 15.2143 23.645 15.3633 23.649C15.5463 23.653 15.6933 23.608 15.9853 23.516C20.5583 22.086 23.8773 17.818 23.8773 12.774Z" stroke="#3D3D3D" stroke-width="1.627" stroke-linecap="round" stroke-linejoin="round"/>
<path d="M3.24113 10.123C3.50813 10.103 3.77913 10.094 4.05113 10.094C10.2661 10.094 15.3041 15.132 15.3041 21.347C15.3041 21.62 15.2941 21.89 15.2751 22.157C15.2421 22.625 15.2251 22.858 15.0891 23.003C15.0292 23.0628 14.9571 23.109 14.8777 23.1385C14.7984 23.168 14.7136 23.1801 14.6291 23.174C14.4321 23.154 14.2521 22.974 13.8931 22.616L2.78313 11.506C2.42313 11.146 2.24313 10.966 2.22413 10.769C2.21815 10.6845 2.23041 10.5997 2.26009 10.5203C2.28976 10.4409 2.33616 10.3689 2.39613 10.309C2.54013 10.173 2.77413 10.156 3.24113 10.123Z" stroke="#3D3D3D" stroke-width="1.627" stroke-linecap="round" stroke-linejoin="round"/>
<path d="M31.5236 8.12496C32.6796 8.12496 33.6896 8.34796 34.5536 8.79596C35.4042 9.21056 36.1074 9.87572 36.5686 10.702C37.0486 11.525 37.2876 12.488 37.2876 13.592C37.2876 14.695 37.0476 15.654 36.5686 16.466C36.1006 17.278 35.4286 17.903 34.5536 18.34C33.6896 18.767 32.6796 18.98 31.5236 18.98H27.9776V8.12596L31.5236 8.12496ZM31.5236 17.528C32.7936 17.528 33.7676 17.184 34.4446 16.498C35.1216 15.81 35.4596 14.841 35.4596 13.592C35.4596 12.332 35.1216 11.348 34.4446 10.639C33.7676 9.93096 32.7946 9.57696 31.5236 9.57696H29.7586V17.528H31.5236ZM46.8466 10.374V18.981H45.0666V17.965C44.7697 18.3312 44.389 18.6207 43.9566 18.809C43.5039 19.0079 43.0142 19.1091 42.5196 19.106C41.8436 19.106 41.2336 18.966 40.6926 18.684C40.1582 18.3994 39.7186 17.9649 39.4276 17.434C39.1256 16.882 38.9746 16.216 38.9746 15.434V10.374H40.7396V15.169C40.7396 15.94 40.9316 16.533 41.3176 16.95C41.7026 17.356 42.2276 17.56 42.8946 17.56C43.5616 17.56 44.0876 17.356 44.4726 16.95C44.8686 16.534 45.0666 15.94 45.0666 15.17V10.373L46.8466 10.374ZM53.5386 10.234C54.2156 10.234 54.8196 10.374 55.3506 10.655C55.8926 10.936 56.3146 11.353 56.6166 11.905C56.9186 12.457 57.0696 13.123 57.0696 13.905V18.981H55.3036V14.17C55.3036 13.399 55.1116 12.81 54.7256 12.405C54.3406 11.988 53.8156 11.78 53.1486 11.78C52.4816 11.78 51.9506 11.988 51.5556 12.405C51.1696 12.811 50.9776 13.399 50.9776 14.17V18.98H49.1966V10.375H50.9766V11.359C51.276 10.9991 51.6564 10.7153 52.0866 10.531C52.545 10.333 53.0394 10.2319 53.5386 10.234ZM67.2286 14.466C67.2286 14.789 67.2086 15.081 67.1666 15.341H60.5896C60.6426 16.029 60.8976 16.581 61.3556 16.997C61.8136 17.413 62.3756 17.622 63.0426 17.622C64.0006 17.622 64.6776 17.221 65.0726 16.419H66.9946C66.7392 17.204 66.2413 17.8878 65.5726 18.372C64.8966 18.872 64.0526 19.122 63.0426 19.122C62.2196 19.122 61.4806 18.939 60.8246 18.575C60.1819 18.2031 59.6526 17.663 59.2936 17.013C58.9296 16.336 58.7466 15.555 58.7466 14.669C58.7466 13.784 58.9236 13.009 59.2776 12.342C59.6219 11.6861 60.1483 11.1436 60.7936 10.78C61.4496 10.416 62.1986 10.233 63.0426 10.233C63.8546 10.233 64.5786 10.41 65.2136 10.764C65.842 11.1112 66.3572 11.6319 66.6976 12.264C67.0516 12.899 67.2286 13.634 67.2286 14.466ZM65.3696 13.904C65.3596 13.248 65.1256 12.722 64.6666 12.326C64.2086 11.931 63.6416 11.733 62.9646 11.733C62.382 11.7207 61.817 11.9331 61.3866 12.326C60.9496 12.712 60.6886 13.238 60.6066 13.904H65.3696Z" fill="#3D3D3D"/>
<path d="M34.5536 8.79596L34.4036 9.08596L34.4086 9.08696L34.5536 8.79696V8.79596ZM36.5686 10.702L36.2856 10.862L36.2876 10.866L36.5686 10.702ZM36.5686 16.466L36.2886 16.301L36.2866 16.303L36.5686 16.466ZM27.9776 18.98H27.6526V19.306H27.9776V18.98ZM27.9776 8.12596V7.79896H27.6526V8.12496L27.9776 8.12596ZM29.7586 9.57696V9.25196H29.4326V9.57696H29.7586ZM29.7586 17.528H29.4326V17.853H29.7586V17.528ZM31.5236 8.44996C32.6376 8.44996 33.5936 8.66496 34.4036 9.08496L34.7036 8.50696C33.7846 8.03096 32.7216 7.79896 31.5236 7.79896V8.44996ZM34.4086 9.08696C35.2266 9.49696 35.8486 10.087 36.2856 10.861L36.8526 10.542C36.3595 9.65927 35.6083 8.94849 34.6996 8.50496L34.4086 9.08696ZM36.2886 10.866C36.7336 11.631 36.9616 12.536 36.9616 13.592H37.6126C37.6126 12.44 37.3626 11.418 36.8506 10.538L36.2876 10.866H36.2886ZM36.9616 13.592C36.9616 14.647 36.7336 15.547 36.2886 16.301L36.8486 16.631C37.3626 15.761 37.6126 14.744 37.6126 13.591H36.9626L36.9616 13.592ZM36.2866 16.303C35.8516 17.058 35.2286 17.639 34.4086 18.049L34.6986 18.632C35.6004 18.1949 36.3501 17.4961 36.8506 16.628L36.2866 16.303ZM34.4096 18.048C33.5986 18.449 32.6396 18.655 31.5236 18.655V19.306C32.7196 19.306 33.7806 19.086 34.6986 18.632L34.4096 18.048ZM31.5236 18.655H27.9776V19.306H31.5236V18.655ZM28.3036 18.981V8.12496H27.6526V18.98H28.3026L28.3036 18.981ZM27.9776 8.44996H31.5236V7.79996H27.9776V8.44996ZM31.5236 17.853C32.8526 17.853 33.9206 17.493 34.6766 16.725L34.2126 16.269C33.6146 16.876 32.7356 17.203 31.5236 17.203V17.853ZM34.6766 16.725C35.4296 15.961 35.7856 14.9 35.7856 13.592H35.1346C35.1346 14.782 34.8136 15.659 34.2126 16.269L34.6766 16.725ZM35.7856 13.592C35.7856 12.272 35.4296 11.199 34.6796 10.415L34.2096 10.865C34.8136 11.496 35.1346 12.39 35.1346 13.592H35.7856ZM34.6796 10.415C33.9246 9.62496 32.8556 9.25196 31.5236 9.25196V9.90196C32.7336 9.90196 33.6106 10.239 34.2096 10.865L34.6796 10.414V10.415ZM31.5236 9.25196H29.7586V9.90196H31.5236V9.25196ZM29.4326 9.57696V17.528H30.0836V9.57796H29.4336L29.4326 9.57696ZM29.7586 17.853H31.5236V17.203H29.7586V17.853ZM46.8466 10.374L47.1726 10.373V10.048H46.8466V10.374ZM46.8466 18.981V19.306H47.1726V18.981H46.8466ZM45.0666 18.981H44.7406V19.306H45.0666V18.981ZM45.0666 17.965H45.3916V17.032L44.8116 17.763L45.0666 17.965ZM43.9566 18.809L44.0886 19.107L44.0916 19.105L43.9566 18.809ZM40.6926 18.684L40.5406 18.971L40.5426 18.973L40.6926 18.684ZM39.4276 17.434L39.1416 17.59L39.1436 17.595L39.4276 17.434ZM38.9746 10.374V10.048H38.6486V10.374H38.9746ZM40.7396 10.374H41.0646V10.048H40.7396V10.374ZM41.3176 16.95L41.0776 17.171L41.0816 17.174L41.3176 16.95ZM45.0666 10.373V10.048H44.7406V10.374L45.0666 10.373ZM46.5216 10.374V18.981H47.1726L47.1716 10.374H46.5216ZM46.8466 18.655H45.0666V19.306H46.8466V18.655ZM45.3916 18.981V17.965H44.7416L44.7406 18.981H45.3916ZM44.8116 17.763C44.5468 18.089 44.2072 18.3463 43.8216 18.513L44.0916 19.105C44.5916 18.878 45.0046 18.567 45.3216 18.168L44.8116 17.763ZM43.8256 18.511C43.4142 18.692 42.9691 18.784 42.5196 18.781V19.431C43.06 19.4343 43.595 19.3236 44.0896 19.106L43.8256 18.511ZM42.5196 18.781C41.8896 18.781 41.3326 18.65 40.8426 18.395L40.5426 18.973C41.1356 19.281 41.7966 19.431 42.5196 19.431V18.781ZM40.8446 18.396C40.3653 18.1406 39.9711 17.7506 39.7106 17.274L39.1436 17.595C39.4655 18.18 39.951 18.6575 40.5406 18.971L40.8446 18.396ZM39.7126 17.278C39.4426 16.784 39.2996 16.174 39.2996 15.435H38.6496C38.6496 16.257 38.8076 16.98 39.1416 17.59L39.7126 17.278ZM39.2996 15.435V10.374H38.6496V15.434H39.2996V15.435ZM38.9746 10.699H40.7396V10.048H38.9746V10.699ZM40.4146 10.374V15.169H41.0646V10.374H40.4146ZM40.4146 15.169C40.4146 15.992 40.6196 16.676 41.0776 17.171L41.5566 16.729C41.2436 16.392 41.0646 15.888 41.0646 15.169H40.4146ZM41.0816 17.174C41.5396 17.657 42.1576 17.884 42.8946 17.884V17.234C42.2996 17.234 41.8656 17.055 41.5536 16.726L41.0816 17.174ZM42.8946 17.884C43.6326 17.884 44.2506 17.657 44.7086 17.174L44.2366 16.726C43.9246 17.056 43.4906 17.234 42.8946 17.234V17.884ZM44.7086 17.174C45.1786 16.679 45.3916 15.994 45.3916 15.169H44.7416C44.7416 15.886 44.5576 16.389 44.2366 16.726L44.7086 17.174ZM45.3916 15.169V10.374H44.7406L44.7416 15.169H45.3916ZM45.0666 10.699H46.8466V10.048H45.0666V10.699ZM55.3506 10.655L55.1986 10.943H55.2006L55.3506 10.655ZM57.0696 18.981V19.306H57.3946V18.981H57.0696ZM55.3036 18.981H54.9786V19.306H55.3036V18.981ZM54.7256 12.405L54.4866 12.626L54.4896 12.629L54.7256 12.405ZM50.9776 18.981V19.306H51.3026V18.981H50.9776ZM49.1966 18.981H48.8706V19.306H49.1966V18.981ZM49.1966 10.374V10.048H48.8706V10.374H49.1966ZM50.9766 10.374H51.3026V10.048H50.9776L50.9766 10.374ZM50.9766 11.358H50.6516V12.265L51.2286 11.565L50.9766 11.358ZM52.0866 10.53L51.9566 10.231L51.9546 10.232L52.0866 10.53ZM53.5386 10.559C54.1686 10.559 54.7196 10.689 55.1986 10.943L55.5036 10.367C54.9196 10.058 54.2616 9.90696 53.5386 9.90696V10.559ZM55.2006 10.944C55.6836 11.194 56.0586 11.564 56.3306 12.061L56.9016 11.748C56.5856 11.1562 56.0974 10.6743 55.5016 10.366L55.2006 10.944ZM56.3306 12.061C56.6006 12.555 56.7436 13.165 56.7436 13.904H57.3936C57.3936 13.082 57.2356 12.357 56.9016 11.748L56.3306 12.061ZM56.7436 13.904V18.981H57.3946L57.3936 13.904H56.7436ZM57.0686 18.655H55.3036V19.306H57.0696L57.0686 18.655ZM55.6286 18.981V14.17H54.9786V18.98H55.6286V18.981ZM55.6286 14.17C55.6286 13.348 55.4236 12.667 54.9626 12.18L54.4896 12.629C54.7996 12.954 54.9786 13.451 54.9786 14.169H55.6286V14.17ZM54.9646 12.184C54.5076 11.689 53.8886 11.454 53.1486 11.454V12.105C53.7416 12.105 54.1746 12.287 54.4866 12.625L54.9646 12.184ZM53.1486 11.454C52.4086 11.454 51.7876 11.689 51.3196 12.18L51.7906 12.629C52.1156 12.287 52.5556 12.105 53.1486 12.105V11.454ZM51.3186 12.181C50.8586 12.667 50.6516 13.348 50.6516 14.17H51.3026C51.3026 13.45 51.4816 12.954 51.7906 12.629L51.3186 12.181ZM50.6516 14.17V18.98H51.3026V14.17H50.6516ZM50.9766 18.655H49.1966V19.306H50.9776L50.9766 18.655ZM49.5216 18.981V10.374H48.8716V18.981H49.5216ZM49.1966 10.699H50.9766V10.049L49.1966 10.048V10.699ZM50.6516 10.374V11.358H51.3026V10.374H50.6516ZM51.2286 11.565C51.4856 11.254 51.8126 11.007 52.2186 10.828L51.9546 10.232C51.4781 10.4373 51.0569 10.7526 50.7256 11.152L51.2286 11.565ZM52.2156 10.829C52.6333 10.6487 53.0837 10.5568 53.5386 10.559V9.90796C52.995 9.90568 52.4558 10.0156 51.9566 10.231L52.2156 10.829ZM67.1666 15.341L67.1656 15.667H67.4436L67.4876 15.393L67.1666 15.341ZM60.5896 15.341L60.5906 15.016H60.2386L60.2656 15.366L60.5896 15.341ZM65.0726 16.419V16.094H64.8706L64.7806 16.275L65.0726 16.419ZM66.9946 16.419L67.3036 16.521L67.4436 16.094H66.9936L66.9946 16.419ZM60.8246 18.575L60.6606 18.856L60.6666 18.859L60.8246 18.575ZM59.2936 17.013L59.0066 17.167L59.0096 17.172L59.2936 17.012V17.013ZM59.2776 12.343L58.9916 12.188L58.9906 12.189L59.2776 12.342V12.343ZM60.7936 10.78L60.6356 10.496H60.6336L60.7936 10.78ZM66.6976 12.264L66.4126 12.42V12.422L66.6976 12.264ZM65.3696 13.904V14.229H65.7006L65.6956 13.899L65.3696 13.904ZM61.3866 12.326L61.6016 12.571L61.6056 12.568L61.3866 12.326ZM60.6066 13.904L60.2826 13.864L60.2366 14.229H60.6066V13.904ZM66.9036 14.466C66.9036 14.776 66.8836 15.05 66.8446 15.29L67.4876 15.393C67.5326 15.112 67.5546 14.803 67.5546 14.466H66.9036ZM67.1666 15.016H60.5906L60.5896 15.666H67.1666V15.016ZM60.2656 15.366C60.3236 16.126 60.6096 16.759 61.1366 17.238L61.5746 16.756C61.1846 16.402 60.9616 15.931 60.9146 15.316L60.2656 15.366ZM61.1366 17.238C61.6596 17.713 62.3016 17.948 63.0426 17.948V17.296C62.4506 17.296 61.9676 17.114 61.5746 16.756L61.1366 17.238ZM63.0426 17.948C63.5676 17.948 64.0356 17.838 64.4346 17.601C64.8346 17.364 65.1436 17.013 65.3646 16.563L64.7806 16.275C64.6066 16.627 64.3796 16.877 64.1026 17.041C63.8246 17.206 63.4756 17.296 63.0426 17.296V17.948ZM65.0726 16.744H66.9946L66.9936 16.094H65.0726V16.744ZM66.6856 16.317C66.451 17.0381 65.9933 17.6659 65.3786 18.11L65.7666 18.633C66.489 18.1088 67.027 17.3695 67.3036 16.521L66.6856 16.317ZM65.3786 18.11C64.7686 18.56 63.9976 18.796 63.0426 18.796V19.446C64.1076 19.446 65.0226 19.182 65.7666 18.633L65.3786 18.11ZM63.0426 18.796C62.2696 18.796 61.5856 18.626 60.9826 18.29L60.6666 18.86C61.3756 19.253 62.1696 19.447 63.0426 19.447V18.796ZM60.9876 18.293C60.3954 17.9501 59.9079 17.4523 59.5776 16.853L59.0096 17.172C59.3974 17.8721 59.9681 18.4548 60.6606 18.856L60.9876 18.293ZM59.5806 16.858C59.2446 16.235 59.0726 15.509 59.0726 14.669H58.4216C58.4216 15.6 58.6126 16.436 59.0066 17.167L59.5806 16.858ZM59.0726 14.669C59.0726 13.829 59.2406 13.107 59.5656 12.495L58.9906 12.189C58.6076 12.91 58.4216 13.74 58.4216 14.669H59.0726ZM59.5646 12.496C59.9006 11.871 60.3636 11.396 60.9536 11.063L60.6336 10.496C59.9351 10.8896 59.365 11.4784 58.9916 12.188L59.5646 12.496ZM60.9516 11.065C61.5536 10.73 62.2476 10.559 63.0416 10.559V9.90796C62.1516 9.90796 61.3446 10.101 60.6336 10.496L60.9516 11.065ZM63.0416 10.559C63.8056 10.559 64.4736 10.725 65.0556 11.049L65.3726 10.48C64.6826 10.096 63.9026 9.90796 63.0416 9.90796L63.0426 10.558L63.0416 10.559ZM65.0556 11.049C65.6356 11.373 66.0876 11.828 66.4126 12.42L66.9826 12.107C66.6129 11.4216 66.0541 10.8569 65.3726 10.48L65.0556 11.049ZM66.4126 12.422C66.7356 13.002 66.9036 13.681 66.9036 14.466H67.5546C67.5546 13.586 67.3666 12.796 66.9816 12.106L66.4126 12.422ZM65.6956 13.899C65.6836 13.159 65.4146 12.542 64.8796 12.08L64.4546 12.573C64.8356 12.903 65.0346 13.337 65.0446 13.909L65.6956 13.899ZM64.8796 12.08C64.3556 11.627 63.7096 11.408 62.9646 11.408V12.058C63.5726 12.058 64.0626 12.234 64.4546 12.573L64.8796 12.08ZM62.9646 11.408C62.2726 11.408 61.6686 11.633 61.1686 12.085L61.6056 12.568C61.9796 12.228 62.4266 12.058 62.9646 12.058V11.408ZM61.1716 12.082C60.6656 12.528 60.3746 13.132 60.2826 13.864L60.9286 13.944C61.0036 13.344 61.2326 12.895 61.6016 12.571L61.1716 12.082ZM60.6066 14.229H65.3696V13.579H60.6056L60.6066 14.229Z" fill="#3D3D3D"/>
</g>
<defs>
<clipPath id="clip0_287_2638">
<rect width="69" height="24" fill="white" transform="translate(0 0.5)"/>
</clipPath>
</defs>
</svg>
