<svg width="58" height="20" viewBox="0 0 58 20" fill="none" xmlns="http://www.w3.org/2000/svg">
<g clip-path="url(#clip0_287_2623)">
<rect width="58" height="19" transform="translate(0 0.5)" fill="white"/>
<path d="M20.2628 14.109C19.3228 14.109 18.5028 13.893 17.8018 13.462C17.097 13.0268 16.5309 12.3996 16.1698 11.654C15.7828 10.88 15.5898 9.97404 15.5898 8.93904C15.5898 7.89904 15.7828 6.98904 16.1698 6.21104C16.5568 5.43104 17.1008 4.82704 17.8018 4.39604C18.5018 3.96604 19.3218 3.75004 20.2618 3.75004C21.2018 3.75004 22.0218 3.96604 22.7228 4.39604C23.4288 4.83302 23.9951 5.46278 24.3548 6.21104C24.7418 6.99004 24.9348 7.89904 24.9348 8.93904C24.9348 9.97504 24.7418 10.879 24.3548 11.654C23.9938 12.3996 23.4277 13.0268 22.7228 13.462C22.0228 13.893 21.2028 14.109 20.2628 14.109ZM20.2688 12.47C20.8788 12.47 21.3828 12.31 21.7828 11.987C22.1828 11.665 22.4798 11.237 22.6708 10.701C22.8721 10.1336 22.9717 9.53508 22.9648 8.93304C22.9648 8.29304 22.8668 7.70604 22.6708 7.17004C22.4788 6.63004 22.1838 6.19804 21.7828 5.87104C21.3828 5.54504 20.8778 5.38104 20.2688 5.38104C19.6548 5.38104 19.1458 5.54504 18.7418 5.87104C18.3418 6.19804 18.0428 6.63104 17.8468 7.17104C17.6503 7.73743 17.5532 8.33355 17.5598 8.93304C17.5598 9.57704 17.6558 10.166 17.8468 10.701C18.0428 11.237 18.3408 11.665 18.7418 11.987C19.1458 12.309 19.6548 12.47 20.2688 12.47ZM31.3368 14.109C30.3968 14.109 29.5768 13.893 28.8768 13.462C28.172 13.0268 27.6059 12.3996 27.2448 11.654C26.8578 10.88 26.6638 9.97404 26.6638 8.93904C26.6638 7.89904 26.8578 6.98904 27.2438 6.21104C27.6318 5.43104 28.1758 4.82704 28.8768 4.39604C29.5768 3.96604 30.3968 3.75004 31.3368 3.75004C32.2768 3.75004 33.0968 3.96604 33.7978 4.39604C34.5038 4.83302 35.0701 5.46278 35.4298 6.21104C35.8168 6.99004 36.0098 7.89904 36.0098 8.93904C36.0098 9.97504 35.8168 10.879 35.4298 11.654C35.0688 12.3996 34.5027 13.0268 33.7978 13.462C33.0978 13.893 32.2768 14.109 31.3368 14.109ZM31.3438 12.47C31.9528 12.47 32.4578 12.31 32.8578 11.987C33.2578 11.665 33.5538 11.237 33.7458 10.701C33.9471 10.1336 34.0467 9.53508 34.0398 8.93304C34.0398 8.29304 33.9418 7.70604 33.7458 7.17004C33.5538 6.63004 33.2578 6.19804 32.8578 5.87104C32.4578 5.54504 31.9528 5.38104 31.3438 5.38104C30.7298 5.38104 30.2208 5.54504 29.8168 5.87104C29.4168 6.19804 29.1178 6.63104 28.9218 7.17104C28.7253 7.73743 28.6282 8.33355 28.6348 8.93304C28.6348 9.57704 28.7308 10.166 28.9218 10.701C29.1178 11.237 29.4158 11.665 29.8168 11.987C30.2208 12.309 30.7298 12.47 31.3438 12.47ZM39.9838 10.506L39.9708 8.12304H40.3108L44.3048 3.88104H46.6418L42.0858 8.71104H41.7788L39.9838 10.506ZM38.1888 13.906V0.540039H40.1408V13.907L38.1888 13.906ZM44.5198 13.906L40.9298 9.14204L42.2748 7.77704L46.9148 13.907H44.5208L44.5198 13.906ZM55.9328 6.32804L54.1638 6.64204C54.0857 6.40726 53.9665 6.1882 53.8118 5.99504C53.6411 5.7796 53.4218 5.60759 53.1718 5.49304C52.9018 5.36304 52.5648 5.29704 52.1598 5.29704C51.6078 5.29704 51.1458 5.42104 50.7768 5.66904C50.4068 5.91304 50.2218 6.22904 50.2218 6.61604C50.2218 6.95104 50.3458 7.22004 50.5938 7.42504C50.8418 7.62904 51.2418 7.79704 51.7938 7.92704L53.3868 8.29304C54.3098 8.50604 54.9968 8.83504 55.4498 9.27904C55.9018 9.72204 56.1288 10.299 56.1288 11.009C56.1288 11.609 55.9548 12.144 55.6058 12.614C55.2628 13.079 54.7818 13.445 54.1638 13.71C53.5508 13.976 52.8388 14.109 52.0298 14.109C50.9068 14.109 49.9908 13.869 49.2818 13.391C48.5718 12.908 48.1368 12.222 47.9758 11.335L49.8628 11.047C49.9798 11.539 50.2218 11.911 50.5868 12.164C50.9528 12.412 51.4288 12.536 52.0168 12.536C52.6568 12.536 53.1668 12.403 53.5508 12.137C53.9328 11.867 54.1248 11.539 54.1248 11.152C54.1248 10.839 54.0068 10.575 53.7718 10.362C53.5418 10.149 53.1868 9.98804 52.7088 9.87904L51.0118 9.50704C50.0758 9.29404 49.3838 8.95404 48.9358 8.48904C48.4918 8.02304 48.2698 7.43404 48.2698 6.72004C48.2698 6.12804 48.4358 5.61004 48.7658 5.16704C49.0958 4.72304 49.5538 4.37704 50.1358 4.12904C50.7198 3.87604 51.3878 3.75004 52.1408 3.75004C53.2238 3.75004 54.0768 3.98504 54.6988 4.45504C55.3218 4.92104 55.7328 5.54504 55.9328 6.32804Z" fill="black"/>
<path d="M5.52445 18.8969H56.9835V16.4419H5.52345C4.85924 16.4408 4.22254 16.1764 3.75297 15.7067C3.28339 15.2369 3.01925 14.6001 3.01845 13.9359C3.01898 13.2716 3.28324 12.6347 3.75315 12.1652C4.22306 11.6956 4.86017 11.4319 5.52445 11.4319H12.9715V8.97789H5.52445C4.86006 8.9771 4.22311 8.71282 3.75332 8.24303C3.28353 7.77323 3.01925 7.13628 3.01845 6.47189C3.01898 5.80733 3.28314 5.17012 3.75297 4.70011C4.22279 4.2301 4.85989 3.96569 5.52445 3.96489H12.9715V1.51489H5.52445C4.20974 1.51569 2.94906 2.0381 2.01914 2.96746C1.08922 3.89682 0.566042 5.15718 0.564453 6.47189C0.564453 7.96089 1.23745 9.27989 2.27845 10.1899L2.29445 10.2039L2.27845 10.2169C1.23745 11.1269 0.564453 12.4499 0.564453 13.9359C0.566041 15.2509 1.08912 16.5116 2.01896 17.4414C2.94879 18.3712 4.20947 18.8953 5.52445 18.8969Z" fill="#3D3D3D"/>
<path d="M20.2616 14.109C19.3216 14.109 18.5016 13.893 17.8006 13.462C17.0957 13.0267 16.5296 12.3996 16.1686 11.654C15.7816 10.88 15.5886 9.97401 15.5886 8.93901C15.5886 7.89901 15.7816 6.98901 16.1686 6.21101C16.5556 5.43101 17.0996 4.82701 17.8006 4.39601C18.5006 3.96601 19.3206 3.75001 20.2606 3.75001C21.2006 3.75001 22.0206 3.96601 22.7216 4.39601C23.4275 4.83299 23.9938 5.46275 24.3536 6.21101C24.7406 6.99001 24.9336 7.89901 24.9336 8.93901C24.9336 9.97501 24.7406 10.879 24.3536 11.654C23.9925 12.3996 23.4264 13.0267 22.7216 13.462C22.0216 13.893 21.2016 14.109 20.2616 14.109ZM20.2676 12.47C20.8776 12.47 21.3816 12.31 21.7816 11.987C22.1816 11.665 22.4786 11.237 22.6696 10.701C22.8709 10.1336 22.9704 9.53505 22.9636 8.93301C22.9636 8.29301 22.8656 7.70601 22.6696 7.17001C22.4776 6.63001 22.1826 6.19801 21.7816 5.87101C21.3816 5.54501 20.8766 5.38101 20.2676 5.38101C19.6536 5.38101 19.1446 5.54501 18.7406 5.87101C18.3406 6.19801 18.0416 6.63101 17.8456 7.17101C17.649 7.73739 17.5519 8.33352 17.5586 8.93301C17.5586 9.57701 17.6546 10.166 17.8456 10.701C18.0416 11.237 18.3396 11.665 18.7406 11.987C19.1446 12.309 19.6536 12.47 20.2676 12.47ZM31.3356 14.109C30.3956 14.109 29.5756 13.893 28.8756 13.462C28.1707 13.0267 27.6046 12.3996 27.2436 11.654C26.8566 10.88 26.6626 9.97401 26.6626 8.93901C26.6626 7.89901 26.8566 6.98901 27.2426 6.21101C27.6306 5.43101 28.1746 4.82701 28.8756 4.39601C29.5756 3.96601 30.3956 3.75001 31.3356 3.75001C32.2756 3.75001 33.0956 3.96601 33.7966 4.39601C34.5025 4.83299 35.0688 5.46275 35.4286 6.21101C35.8156 6.99001 36.0086 7.89901 36.0086 8.93901C36.0086 9.97501 35.8156 10.879 35.4286 11.654C35.0675 12.3996 34.5014 13.0267 33.7966 13.462C33.0966 13.893 32.2756 14.109 31.3356 14.109ZM31.3426 12.47C31.9516 12.47 32.4566 12.31 32.8566 11.987C33.2566 11.665 33.5526 11.237 33.7446 10.701C33.9459 10.1336 34.0454 9.53505 34.0386 8.93301C34.0386 8.29301 33.9406 7.70601 33.7446 7.17001C33.5526 6.63001 33.2566 6.19801 32.8566 5.87101C32.4566 5.54501 31.9516 5.38101 31.3426 5.38101C30.7286 5.38101 30.2196 5.54501 29.8156 5.87101C29.4156 6.19801 29.1166 6.63101 28.9206 7.17101C28.724 7.73739 28.6269 8.33352 28.6336 8.93301C28.6336 9.57701 28.7296 10.166 28.9206 10.701C29.1166 11.237 29.4146 11.665 29.8156 11.987C30.2196 12.309 30.7286 12.47 31.3426 12.47ZM39.9826 10.506L39.9696 8.12301H40.3096L44.3036 3.88101H46.6406L42.0846 8.71101H41.7776L39.9826 10.506ZM38.1876 13.906V0.540006H40.1396V13.907L38.1876 13.906ZM44.5186 13.906L40.9286 9.14201L42.2736 7.77701L46.9136 13.907H44.5196L44.5186 13.906ZM55.9316 6.32801L54.1626 6.64201C54.0844 6.40723 53.9652 6.18817 53.8106 5.99501C53.6398 5.77957 53.4205 5.60756 53.1706 5.49301C52.9006 5.36301 52.5636 5.29701 52.1586 5.29701C51.6066 5.29701 51.1446 5.42101 50.7756 5.66901C50.4056 5.91301 50.2206 6.22901 50.2206 6.61601C50.2206 6.95101 50.3446 7.22001 50.5926 7.42501C50.8406 7.62901 51.2406 7.79701 51.7926 7.92701L53.3856 8.29301C54.3086 8.50601 54.9956 8.83501 55.4486 9.27901C55.9006 9.72201 56.1276 10.299 56.1276 11.009C56.1276 11.609 55.9536 12.144 55.6046 12.614C55.2616 13.079 54.7806 13.445 54.1626 13.71C53.5496 13.976 52.8376 14.109 52.0286 14.109C50.9056 14.109 49.9896 13.869 49.2806 13.391C48.5706 12.908 48.1356 12.222 47.9746 11.335L49.8616 11.047C49.9786 11.539 50.2206 11.911 50.5856 12.164C50.9516 12.412 51.4276 12.536 52.0156 12.536C52.6556 12.536 53.1656 12.403 53.5496 12.137C53.9316 11.867 54.1236 11.539 54.1236 11.152C54.1236 10.839 54.0056 10.575 53.7706 10.362C53.5406 10.149 53.1856 9.98801 52.7076 9.87901L51.0106 9.50701C50.0746 9.29401 49.3826 8.95401 48.9346 8.48901C48.4906 8.02301 48.2686 7.43401 48.2686 6.72001C48.2686 6.12801 48.4346 5.61001 48.7646 5.16701C49.0946 4.72301 49.5526 4.37701 50.1346 4.12901C50.7186 3.87601 51.3866 3.75001 52.1396 3.75001C53.2226 3.75001 54.0756 3.98501 54.6976 4.45501C55.3206 4.92101 55.7316 5.54501 55.9316 6.32801Z" fill="#3D3D3D"/>
<path d="M22.6696 10.701L22.4226 10.611V10.613L22.6696 10.701ZM22.6696 7.17001L22.4216 7.25801L22.4226 7.26101L22.6696 7.17001ZM17.8456 10.701L17.5986 10.79V10.792L17.8456 10.701ZM20.2606 13.846C19.3626 13.846 18.5906 13.641 17.9376 13.239L17.6626 13.686C18.4106 14.146 19.2796 14.371 20.2616 14.371L20.2606 13.846ZM17.9376 13.239C17.2747 12.8292 16.7425 12.2388 16.4036 11.537L15.9336 11.772C16.3167 12.5614 16.9158 13.2253 17.6626 13.686L17.9376 13.239ZM16.4036 11.537C16.0376 10.805 15.8506 9.94201 15.8506 8.93901H15.3256C15.3256 10.008 15.5256 10.954 15.9336 11.772L16.4036 11.537ZM15.8506 8.93901C15.8506 7.93201 16.0376 7.06401 16.4036 6.32801L15.9336 6.09401C15.5246 6.91601 15.3256 7.86601 15.3256 8.93901H15.8506ZM16.4036 6.32801C16.7706 5.59001 17.2816 5.02401 17.9376 4.62001L17.6626 4.17301C16.9176 4.63101 16.3416 5.27301 15.9326 6.09401L16.4036 6.32801ZM17.9376 4.62001C18.5916 4.21801 19.3626 4.01301 20.2616 4.01301V3.48801C19.2796 3.48801 18.4106 3.71301 17.6626 4.17301L17.9376 4.62001ZM20.2616 4.01301C21.1596 4.01301 21.9316 4.21801 22.5846 4.62001L22.8596 4.17301C22.1116 3.71301 21.2426 3.48801 20.2616 3.48801V4.01301ZM22.5846 4.62001C23.2406 5.02401 23.7516 5.59001 24.1186 6.32801L24.5886 6.09401C24.1806 5.27401 23.6046 4.63101 22.8586 4.17301L22.5846 4.62001ZM24.1186 6.32801C24.4846 7.06401 24.6716 7.93201 24.6716 8.93901H25.1976C25.1976 7.86601 24.9976 6.91601 24.5886 6.09401L24.1186 6.32801ZM24.6716 8.93901C24.6716 9.94201 24.4846 10.805 24.1186 11.537L24.5886 11.772C24.9976 10.954 25.1976 10.008 25.1976 8.93901H24.6716ZM24.1186 11.537C23.7796 12.2388 23.2475 12.8292 22.5846 13.239L22.8596 13.686C23.606 13.2252 24.2057 12.5613 24.5886 11.772L24.1186 11.537ZM22.5846 13.239C21.9306 13.641 21.1586 13.846 20.2606 13.846L20.2616 14.371C21.2416 14.371 22.1116 14.146 22.8596 13.686L22.5846 13.239ZM20.2676 12.733C20.9246 12.733 21.4916 12.558 21.9466 12.192L21.6166 11.782C21.2716 12.06 20.8286 12.208 20.2676 12.208V12.733ZM21.9466 12.192C22.3886 11.836 22.7106 11.366 22.9166 10.79L22.4226 10.613C22.2456 11.108 21.9756 11.494 21.6176 11.783L21.9466 12.192ZM22.9166 10.792C23.1236 10.224 23.2266 9.60301 23.2266 8.93201H22.6996C22.7067 9.50402 22.6126 10.0728 22.4216 10.612L22.9166 10.792ZM23.2266 8.93201C23.2266 8.26601 23.1236 7.64801 22.9166 7.08001L22.4226 7.26101C22.613 7.79796 22.7071 8.36332 22.7006 8.93301H23.2256L23.2266 8.93201ZM22.9166 7.08201C22.7116 6.50201 22.3896 6.02801 21.9476 5.66801L21.6156 6.07501C21.9756 6.36801 22.2456 6.75901 22.4216 7.25801L22.9166 7.08301V7.08201ZM21.9476 5.66801C21.4926 5.29701 20.9256 5.11901 20.2676 5.11901V5.64401C20.8276 5.64401 21.2706 5.79401 21.6156 6.07501L21.9476 5.66801ZM20.2676 5.11901C19.6056 5.11901 19.0346 5.29701 18.5756 5.66701L18.9056 6.07601C19.2556 5.79401 19.7026 5.64401 20.2676 5.64401V5.11901ZM18.5746 5.66801C18.1336 6.02801 17.8096 6.50201 17.5996 7.08101L18.0926 7.26001C18.2746 6.76001 18.5466 6.36801 18.9066 6.07501L18.5746 5.66801ZM17.5986 7.08201C17.392 7.67665 17.2898 8.30254 17.2966 8.93201H17.8216C17.8216 8.31901 17.9136 7.76201 18.0936 7.25901L17.5986 7.08201ZM17.2966 8.93201C17.2966 9.60201 17.3966 10.222 17.5986 10.79L18.0936 10.613C17.9067 10.0729 17.8147 9.5035 17.8216 8.93201H17.2966ZM17.5986 10.792C17.8086 11.367 18.1346 11.837 18.5756 12.192L18.9056 11.782C18.5456 11.494 18.2736 11.107 18.0926 10.612L17.5986 10.792ZM18.5756 12.192C19.0356 12.558 19.6066 12.733 20.2676 12.733V12.208C19.7016 12.208 19.2536 12.06 18.9036 11.782L18.5756 12.192ZM33.7446 10.701L33.4976 10.611V10.613L33.7446 10.701ZM33.7446 7.17001L33.4966 7.25801L33.4976 7.26101L33.7446 7.17001ZM28.9206 10.701L28.6736 10.79V10.792L28.9206 10.701ZM29.8156 11.987L29.6506 12.192H29.6516L29.8156 11.987ZM31.3356 13.846C30.4376 13.846 29.6656 13.641 29.0126 13.239L28.7376 13.686C29.4856 14.146 30.3546 14.371 31.3356 14.371V13.846ZM29.0126 13.239C28.3497 12.8292 27.8175 12.2388 27.4786 11.537L27.0086 11.772C27.3917 12.5614 27.9908 13.2253 28.7376 13.686L29.0126 13.239ZM27.4786 11.537C27.1126 10.805 26.9256 9.94201 26.9256 8.93901H26.3996C26.3996 10.008 26.5996 10.954 27.0086 11.772L27.4786 11.537ZM26.9256 8.93901C26.9256 7.93201 27.1126 7.06401 27.4786 6.32801L27.0086 6.09401C26.5996 6.91601 26.3996 7.86601 26.3996 8.93901H26.9256ZM27.4786 6.32801C27.8456 5.59001 28.3566 5.02401 29.0126 4.62001L28.7376 4.17301C27.9926 4.63101 27.4166 5.27301 27.0076 6.09401L27.4786 6.32801ZM29.0126 4.62001C29.6666 4.21801 30.4376 4.01301 31.3356 4.01301V3.48801C30.3546 3.48801 29.4856 3.71301 28.7376 4.17301L29.0126 4.62001ZM31.3356 4.01301C32.2346 4.01301 33.0056 4.21801 33.6596 4.62001L33.9346 4.17301C33.1866 3.71301 32.3176 3.48801 31.3356 3.48801V4.01301ZM33.6596 4.62001C34.3156 5.02401 34.8266 5.59001 35.1936 6.32801L35.6636 6.09401C35.2556 5.27401 34.6786 4.63101 33.9336 4.17301L33.6596 4.62001ZM35.1936 6.32801C35.5596 7.06401 35.7466 7.93201 35.7466 8.93901H36.2716C36.2716 7.86601 36.0716 6.91601 35.6636 6.09401L35.1936 6.32801ZM35.7466 8.93901C35.7466 9.94201 35.5596 10.805 35.1936 11.537L35.6636 11.772C36.0716 10.954 36.2716 10.008 36.2716 8.93901H35.7466ZM35.1936 11.537C34.8544 12.2389 34.3218 12.8294 33.6586 13.239L33.9346 13.686C34.681 13.2252 35.2807 12.5613 35.6636 11.772L35.1936 11.537ZM33.6586 13.239C33.0056 13.641 32.2346 13.846 31.3356 13.846V14.371C32.3176 14.371 33.1856 14.146 33.9346 13.686L33.6586 13.239ZM31.3426 12.733C31.9996 12.733 32.5656 12.558 33.0216 12.192L32.6916 11.782C32.3466 12.06 31.9036 12.208 31.3416 12.208V12.733H31.3426ZM33.0216 12.192C33.4636 11.836 33.7856 11.366 33.9916 10.79L33.4976 10.613C33.3206 11.108 33.0506 11.494 32.6926 11.783L33.0216 12.192ZM33.9916 10.792C34.1986 10.224 34.3016 9.60301 34.3016 8.93201H33.7756C33.7825 9.504 33.6884 10.0737 33.4976 10.613L33.9916 10.792ZM34.3016 8.93201C34.3016 8.26601 34.1986 7.64801 33.9916 7.08001L33.4976 7.26101C33.688 7.79796 33.7821 8.36232 33.7756 8.93201L34.3006 8.93301L34.3016 8.93201ZM33.9916 7.08201C33.7856 6.50201 33.4646 6.02801 33.0226 5.66801L32.6906 6.07501C33.0506 6.36801 33.3206 6.75901 33.4966 7.25801L33.9916 7.08301V7.08201ZM33.0226 5.66801C32.5676 5.29701 32.0006 5.11901 31.3426 5.11901V5.64401C31.9026 5.64401 32.3456 5.79401 32.6906 6.07501L33.0226 5.66801ZM31.3426 5.11901C30.6806 5.11901 30.1096 5.29701 29.6506 5.66701L29.9806 6.07601C30.3306 5.79401 30.7776 5.64401 31.3426 5.64401V5.11901ZM29.6496 5.66801C29.2086 6.02801 28.8846 6.50201 28.6736 7.08101L29.1676 7.26001C29.3496 6.76001 29.6216 6.36801 29.9806 6.07501L29.6496 5.66801ZM28.6736 7.08101C28.467 7.67565 28.3648 8.30254 28.3716 8.93201H28.8966C28.8966 8.31901 28.9876 7.76201 29.1686 7.25901L28.6736 7.08101ZM28.3716 8.93201C28.3716 9.60201 28.4716 10.222 28.6736 10.79L29.1686 10.613C28.9817 10.0729 28.8897 9.5035 28.8966 8.93201H28.3716ZM28.6736 10.792C28.8836 11.367 29.2086 11.837 29.6506 12.192L29.9806 11.782C29.6206 11.494 29.3486 11.107 29.1676 10.612L28.6736 10.792ZM29.6516 12.192C30.1116 12.558 30.6816 12.733 31.3416 12.733V12.208C30.7766 12.208 30.3286 12.06 29.9786 11.782L29.6516 12.192ZM39.9826 10.506L39.7196 10.507L39.7236 11.137L40.1686 10.691L39.9826 10.506ZM39.9696 8.12301V7.86101H39.7056L39.7066 8.12501L39.9696 8.12301ZM40.3096 8.12301V8.38601H40.4226L40.5006 8.30301L40.3086 8.12301H40.3096ZM44.3036 3.88101V3.61801H44.1896L44.1126 3.70101L44.3036 3.88101ZM46.6406 3.88101L46.8306 4.06101L47.2486 3.61801H46.6406V3.88101ZM42.0846 8.71101V8.97301H42.1976L42.2756 8.89101L42.0846 8.71101ZM41.7776 8.71101V8.44801H41.6686L41.5916 8.52501L41.7776 8.71101ZM38.1876 13.906H37.9246V14.169H38.1876V13.906ZM38.1876 0.539006V0.276006H37.9246V0.540006L38.1876 0.539006ZM40.1396 0.539006H40.4016V0.276006H40.1396V0.539006ZM40.1396 13.907V14.169H40.4016V13.906L40.1396 13.907ZM44.5196 13.907L44.3096 14.064L44.3876 14.169H44.5186L44.5196 13.907ZM40.9296 9.14201L40.7416 8.95701L40.5826 9.11901L40.7196 9.29901L40.9296 9.14201ZM42.2736 7.77701L42.4836 7.61901L42.2996 7.37701L42.0866 7.59301L42.2736 7.77701ZM46.9136 13.907V14.169H47.4426L47.1236 13.748L46.9136 13.907ZM40.2456 10.504L40.2316 8.12201L39.7066 8.12501L39.7196 10.507L40.2456 10.504ZM39.9696 8.38601H40.3096V7.86001L39.9696 7.86101V8.38601ZM40.5006 8.30301L44.4946 4.06101L44.1126 3.70101L40.1176 7.94301L40.5006 8.30301ZM44.3036 4.14301H46.6406V3.61801H44.3036V4.14301ZM46.4496 3.70101L41.8936 8.53101L42.2756 8.89101L46.8306 4.06101L46.4496 3.70101ZM42.0846 8.44801H41.7776V8.97301H42.0846V8.44801ZM41.5916 8.52501L39.7966 10.32L40.1686 10.691L41.9636 8.89601L41.5916 8.52501ZM38.4506 13.906V0.540006H37.9246V13.906H38.4506ZM38.1876 0.801006H40.1396V0.276006H38.1876V0.801006ZM39.8776 0.539006V13.906H40.4016V0.539006L39.8766 0.540006L39.8776 0.539006ZM40.1396 13.644H38.1876V14.169H40.1396V13.644ZM44.7286 13.748L41.1386 8.98301L40.7196 9.29901L44.3086 14.064L44.7286 13.748ZM41.1156 9.32601L42.4606 7.96201L42.0866 7.59301L40.7416 8.95701L41.1156 9.32601ZM42.0646 7.93601L46.7046 14.065L47.1236 13.748L42.4826 7.61801L42.0646 7.93601ZM46.9146 13.644H44.5186V14.169H46.9136L46.9146 13.644ZM55.9316 6.32801L55.9776 6.58701L56.2556 6.53701L56.1856 6.26301L55.9316 6.32801ZM54.1626 6.64201L53.9126 6.72301L53.9836 6.94001L54.2086 6.90001L54.1626 6.64201ZM53.8106 5.99501L53.6016 6.15501L53.6036 6.15801L53.8106 5.99501ZM50.7756 5.66901L50.9196 5.88901L50.9216 5.88701L50.7756 5.66901ZM47.9746 11.335L47.9346 11.075L47.6686 11.115L47.7166 11.381L47.9746 11.335ZM49.8616 11.047L50.1166 10.987L50.0606 10.751L49.8216 10.788L49.8616 11.048V11.047ZM50.5856 12.164L50.4366 12.38H50.4386L50.5856 12.164ZM53.7706 10.362L53.5926 10.555L53.5946 10.557L53.7706 10.362ZM52.7076 9.87901L52.7656 9.62301H52.7636L52.7076 9.87901ZM51.0106 9.50701L50.9516 9.76301H50.9536L51.0096 9.50701H51.0106ZM50.1346 4.12901L50.2386 4.37001H50.2396L50.1356 4.12901H50.1346ZM55.8856 6.07001L54.1166 6.38301L54.2086 6.90001L55.9776 6.58701L55.8856 6.07001ZM54.4126 6.56001C54.3245 6.29621 54.1904 6.05008 54.0166 5.83301L53.6036 6.15801C53.7476 6.34001 53.8496 6.52801 53.9136 6.72301L54.4126 6.56001ZM54.0186 5.83601C53.8231 5.58747 53.5716 5.38972 53.2846 5.25701L53.0566 5.72901C53.2946 5.84501 53.4736 5.98901 53.6016 6.15501L54.0186 5.83601ZM53.2846 5.25701C52.9696 5.10501 52.5896 5.03401 52.1586 5.03401V5.56001C52.5376 5.56001 52.8326 5.61901 53.0566 5.72901L53.2846 5.25701ZM52.1586 5.03401C51.5666 5.03401 51.0516 5.16801 50.6286 5.45101L50.9216 5.88701C51.2386 5.67401 51.6456 5.56001 52.1586 5.56001V5.03401ZM50.6306 5.45001C50.1996 5.73401 49.9576 6.12601 49.9576 6.61601H50.4826C50.4826 6.33001 50.6106 6.09301 50.9196 5.88901L50.6306 5.45001ZM49.9576 6.61601C49.9576 7.02601 50.1136 7.37101 50.4256 7.62701L50.7596 7.22201C50.669 7.1499 50.5967 7.05744 50.5486 6.95215C50.5004 6.84685 50.4778 6.73168 50.4826 6.61601H49.9576ZM50.4256 7.62701C50.7196 7.87001 51.1676 8.04901 51.7336 8.18301L51.8536 7.67201C51.3146 7.54501 50.9606 7.38901 50.7596 7.22201L50.4256 7.62701ZM51.7336 8.18301L53.3276 8.54901L53.4456 8.03701L51.8516 7.67201L51.7336 8.18301ZM53.3276 8.54901C54.2246 8.75601 54.8596 9.06901 55.2646 9.46601L55.6326 9.09101C55.1326 8.60101 54.3936 8.25601 53.4456 8.03701L53.3276 8.54901ZM55.2646 9.46601C55.6606 9.85401 55.8646 10.36 55.8646 11.008H56.3896C56.3896 10.238 56.1416 9.59001 55.6326 9.09101L55.2646 9.46601ZM55.8646 11.008C55.8646 11.554 55.7066 12.034 55.3936 12.458L55.8156 12.77C56.1951 12.2616 56.3968 11.6424 56.3896 11.008H55.8646ZM55.3936 12.458C55.0806 12.88 54.6406 13.219 54.0586 13.469L54.2666 13.952C54.9196 13.671 55.4396 13.279 55.8156 12.77L55.3936 12.458ZM54.0586 13.469C53.4836 13.718 52.8086 13.846 52.0286 13.846V14.371C52.8656 14.371 53.6146 14.235 54.2666 13.952L54.0586 13.469ZM52.0286 13.846C50.9416 13.846 50.0816 13.614 49.4276 13.173L49.1326 13.608C49.8966 14.124 50.8696 14.371 52.0286 14.371V13.846ZM49.4286 13.174C48.7806 12.732 48.3826 12.11 48.2336 11.288L47.7166 11.381C47.8896 12.334 48.3616 13.083 49.1326 13.608L49.4286 13.174ZM48.0146 11.594L49.9006 11.307L49.8216 10.787L47.9346 11.075L48.0146 11.595V11.594ZM49.6056 11.108C49.7356 11.654 50.0106 12.085 50.4366 12.38L50.7346 11.947C50.4306 11.737 50.2216 11.424 50.1166 10.987L49.6056 11.108ZM50.4386 12.38C50.8596 12.666 51.3926 12.798 52.0156 12.798V12.273C51.4636 12.273 51.0426 12.156 50.7336 11.946L50.4386 12.38ZM52.0156 12.798C52.6886 12.798 53.2596 12.658 53.6996 12.353L53.3986 11.922C53.0746 12.147 52.6206 12.273 52.0156 12.273V12.798ZM53.7006 12.352C54.1366 12.045 54.3856 11.643 54.3856 11.152H53.8606C53.8606 11.435 53.7286 11.691 53.3986 11.922L53.7006 12.352ZM54.3856 11.152C54.3856 10.763 54.2356 10.43 53.9476 10.168L53.5946 10.557C53.7746 10.721 53.8606 10.914 53.8606 11.152H54.3856ZM53.9496 10.169C53.6706 9.91201 53.2656 9.73701 52.7656 9.62301L52.6486 10.135C53.1056 10.239 53.4096 10.385 53.5926 10.555L53.9496 10.169ZM52.7636 9.62301L51.0666 9.25101L50.9536 9.76401L52.6506 10.136L52.7636 9.62301ZM51.0686 9.25101C50.1596 9.04401 49.5226 8.72101 49.1236 8.30701L48.7456 8.67101C49.2426 9.18701 49.9886 9.54401 50.9516 9.76301L51.0686 9.25101ZM49.1246 8.30801C48.7326 7.89601 48.5316 7.37401 48.5316 6.72001H48.0066C48.0066 7.49301 48.2486 8.15001 48.7446 8.67001L49.1246 8.30801ZM48.5316 6.72001C48.5316 6.18001 48.6816 5.71901 48.9756 5.32301L48.5546 5.01001C48.1876 5.50201 48.0066 6.07601 48.0066 6.72001H48.5316ZM48.9756 5.32301C49.2746 4.92201 49.6916 4.60301 50.2386 4.37001L50.0326 3.88701C49.4126 4.15101 48.9166 4.52301 48.5546 5.01001L48.9746 5.32301H48.9756ZM50.2396 4.37001C50.7846 4.13401 51.4156 4.01301 52.1396 4.01301V3.48801C51.3576 3.48801 50.6526 3.61801 50.0316 3.88801L50.2396 4.37001ZM52.1396 4.01301C53.1876 4.01301 53.9776 4.24001 54.5396 4.66501L54.8556 4.24501C54.1736 3.73001 53.2576 3.48801 52.1396 3.48801V4.01301ZM54.5396 4.66501C55.1116 5.09301 55.4906 5.66501 55.6776 6.39301L56.1856 6.26301C55.9716 5.42501 55.5276 4.74801 54.8556 4.24501L54.5396 4.66501Z" fill="#3D3D3D"/>
</g>
<defs>
<clipPath id="clip0_287_2623">
<rect width="58" height="19" fill="white" transform="translate(0 0.5)"/>
</clipPath>
</defs>
</svg>
