<svg width="22" height="22" viewBox="0 0 22 22" fill="none" xmlns="http://www.w3.org/2000/svg">
<path d="M18.887 2.20402C19.0303 2.42927 18.7848 2.69166 18.5245 2.6325V2.6325C18.0153 2.48083 17.452 2.405 16.8778 2.405H13.2817C13.1245 2.405 12.9764 2.33105 12.882 2.20537L11.6237 0.530833V0.530833C11.4711 0.314647 11.6153 0 11.8799 0H14.8628C16.5539 0 18.0436 0.878292 18.887 2.20402Z" fill="#BFBFBF"/>
<path d="M19.6517 4.91833C19.1858 4.5825 18.655 4.33333 18.0808 4.1925C17.6908 4.08417 17.29 4.03 16.8783 4.03H12.8483C12.22 4.03 12.1767 3.97583 11.8408 3.53167L10.3242 1.51667C9.62 0.574167 9.0675 0 7.30167 0H4.78833C2.145 0 0 2.145 0 4.78833V16.8783C0 19.5217 2.145 21.6667 4.78833 21.6667H16.8783C19.5217 21.6667 21.6667 19.5217 21.6667 16.8783V8.81833C21.6667 7.20417 20.8758 5.785 19.6517 4.91833ZM13.4225 15.535H8.23333C7.81083 15.535 7.48583 15.1992 7.48583 14.7767C7.48583 14.365 7.81083 14.0183 8.23333 14.0183H13.4225C13.845 14.0183 14.1808 14.365 14.1808 14.7767C14.1808 15.1992 13.845 15.535 13.4225 15.535Z" fill="#BFBFBF"/>
</svg>
