<svg width="35" height="29" viewBox="0 0 35 29" fill="none" xmlns="http://www.w3.org/2000/svg">
<path d="M23.1994 24.8349H12.7868C12.4186 24.8349 12.0654 24.6886 11.8051 24.4283C11.5447 24.1679 11.3984 23.8148 11.3984 23.4465V9.56303C11.3984 9.19482 11.5447 8.84169 11.8051 8.58132C12.0654 8.32095 12.4186 8.17468 12.7868 8.17468H32.2237C32.5919 8.17468 32.9451 8.32095 33.2054 8.58132C33.4658 8.84169 33.6121 9.19482 33.6121 9.56303V16.7616C32.6873 15.5838 31.342 14.8101 29.8589 14.6031C28.3757 14.396 26.8701 14.7717 25.6581 15.6513C24.4461 16.5309 23.622 17.8459 23.359 19.3201C23.096 20.7944 23.4145 22.3132 24.2476 23.5576L23.602 24.349L23.1994 24.8349ZM14.8693 12.3397V13.4504H26.6703V12.3397H14.8693ZM14.8693 16.2271H22.5052V15.1164H14.8693V16.2271ZM14.8693 21.0863H21.8111V19.9757H14.8693V21.0863Z" fill="#BAB7B7"/>
<path d="M33.4942 20.3853C33.496 19.6533 33.3162 18.9324 32.9707 18.2871C32.6253 17.6418 32.125 17.0923 31.5149 16.688C30.9048 16.2837 30.2038 16.0372 29.4749 15.9705C28.746 15.9039 28.012 16.0192 27.3386 16.3062C26.6653 16.5931 26.0737 17.0428 25.617 17.6147C25.1602 18.1867 24.8526 18.863 24.7217 19.5832C24.5908 20.3033 24.6407 21.0447 24.8669 21.7408C25.0931 22.4369 25.4886 23.066 26.0179 23.5715L24.6712 25.2167L25.296 27.7227L27.8366 24.6267C28.6409 24.8645 29.4967 24.8645 30.301 24.6267L32.8416 27.7227L33.4664 25.2167L32.1197 23.5715C32.5528 23.1613 32.8979 22.6673 33.1342 22.1196C33.3705 21.5718 33.493 20.9818 33.4942 20.3853ZM26.0387 20.3853C26.0305 19.7836 26.2013 19.193 26.5296 18.6887C26.8579 18.1844 27.3287 17.7891 27.8822 17.5531C28.4358 17.3171 29.047 17.2511 29.6381 17.3634C30.2293 17.4757 30.7737 17.7613 31.2022 18.1838C31.6306 18.6063 31.9237 19.1468 32.0441 19.7363C32.1646 20.3259 32.107 20.9379 31.8787 21.4947C31.6503 22.0514 31.2616 22.5277 30.7619 22.8629C30.2621 23.1981 29.674 23.3771 29.0723 23.3772C28.275 23.379 27.5093 23.0655 26.9423 22.505C26.3753 21.9445 26.053 21.1825 26.0457 20.3853H26.0387Z" fill="#BAB7B7"/>
<path d="M13.1897 20.8253H2.77702C2.40881 20.8253 2.05568 20.679 1.79531 20.4186C1.53494 20.1582 1.38867 19.8051 1.38867 19.4369V5.55339C1.38867 5.18518 1.53494 4.83204 1.79531 4.57168C2.05568 4.31131 2.40881 4.16504 2.77702 4.16504H22.2139C22.5822 4.16504 22.9353 4.31131 23.1957 4.57168C23.456 4.83204 23.6023 5.18518 23.6023 5.55339V12.752C22.6775 11.5741 21.3323 10.8004 19.8491 10.5934C18.366 10.3864 16.8603 10.7621 15.6483 11.6417C14.4363 12.5212 13.6123 13.8362 13.3493 15.3105C13.0863 16.7848 13.4048 18.3036 14.2379 19.548L13.5923 20.3393L13.1897 20.8253ZM4.85955 8.33009V9.44077H16.6605V8.33009H4.85955ZM4.85955 12.2175H12.4955V11.1068H4.85955V12.2175ZM4.85955 17.0767H11.8013V15.966H4.85955V17.0767Z" fill="#BAB7B7"/>
</svg>
