<svg width="22" height="22" viewBox="0 0 22 22" fill="none" xmlns="http://www.w3.org/2000/svg">
<path d="M11.6115 18.3333H2.44488C2.12072 18.3333 1.80985 18.2045 1.58064 17.9753C1.35143 17.7461 1.22266 17.4352 1.22266 17.1111V4.88885C1.22266 4.56469 1.35143 4.25382 1.58064 4.02461C1.80985 3.7954 2.12072 3.66663 2.44488 3.66663H19.556C19.8801 3.66663 20.191 3.7954 20.4202 4.02461C20.6494 4.25382 20.7782 4.56469 20.7782 4.88885V11.2261C19.9641 10.1892 18.7798 9.50805 17.4741 9.32579C16.1685 9.14352 14.843 9.47429 13.776 10.2486C12.709 11.0229 11.9836 12.1806 11.7521 13.4784C11.5205 14.7763 11.8009 16.1133 12.5343 17.2088L11.966 17.9055L11.6115 18.3333ZM4.27821 7.33329V8.31107H14.6671V7.33329H4.27821ZM4.27821 10.7555H11.0004V9.77774H4.27821V10.7555ZM4.27821 15.0333H10.3893V14.0555H4.27821V15.0333Z" fill="#03AFBF"/>
<path d="M20.6742 14.4161C20.6759 13.7717 20.5175 13.137 20.2134 12.569C19.9093 12.0009 19.4689 11.5172 18.9318 11.1612C18.3947 10.8053 17.7776 10.5883 17.1359 10.5296C16.4942 10.4709 15.848 10.5725 15.2552 10.8251C14.6625 11.0777 14.1417 11.4735 13.7396 11.9771C13.3375 12.4806 13.0667 13.076 12.9514 13.71C12.8362 14.3439 12.8801 14.9966 13.0793 15.6094C13.2784 16.2222 13.6266 16.776 14.0925 17.2211L12.907 18.6694L13.457 20.8755L15.6937 18.15C16.4017 18.3593 17.1551 18.3593 17.8631 18.15L20.0998 20.8755L20.6498 18.6694L19.4642 17.2211C19.8455 16.8599 20.1493 16.4251 20.3573 15.9429C20.5653 15.4607 20.6732 14.9412 20.6742 14.4161ZM14.1109 14.4161C14.1036 13.8864 14.254 13.3665 14.543 12.9225C14.832 12.4786 15.2465 12.1306 15.7338 11.9228C16.2211 11.7151 16.7592 11.6569 17.2796 11.7558C17.8 11.8546 18.2793 12.1061 18.6565 12.478C19.0336 12.85 19.2916 13.3258 19.3977 13.8448C19.5037 14.3638 19.453 14.9026 19.252 15.3927C19.051 15.8829 18.7088 16.3021 18.2689 16.5972C17.8289 16.8923 17.3112 17.0499 16.7814 17.05C16.0796 17.0516 15.4055 16.7756 14.9064 16.2822C14.4072 15.7887 14.1234 15.1179 14.117 14.4161H14.1109Z" fill="#03AFBF"/>
</svg>
