
      <svg data-logo="logo" xmlns="http://www.w3.org/2000/svg" viewBox="0 0 132 43">
        <g id="logogram" transform="translate(0, 1) rotate(0) "><path d="M12.2501 38.5041L8.20328 31.4947L14.1422 21.2365L17.9161 27.7736L40.1946 27.7616L33.8729 38.6009L12.2501 38.5041Z" fill="#334155"/><path d="M44.1727 20.8016L40.1259 27.8108L28.2725 27.7968L32.0468 21.2598L20.8972 1.97211L33.4451 2.02716L44.1727 20.8016Z" fill="#334155"/><path d="M12.8737 1.93472H20.9674L26.8819 12.2073L19.3334 12.2069L8.2047 31.5066L1.97841 20.6124L12.8737 1.93472Z" fill="#334155"/><path fill-rule="evenodd" clip-rule="evenodd" d="M21.9542 0.311858L21.93 0.269989H11.9176L0.0561523 20.604L8.19841 34.8506L8.2084 34.8333L11.2865 40.1647L34.8269 40.27L43.0937 26.0952H43.0387L46.0926 20.8058L34.4136 0.366518L21.9542 0.311858ZM29.6993 13.8721H29.7618L23.8761 3.65005L32.4765 3.68776L42.2528 20.7972L39.1928 26.0974L31.1736 26.1017L33.9696 21.2592L29.6993 13.8721ZM19.9152 3.59966L23.9284 10.5423L18.3719 10.5421L8.85894 27.0394L8.21004 28.1604L3.90107 20.6209L13.8301 3.59966H19.9152ZM16.0567 21.2226L20.2953 13.8719L25.8534 13.8721L30.1241 21.2602L27.3276 26.1038L18.8773 26.1084L16.0567 21.2226ZM10.1296 31.5014L11.7422 28.705L14.1402 24.5628L16.9553 29.4391L25.4043 29.4345L25.3906 29.4581L37.2697 29.4722L32.9192 36.9318L13.2138 36.8436L10.1296 31.5014Z" fill="#334155"/></g>
        <g id="logotype" transform="translate(53, 1.5)"><path fill="#334155" d="M22.49 32L8.21 32L8.21 8.09L13.04 8.09L13.04 27.91L22.49 27.91L22.49 32ZM32.36 32.38L32.36 32.38Q29.38 32.38 27.58 31.41Q25.78 30.43 24.97 28.38Q24.17 26.33 24.17 23.07L24.17 23.07Q24.17 19.92 25.01 17.95Q25.85 15.97 27.67 15.01Q29.48 14.04 32.36 14.04L32.36 14.04Q35.26 14.04 37.06 15.01Q38.87 15.97 39.72 17.95Q40.58 19.92 40.58 23.07L40.58 23.07Q40.58 26.33 39.78 28.38Q38.97 30.43 37.17 31.41Q35.37 32.38 32.36 32.38ZM32.36 28.54L32.36 28.54Q33.83 28.54 34.56 27.99Q35.30 27.45 35.56 26.24Q35.82 25.04 35.82 23.07L35.82 23.07Q35.82 21.15 35.51 20.01Q35.19 18.88 34.45 18.38Q33.72 17.89 32.36 17.89L32.36 17.89Q31.03 17.89 30.27 18.38Q29.52 18.88 29.21 20.01Q28.89 21.15 28.89 23.07L28.89 23.07Q28.89 25.04 29.15 26.24Q29.42 27.45 30.15 27.99Q30.89 28.54 32.36 28.54ZM51.50 40.02L51.50 40.02Q48.70 40.02 46.83 39.59Q44.96 39.17 44.01 38.07Q43.07 36.97 43.07 34.91L43.07 34.91Q43.07 33.99 43.33 33.28Q43.59 32.56 44.17 31.93Q44.75 31.30 45.62 30.63L45.62 30.63Q45.13 30.29 44.83 29.60Q44.54 28.92 44.54 28.11L44.54 28.11Q44.54 27.84 44.78 27.36Q45.03 26.89 45.38 26.36Q45.73 25.84 46.04 25.42L46.04 25.42Q45.34 25.11 44.71 24.49Q44.08 23.88 43.68 22.83Q43.28 21.78 43.28 20.13L43.28 20.13Q43.28 17.89 44.13 16.56Q44.99 15.23 46.64 14.64Q48.28 14.04 50.63 14.04L50.63 14.04Q51.54 14.04 52.59 14.18Q53.64 14.32 54.27 14.46L54.27 14.46L59.97 14.36L59.97 17.51L57.31 17.47Q57.63 17.89 57.89 18.54Q58.15 19.19 58.15 20.13L58.15 20.13Q58.15 22.55 57.33 23.88Q56.51 25.21 54.86 25.72Q53.22 26.23 50.70 26.23L50.70 26.23Q50.42 26.23 49.93 26.17Q49.44 26.12 49.12 26.09L49.12 26.09Q48.98 26.43 48.84 26.87Q48.70 27.31 48.70 27.48L48.70 27.48Q48.70 27.87 48.86 28.08Q49.02 28.29 49.45 28.41Q49.89 28.54 50.75 28.57Q51.61 28.61 53.04 28.61L53.04 28.61Q55.53 28.61 57.01 29.06Q58.50 29.52 59.13 30.67Q59.76 31.82 59.76 33.92L59.76 33.92Q59.76 37.04 57.57 38.53Q55.39 40.02 51.50 40.02ZM51.26 36.55L51.26 36.55Q53.43 36.55 54.39 36.04Q55.35 35.53 55.35 34.38L55.35 34.38Q55.35 33.47 55.02 33.05Q54.69 32.63 53.92 32.51Q53.15 32.38 51.82 32.38L51.82 32.38Q51.47 32.38 50.98 32.37Q50.49 32.35 49.98 32.33Q49.47 32.31 49.07 32.28Q48.67 32.24 48.49 32.24L48.49 32.24Q48 32.59 47.70 32.91Q47.41 33.23 47.28 33.56Q47.16 33.89 47.16 34.38L47.16 34.38Q47.16 35.19 47.55 35.66Q47.93 36.13 48.82 36.34Q49.72 36.55 51.26 36.55ZM50.66 22.93L50.66 22.93Q52.27 22.93 52.95 22.29Q53.64 21.64 53.64 20.13L53.64 20.13Q53.64 18.63 52.95 17.96Q52.27 17.30 50.66 17.30L50.66 17.30Q49.12 17.30 48.44 17.96Q47.76 18.63 47.76 20.13L47.76 20.13Q47.76 21.64 48.44 22.29Q49.12 22.93 50.66 22.93ZM69.98 32.38L69.98 32.38Q67.01 32.38 65.20 31.41Q63.40 30.43 62.60 28.38Q61.79 26.33 61.79 23.07L61.79 23.07Q61.79 19.92 62.63 17.95Q63.47 15.97 65.29 15.01Q67.11 14.04 69.98 14.04L69.98 14.04Q72.89 14.04 74.69 15.01Q76.49 15.97 77.35 17.95Q78.21 19.92 78.21 23.07L78.21 23.07Q78.21 26.33 77.40 28.38Q76.59 30.43 74.79 31.41Q72.99 32.38 69.98 32.38ZM69.98 28.54L69.98 28.54Q71.45 28.54 72.19 27.99Q72.92 27.45 73.18 26.24Q73.45 25.04 73.45 23.07L73.45 23.07Q73.45 21.15 73.13 20.01Q72.81 18.88 72.08 18.38Q71.34 17.89 69.98 17.89L69.98 17.89Q68.65 17.89 67.90 18.38Q67.15 18.88 66.83 20.01Q66.52 21.15 66.52 23.07L66.52 23.07Q66.52 25.04 66.78 26.24Q67.04 27.45 67.78 27.99Q68.51 28.54 69.98 28.54Z"/></g>
        
      </svg>
    