
      <svg data-logo="logo" xmlns="http://www.w3.org/2000/svg" viewBox="0 0 125 43">
        <g id="logogram" transform="translate(0, 1) rotate(0) "><path d="M20.7544 0.269989C18.128 0.269989 15.5272 0.78736 13.1007 1.79239C10.6742 2.79753 8.46948 4.27067 6.61222 6.12782C4.75508 7.98507 3.28194 10.1898 2.27679 12.6163C1.27177 15.0428 0.754395 17.6436 0.754395 20.27C0.754395 22.8964 1.27177 25.4972 2.27679 27.9237C3.28194 30.3502 4.75508 32.5549 6.61222 34.4122C8.46948 36.2693 10.6742 37.7424 13.1007 38.7476C15.5272 39.7526 18.128 40.27 20.7544 40.27V30.27C19.4411 30.27 18.1408 30.0114 16.9275 29.5087C15.7143 29.0062 14.6119 28.2696 13.6833 27.3411C12.7547 26.4125 12.0182 25.3101 11.5157 24.0968C11.013 22.8836 10.7544 21.5832 10.7544 20.27C10.7544 18.9567 11.013 17.6564 11.5157 16.4431C12.0182 15.2299 12.7547 14.1275 13.6833 13.1989C14.6119 12.2703 15.7143 11.5338 16.9275 11.0312C18.1408 10.5286 19.4411 10.27 20.7544 10.27V0.269989Z" fill="#334155"/><path d="M20.7545 26.9366C24.4364 26.9366 27.4211 23.9519 27.4211 20.27C27.4211 16.588 24.4364 13.6033 20.7545 13.6033C17.0725 13.6033 14.0878 16.588 14.0878 20.27C14.0878 23.9519 17.0725 26.9366 20.7545 26.9366Z" fill="#334155"/><path d="M0.754395 20.27C0.754395 22.8964 1.27177 25.4972 2.27679 27.9237C3.28194 30.3502 4.75508 32.5549 6.61222 34.4122C8.46948 36.2693 10.6742 37.7424 13.1007 38.7476C15.5272 39.7526 18.128 40.27 20.7544 40.27C23.3808 40.27 25.9816 39.7526 28.4081 38.7476C30.8346 37.7424 33.0393 36.2693 34.8966 34.4122C36.7537 32.5549 38.2269 30.3502 39.232 27.9237C40.237 25.4972 40.7544 22.8964 40.7544 20.27H30.7544C30.7544 21.5832 30.4958 22.8836 29.9931 24.0968C29.4906 25.3101 28.7541 26.4125 27.8255 27.3411C26.8969 28.2696 25.7945 29.0062 24.5813 29.5087C23.368 30.0114 22.0677 30.27 20.7544 30.27C19.4411 30.27 18.1408 30.0114 16.9275 29.5087C15.7143 29.0062 14.6119 28.2696 13.6833 27.3411C12.7547 26.4125 12.0182 25.3101 11.5157 24.0968C11.013 22.8836 10.7544 21.5832 10.7544 20.27H0.754395Z" fill="#334155"/><path d="M27.4212 20.27C27.4212 18.5019 26.7188 16.8062 25.4686 15.556C24.2183 14.3057 22.5227 13.6033 20.7546 13.6033C18.9864 13.6033 17.2908 14.3057 16.0405 15.556C14.7902 16.8062 14.0878 18.5019 14.0878 20.27H20.7546H27.4212Z" fill="#334155"/></g>
        <g id="logotype" transform="translate(47, 2.5)"><path fill="#334155" d="M22.14 31L8.77 31L8.77 7.13L11.39 7.13L11.39 28.83L22.14 28.83L22.14 31ZM31.52 31.56Q29.17 31.56 27.32 30.44Q25.46 29.32 24.41 27.31Q23.36 25.29 23.36 22.77L23.36 22.77Q23.36 20.25 24.39 18.28Q25.43 16.30 27.26 15.18Q29.10 14.06 31.45 14.06L31.45 14.06Q33.79 14.06 35.65 15.18Q37.50 16.30 38.55 18.29Q39.60 20.29 39.60 22.81L39.60 22.81Q39.60 25.33 38.57 27.32Q37.54 29.32 35.70 30.44Q33.86 31.56 31.52 31.56L31.52 31.56ZM31.45 29.39Q33.13 29.39 34.44 28.55Q35.75 27.71 36.48 26.20Q37.22 24.70 37.22 22.81L37.22 22.81Q37.22 20.92 36.48 19.41Q35.75 17.91 34.44 17.07Q33.13 16.23 31.45 16.23L31.45 16.23Q29.80 16.23 28.51 17.07Q27.21 17.91 26.48 19.40Q25.74 20.88 25.74 22.77L25.74 22.77Q25.74 24.70 26.48 26.20Q27.21 27.71 28.51 28.55Q29.80 29.39 31.45 29.39L31.45 29.39ZM55.31 14.62L57.70 14.62L57.70 30.37Q57.70 32.58 56.79 34.31Q55.88 36.04 54.23 37.02Q52.59 38 50.48 38L50.48 38L43.70 38L43.70 35.83L50.48 35.83Q52.62 35.83 53.97 34.29Q55.31 32.75 55.31 30.37L55.31 30.37L55.31 28.59Q54.30 29.98 52.83 30.77Q51.36 31.56 49.61 31.56L49.61 31.56Q47.27 31.56 45.41 30.44Q43.55 29.32 42.51 27.32Q41.45 25.33 41.45 22.77L41.45 22.77Q41.45 20.25 42.49 18.28Q43.52 16.30 45.36 15.18Q47.20 14.06 49.54 14.06L49.54 14.06Q51.33 14.06 52.81 14.85Q54.30 15.63 55.31 17.07L55.31 17.07L55.31 14.62ZM49.54 29.39Q51.22 29.39 52.53 28.55Q53.84 27.71 54.58 26.20Q55.31 24.70 55.31 22.81L55.31 22.81Q55.31 20.92 54.58 19.41Q53.84 17.91 52.53 17.07Q51.22 16.23 49.54 16.23L49.54 16.23Q47.90 16.23 46.60 17.07Q45.30 17.91 44.57 19.40Q43.84 20.88 43.84 22.77L43.84 22.77Q43.84 24.70 44.57 26.20Q45.30 27.71 46.60 28.55Q47.90 29.39 49.54 29.39L49.54 29.39ZM68.76 31.56Q66.41 31.56 64.56 30.44Q62.70 29.32 61.65 27.31Q60.60 25.29 60.60 22.77L60.60 22.77Q60.60 20.25 61.63 18.28Q62.67 16.30 64.50 15.18Q66.34 14.06 68.69 14.06L68.69 14.06Q71.03 14.06 72.89 15.18Q74.74 16.30 75.79 18.29Q76.84 20.29 76.84 22.81L76.84 22.81Q76.84 25.33 75.81 27.32Q74.78 29.32 72.94 30.44Q71.10 31.56 68.76 31.56L68.76 31.56ZM68.69 29.39Q70.37 29.39 71.68 28.55Q72.99 27.71 73.73 26.20Q74.46 24.70 74.46 22.81L74.46 22.81Q74.46 20.92 73.73 19.41Q72.99 17.91 71.68 17.07Q70.37 16.23 68.69 16.23L68.69 16.23Q67.04 16.23 65.75 17.07Q64.45 17.91 63.72 19.40Q62.98 20.88 62.98 22.77L62.98 22.77Q62.98 24.70 63.72 26.20Q64.45 27.71 65.75 28.55Q67.04 29.39 68.69 29.39L68.69 29.39Z"/></g>
        
      </svg>
    