
      <svg data-logo="logo" xmlns="http://www.w3.org/2000/svg" viewBox="0 0 112 42">
        <g id="logogram" transform="translate(0, 1) rotate(0) "><path d="M21.3474 0.349945L46.7544 25.7266V39.3499H34.8978V30.624L16.4444 12.1924H12.611V39.3499H0.754395V0.349945H21.3474ZM34.8978 13.8842V0.349945H46.7544V13.8842H34.8978Z" fill="#334155"/></g>
        <g id="logotype" transform="translate(53, 8.5)"><path fill="#334155" d="M7.44 25L7.44 0.50L11.29 0.50L11.29 21.50L17.62 21.50L17.62 25L7.44 25ZM24.90 25.35Q22.06 25.35 20.56 23.74Q19.05 22.13 19.05 19.19L19.05 19.19L19.05 6.31Q19.05 3.37 20.56 1.76Q22.06 0.15 24.90 0.15L24.90 0.15Q27.73 0.15 29.24 1.76Q30.74 3.37 30.74 6.31L30.74 6.31L30.74 19.19Q30.74 22.13 29.24 23.74Q27.73 25.35 24.90 25.35L24.90 25.35ZM24.90 21.85Q26.89 21.85 26.89 19.43L26.89 19.43L26.89 6.06Q26.89 3.65 24.90 3.65L24.90 3.65Q22.91 3.65 22.91 6.06L22.91 6.06L22.91 19.43Q22.91 21.85 24.90 21.85L24.90 21.85ZM38.80 25.35Q35.99 25.35 34.52 23.76Q33.05 22.16 33.05 19.19L33.05 19.19L33.05 6.31Q33.05 3.33 34.52 1.74Q35.99 0.15 38.80 0.15L38.80 0.15Q41.59 0.15 43.06 1.74Q44.53 3.33 44.53 6.31L44.53 6.31L44.53 8.41L40.89 8.41L40.89 6.06Q40.89 3.65 38.90 3.65L38.90 3.65Q36.91 3.65 36.91 6.06L36.91 6.06L36.91 19.47Q36.91 21.85 38.90 21.85L38.90 21.85Q40.89 21.85 40.89 19.47L40.89 19.47L40.89 14.67L38.97 14.67L38.97 11.17L44.53 11.17L44.53 19.19Q44.53 22.16 43.06 23.76Q41.59 25.35 38.80 25.35L38.80 25.35ZM52.59 25.35Q49.75 25.35 48.25 23.74Q46.74 22.13 46.74 19.19L46.74 19.19L46.74 6.31Q46.74 3.37 48.25 1.76Q49.75 0.15 52.59 0.15L52.59 0.15Q55.42 0.15 56.93 1.76Q58.43 3.37 58.43 6.31L58.43 6.31L58.43 19.19Q58.43 22.13 56.93 23.74Q55.42 25.35 52.59 25.35L52.59 25.35ZM52.59 21.85Q54.58 21.85 54.58 19.43L54.58 19.43L54.58 6.06Q54.58 3.65 52.59 3.65L52.59 3.65Q50.59 3.65 50.59 6.06L50.59 6.06L50.59 19.43Q50.59 21.85 52.59 21.85L52.59 21.85Z"/></g>
        
      </svg>
    