<svg width="23" height="19" viewBox="0 0 23 19" fill="none" xmlns="http://www.w3.org/2000/svg">
<path d="M21.0167 3.16333C20.5725 2.925 19.6408 2.67583 18.3733 3.56417L16.7808 4.69083C16.6617 1.32167 15.1992 0 11.6458 0H5.14583C1.44083 0 0 1.44083 0 5.14583V13.8125C0 16.3042 1.35417 18.9583 5.14583 18.9583H11.6458C15.1992 18.9583 16.6617 17.6367 16.7808 14.2675L18.3733 15.3942C19.045 15.8708 19.63 16.0225 20.0958 16.0225C20.4967 16.0225 20.8108 15.9033 21.0167 15.795C21.4608 15.5675 22.2083 14.95 22.2083 13.4008V5.5575C22.2083 4.00833 21.4608 3.39083 21.0167 3.16333ZM10.0208 8.8075C8.905 8.8075 7.98417 7.8975 7.98417 6.77083C7.98417 5.64417 8.905 4.73417 10.0208 4.73417C11.1367 4.73417 12.0575 5.64417 12.0575 6.77083C12.0575 7.8975 11.1367 8.8075 10.0208 8.8075Z" fill="#BFBFBF"/>
</svg>
