<svg width="27" height="34" viewBox="0 0 27 34" fill="none" xmlns="http://www.w3.org/2000/svg">
<path d="M25.9998 16.5V6.81095C25.9999 6.6886 25.9756 6.56743 25.9284 6.45439C25.8812 6.34135 25.812 6.23866 25.7248 6.1522L20.8061 1.2728C20.6304 1.09834 20.3921 1.00022 20.1436 1H1.93749C1.68885 1 1.4504 1.09798 1.27458 1.27239C1.09877 1.4468 1 1.68335 1 1.93V31.07C1 31.3166 1.09877 31.5532 1.27458 31.7276C1.4504 31.902 1.68885 32 1.93749 32H11.9374" fill="#BFBFBF"/>
<path d="M25.9998 16.5V6.81095C25.9999 6.6886 25.9756 6.56743 25.9284 6.45439C25.8812 6.34135 25.812 6.23866 25.7248 6.1522L20.8061 1.2728C20.6304 1.09834 20.3921 1.00022 20.1436 1H1.93749C1.68885 1 1.4504 1.09798 1.27458 1.27239C1.09877 1.4468 1 1.68335 1 1.93V31.07C1 31.3166 1.09877 31.5532 1.27458 31.7276C1.4504 31.902 1.68885 32 1.93749 32H11.9374" stroke="#BFBFBF" stroke-width="1.5" stroke-linecap="round" stroke-linejoin="round"/>
<path d="M19.75 1V6.27C19.75 6.51665 19.8488 6.7532 20.0246 6.92761C20.2004 7.10202 20.4389 7.2 20.6875 7.2H25.9999" fill="white"/>
<path d="M19.75 1V6.27C19.75 6.51665 19.8488 6.7532 20.0246 6.92761C20.2004 7.10202 20.4389 7.2 20.6875 7.2H25.9999" stroke="#BFBFBF" stroke-width="1.5" stroke-linecap="round" stroke-linejoin="round"/>
<rect y="16" width="27" height="18" rx="1" fill="#BFBFBF"/>
<rect x="3" y="3" width="15" height="1" rx="0.5" fill="white"/>
<rect x="3" y="12" width="15" height="1" rx="0.5" fill="white"/>
<rect x="3" y="15" width="9" height="1" rx="0.5" fill="white"/>
<rect x="3" y="9" width="15" height="1" rx="0.5" fill="white"/>
<rect x="3" y="6" width="15" height="1" rx="0.5" fill="white"/>
<path d="M16.7768 23.2873C17.5966 23.2884 18.3982 23.0463 19.0804 22.5917C19.7625 22.137 20.2945 21.4903 20.609 20.7332C20.9235 19.9762 21.0063 19.1428 20.8471 18.3387C20.6878 17.5345 20.2936 16.7957 19.7143 16.2156C19.135 15.6356 18.3967 15.2404 17.5928 15.08C16.7888 14.9197 15.9554 15.0014 15.1979 15.3149C14.4404 15.6283 13.7929 16.1594 13.3374 16.841C12.8818 17.5225 12.6387 18.3239 12.6387 19.1437C12.6387 20.2417 13.0745 21.2948 13.8504 22.0717C14.6262 22.8486 15.6788 23.2859 16.7768 23.2873ZM16.7768 16.1053C17.3771 16.1042 17.9642 16.2813 18.4638 16.6141C18.9634 16.947 19.3529 17.4206 19.5832 17.975C19.8134 18.5293 19.8739 19.1396 19.7571 19.7284C19.6402 20.3172 19.3513 20.8581 18.9268 21.2826C18.5023 21.7071 17.9614 21.996 17.3726 22.1129C16.7838 22.2297 16.1736 22.1692 15.6192 21.9389C15.0648 21.7087 14.5912 21.3191 14.2584 20.8195C13.9255 20.32 13.7485 19.7328 13.7496 19.1326C13.751 18.3301 14.0704 17.561 14.6378 16.9936C15.2052 16.4262 15.9744 16.1068 16.7768 16.1053Z" fill="white"/>
<path d="M10.1113 31.558V28.1586C10.9688 27.2586 12.0043 26.5469 13.1518 26.0688C14.2993 25.5906 15.5338 25.3565 16.7767 25.3814C18.4778 25.3582 20.1523 25.8061 21.6146 26.6756L22.3645 25.8368C20.6925 24.7837 18.7526 24.2341 16.7767 24.2538C15.3309 24.217 13.8949 24.4995 12.5709 25.0814C11.2469 25.6632 10.0676 26.5299 9.11699 27.6198C9.0429 27.7153 9.00195 27.8323 9.00035 27.9531V31.558C8.99288 31.8605 9.10558 32.1537 9.31378 32.3734C9.52198 32.593 9.80873 32.7213 10.1113 32.73H16.9933L15.9379 31.6191L10.1113 31.558Z" fill="white"/>
<path d="M26.0858 24.1871C25.976 24.0893 25.8319 24.0391 25.6851 24.0474C25.5382 24.0557 25.4007 24.1219 25.3026 24.2315L18.8483 31.4524L15.96 28.3474C15.9126 28.292 15.8547 28.2464 15.7897 28.2133C15.7247 28.1802 15.6538 28.1603 15.581 28.1546C15.5083 28.149 15.4352 28.1577 15.3658 28.1803C15.2965 28.2028 15.2322 28.2389 15.1768 28.2863C15.1225 28.3357 15.0785 28.3954 15.0474 28.4619C15.0163 28.5284 14.9987 28.6004 14.9956 28.6737C14.9925 28.7471 15.004 28.8203 15.0294 28.8892C15.0547 28.9581 15.0935 29.0212 15.1435 29.075L18.8594 33.0743L26.1303 24.9536C26.223 24.8447 26.2701 24.7042 26.2618 24.5614C26.2535 24.4186 26.1905 24.2845 26.0858 24.1871Z" fill="white"/>
</svg>
