<svg width="45" height="16" viewBox="0 0 45 16" fill="none" xmlns="http://www.w3.org/2000/svg">
<path d="M12.146 8.294C12.146 9.619 11.903 10.758 11.419 11.712C10.934 12.662 10.269 13.392 9.425 13.906C8.585 14.416 7.629 14.67 6.558 14.67C5.483 14.67 4.523 14.415 3.678 13.906C2.838 13.393 2.176 12.659 1.691 11.706C1.206 10.752 0.964 9.615 0.964 8.294C0.964 6.968 1.206 5.831 1.691 4.881C2.176 3.928 2.838 3.197 3.679 2.687C4.523 2.174 5.483 1.917 6.558 1.917C7.628 1.917 8.584 2.174 9.425 2.687C10.269 3.197 10.934 3.927 11.419 4.881C11.903 5.831 12.146 6.968 12.146 8.294ZM10.291 8.294C10.291 7.284 10.128 6.433 9.801 5.742C9.477 5.047 9.033 4.522 8.467 4.166C7.89664 3.80354 7.23271 3.61584 6.557 3.626C5.843 3.626 5.204 3.806 4.643 4.166C4.081 4.522 3.637 5.047 3.309 5.742C2.986 6.433 2.824 7.284 2.824 8.294C2.824 9.304 2.986 10.156 3.309 10.851C3.636 11.542 4.081 12.068 4.643 12.427C5.204 12.783 5.843 12.961 6.558 12.961C7.23257 12.9713 7.89566 12.7858 8.467 12.427C9.033 12.067 9.477 11.542 9.8 10.851C10.128 10.156 10.291 9.304 10.291 8.294ZM17.045 14.706C16.455 14.706 15.921 14.597 15.445 14.379C14.984 14.1705 14.591 13.8364 14.311 13.415C14.036 12.995 13.899 12.48 13.899 11.87C13.899 11.344 14 10.912 14.202 10.573C14.404 10.233 14.677 9.964 15.02 9.766C15.3803 9.56162 15.7683 9.41071 16.172 9.318C16.5996 9.21651 17.0326 9.13971 17.469 9.088L18.826 8.93C19.174 8.886 19.426 8.815 19.584 8.718C19.742 8.621 19.82 8.463 19.82 8.245V8.203C19.82 7.673 19.671 7.263 19.372 6.973C19.077 6.682 18.637 6.536 18.051 6.536C17.441 6.536 16.96 6.671 16.608 6.942C16.261 7.209 16.02 7.506 15.887 7.833L14.184 7.445C14.386 6.88 14.681 6.423 15.069 6.075C15.4583 5.7252 15.9194 5.46478 16.42 5.312C16.9396 5.14859 17.4813 5.06662 18.026 5.069C18.398 5.069 18.792 5.114 19.208 5.203C19.628 5.288 20.021 5.445 20.384 5.675C20.752 5.905 21.053 6.235 21.287 6.663C21.522 7.088 21.639 7.639 21.639 8.318V14.5H19.869V13.227H19.796C19.6607 13.4855 19.4825 13.7191 19.269 13.918C19.0068 14.162 18.7003 14.3534 18.366 14.482C17.998 14.632 17.558 14.706 17.045 14.706ZM17.438 13.252C17.94 13.252 18.368 13.152 18.723 12.954C19.0621 12.776 19.3456 12.5078 19.542 12.179C19.732 11.855 19.826 11.51 19.826 11.142V9.942C19.762 10.007 19.636 10.068 19.451 10.124C19.269 10.177 19.061 10.224 18.826 10.264L18.142 10.367L17.584 10.439C17.233 10.484 16.911 10.559 16.62 10.663C16.3552 10.7539 16.1178 10.9104 15.93 11.118C15.76 11.312 15.675 11.571 15.675 11.894C15.675 12.342 15.84 12.682 16.172 12.912C16.503 13.138 16.924 13.252 17.438 13.252ZM31.028 7.463L29.386 7.754C29.3132 7.53628 29.2025 7.33315 29.059 7.154C28.9005 6.95405 28.6969 6.79438 28.465 6.688C28.215 6.566 27.901 6.506 27.525 6.506C27.012 6.506 26.584 6.621 26.24 6.851C25.897 7.077 25.725 7.371 25.725 7.73C25.725 8.041 25.84 8.292 26.071 8.482C26.301 8.672 26.673 8.827 27.186 8.948L28.665 9.288C29.521 9.486 30.16 9.791 30.58 10.203C31 10.615 31.21 11.15 31.21 11.809C31.2168 12.3458 31.0463 12.8699 30.725 13.3C30.406 13.732 29.96 14.072 29.386 14.318C28.816 14.565 28.156 14.688 27.404 14.688C26.362 14.688 25.511 14.466 24.852 14.021C24.194 13.573 23.79 12.936 23.64 12.112L25.392 11.845C25.501 12.302 25.725 12.647 26.065 12.882C26.404 13.112 26.846 13.227 27.392 13.227C27.986 13.227 28.461 13.104 28.816 12.857C29.172 12.607 29.35 12.302 29.35 11.942C29.35 11.652 29.24 11.407 29.022 11.209C28.808 11.011 28.479 10.861 28.034 10.76L26.459 10.415C25.589 10.217 24.947 9.902 24.531 9.47C24.119 9.037 23.913 8.49 23.913 7.827C23.913 7.277 24.067 6.797 24.373 6.385C24.681 5.972 25.105 5.651 25.646 5.421C26.188 5.187 26.808 5.069 27.507 5.069C28.513 5.069 29.305 5.288 29.883 5.724C30.461 6.156 30.843 6.736 31.029 7.464L31.028 7.463ZM33.203 14.5V5.19H35.015V14.5H33.203ZM34.118 3.754C33.803 3.754 33.532 3.649 33.306 3.439C33.1999 3.34217 33.1153 3.22411 33.0578 3.0925C33.0003 2.96088 32.971 2.81864 32.972 2.675C32.972 2.376 33.084 2.122 33.306 1.912C33.4135 1.80758 33.5406 1.72539 33.6799 1.67014C33.8193 1.61489 33.9681 1.58766 34.118 1.59C34.433 1.59 34.702 1.697 34.924 1.912C35.15 2.122 35.264 2.376 35.264 2.675C35.264 2.97 35.15 3.225 34.924 3.439C34.8169 3.54189 34.6906 3.62266 34.5523 3.67671C34.4141 3.73076 34.2665 3.75703 34.118 3.754ZM44.429 7.464L42.786 7.754C42.7132 7.53628 42.6025 7.33315 42.459 7.154C42.3005 6.95405 42.0969 6.79438 41.865 6.688C41.615 6.566 41.302 6.506 40.925 6.506C40.413 6.506 39.985 6.621 39.641 6.851C39.298 7.077 39.126 7.371 39.126 7.73C39.126 8.041 39.241 8.292 39.471 8.482C39.701 8.672 40.073 8.827 40.586 8.948L42.066 9.288C42.922 9.486 43.56 9.791 43.98 10.203C44.4 10.615 44.61 11.15 44.61 11.809C44.6171 12.3457 44.4469 12.8698 44.126 13.3C43.806 13.732 43.36 14.072 42.786 14.318C42.216 14.565 41.556 14.688 40.805 14.688C39.762 14.688 38.912 14.466 38.253 14.021C37.594 13.573 37.19 12.936 37.041 12.112L38.792 11.845C38.902 12.302 39.126 12.647 39.465 12.882C39.805 13.112 40.247 13.227 40.792 13.227C41.386 13.227 41.862 13.104 42.217 12.857C42.572 12.607 42.75 12.302 42.75 11.942C42.7522 11.8034 42.724 11.666 42.6675 11.5394C42.611 11.4127 42.5276 11.3 42.423 11.209C42.209 11.011 41.879 10.861 41.435 10.76L39.859 10.415C38.99 10.217 38.348 9.902 37.932 9.47C37.52 9.037 37.313 8.49 37.313 7.827C37.313 7.277 37.467 6.797 37.774 6.385C38.081 5.972 38.505 5.651 39.047 5.421C39.588 5.187 40.209 5.069 40.907 5.069C41.914 5.069 42.706 5.288 43.284 5.724C43.861 6.156 44.244 6.736 44.429 7.464Z" fill="#3D3D3D"/>
<path d="M12.146 8.294C12.146 9.619 11.903 10.758 11.419 11.712C10.934 12.662 10.269 13.392 9.425 13.906C8.585 14.416 7.629 14.67 6.558 14.67C5.483 14.67 4.523 14.415 3.678 13.906C2.838 13.393 2.176 12.659 1.691 11.706C1.206 10.752 0.964 9.615 0.964 8.294C0.964 6.968 1.206 5.831 1.691 4.881C2.176 3.928 2.838 3.197 3.679 2.687C4.523 2.174 5.483 1.917 6.558 1.917C7.628 1.917 8.584 2.174 9.425 2.687C10.269 3.197 10.934 3.927 11.419 4.881C11.903 5.831 12.146 6.968 12.146 8.294ZM10.291 8.294C10.291 7.284 10.128 6.433 9.801 5.742C9.477 5.047 9.033 4.522 8.467 4.166C7.89664 3.80354 7.23271 3.61584 6.557 3.626C5.843 3.626 5.204 3.806 4.643 4.166C4.081 4.522 3.637 5.047 3.309 5.742C2.986 6.433 2.824 7.284 2.824 8.294C2.824 9.304 2.986 10.156 3.309 10.851C3.636 11.542 4.081 12.068 4.643 12.427C5.204 12.783 5.843 12.961 6.558 12.961C7.23257 12.9713 7.89566 12.7858 8.467 12.427C9.033 12.067 9.477 11.542 9.8 10.851C10.128 10.156 10.291 9.304 10.291 8.294ZM17.045 14.706C16.455 14.706 15.921 14.597 15.445 14.379C14.984 14.1705 14.591 13.8364 14.311 13.415C14.036 12.995 13.899 12.48 13.899 11.87C13.899 11.344 14 10.912 14.202 10.573C14.404 10.233 14.677 9.964 15.02 9.766C15.3803 9.56162 15.7683 9.41071 16.172 9.318C16.5996 9.21651 17.0326 9.13971 17.469 9.088L18.826 8.93C19.174 8.886 19.426 8.815 19.584 8.718C19.742 8.621 19.82 8.463 19.82 8.245V8.203C19.82 7.673 19.671 7.263 19.372 6.973C19.077 6.682 18.637 6.536 18.051 6.536C17.441 6.536 16.96 6.671 16.608 6.942C16.261 7.209 16.02 7.506 15.887 7.833L14.184 7.445C14.386 6.88 14.681 6.423 15.069 6.075C15.4583 5.7252 15.9194 5.46478 16.42 5.312C16.9396 5.14859 17.4813 5.06662 18.026 5.069C18.398 5.069 18.792 5.114 19.208 5.203C19.628 5.288 20.021 5.445 20.384 5.675C20.752 5.905 21.053 6.235 21.287 6.663C21.522 7.088 21.639 7.639 21.639 8.318V14.5H19.869V13.227H19.796C19.6607 13.4855 19.4825 13.7191 19.269 13.918C19.0068 14.162 18.7003 14.3534 18.366 14.482C17.998 14.632 17.558 14.706 17.045 14.706ZM17.438 13.252C17.94 13.252 18.368 13.152 18.723 12.954C19.0621 12.776 19.3456 12.5078 19.542 12.179C19.732 11.855 19.826 11.51 19.826 11.142V9.942C19.762 10.007 19.636 10.068 19.451 10.124C19.269 10.177 19.061 10.224 18.826 10.264L18.142 10.367L17.584 10.439C17.233 10.484 16.911 10.559 16.62 10.663C16.3552 10.7539 16.1178 10.9104 15.93 11.118C15.76 11.312 15.675 11.571 15.675 11.894C15.675 12.342 15.84 12.682 16.172 12.912C16.503 13.138 16.924 13.252 17.438 13.252ZM31.028 7.463L29.386 7.754C29.3132 7.53628 29.2025 7.33315 29.059 7.154C28.9005 6.95405 28.6969 6.79438 28.465 6.688C28.215 6.566 27.901 6.506 27.525 6.506C27.012 6.506 26.584 6.621 26.24 6.851C25.897 7.077 25.725 7.371 25.725 7.73C25.725 8.041 25.84 8.292 26.071 8.482C26.301 8.672 26.673 8.827 27.186 8.948L28.665 9.288C29.521 9.486 30.16 9.791 30.58 10.203C31 10.615 31.21 11.15 31.21 11.809C31.2168 12.3458 31.0463 12.8699 30.725 13.3C30.406 13.732 29.96 14.072 29.386 14.318C28.816 14.565 28.156 14.688 27.404 14.688C26.362 14.688 25.511 14.466 24.852 14.021C24.194 13.573 23.79 12.936 23.64 12.112L25.392 11.845C25.501 12.302 25.725 12.647 26.065 12.882C26.404 13.112 26.846 13.227 27.392 13.227C27.986 13.227 28.461 13.104 28.816 12.857C29.172 12.607 29.35 12.302 29.35 11.942C29.35 11.652 29.24 11.407 29.022 11.209C28.808 11.011 28.479 10.861 28.034 10.76L26.459 10.415C25.589 10.217 24.947 9.902 24.531 9.47C24.119 9.037 23.913 8.49 23.913 7.827C23.913 7.277 24.067 6.797 24.373 6.385C24.681 5.972 25.105 5.651 25.646 5.421C26.188 5.187 26.808 5.069 27.507 5.069C28.513 5.069 29.305 5.288 29.883 5.724C30.461 6.156 30.843 6.736 31.029 7.464L31.028 7.463ZM33.203 14.5V5.19H35.015V14.5H33.203ZM34.118 3.754C33.803 3.754 33.532 3.649 33.306 3.439C33.1999 3.34217 33.1153 3.22411 33.0578 3.0925C33.0003 2.96088 32.971 2.81864 32.972 2.675C32.972 2.376 33.084 2.122 33.306 1.912C33.4135 1.80758 33.5406 1.72539 33.6799 1.67014C33.8193 1.61489 33.9681 1.58766 34.118 1.59C34.433 1.59 34.702 1.697 34.924 1.912C35.15 2.122 35.264 2.376 35.264 2.675C35.264 2.97 35.15 3.225 34.924 3.439C34.8169 3.54189 34.6906 3.62266 34.5523 3.67671C34.4141 3.73076 34.2665 3.75703 34.118 3.754ZM44.429 7.464L42.786 7.754C42.7132 7.53628 42.6025 7.33315 42.459 7.154C42.3005 6.95405 42.0969 6.79438 41.865 6.688C41.615 6.566 41.302 6.506 40.925 6.506C40.413 6.506 39.985 6.621 39.641 6.851C39.298 7.077 39.126 7.371 39.126 7.73C39.126 8.041 39.241 8.292 39.471 8.482C39.701 8.672 40.073 8.827 40.586 8.948L42.066 9.288C42.922 9.486 43.56 9.791 43.98 10.203C44.4 10.615 44.61 11.15 44.61 11.809C44.6171 12.3457 44.4469 12.8698 44.126 13.3C43.806 13.732 43.36 14.072 42.786 14.318C42.216 14.565 41.556 14.688 40.805 14.688C39.762 14.688 38.912 14.466 38.253 14.021C37.594 13.573 37.19 12.936 37.041 12.112L38.792 11.845C38.902 12.302 39.126 12.647 39.465 12.882C39.805 13.112 40.247 13.227 40.792 13.227C41.386 13.227 41.862 13.104 42.217 12.857C42.572 12.607 42.75 12.302 42.75 11.942C42.7522 11.8034 42.724 11.666 42.6675 11.5394C42.611 11.4127 42.5276 11.3 42.423 11.209C42.209 11.011 41.879 10.861 41.435 10.76L39.859 10.415C38.99 10.217 38.348 9.902 37.932 9.47C37.52 9.037 37.313 8.49 37.313 7.827C37.313 7.277 37.467 6.797 37.774 6.385C38.081 5.972 38.505 5.651 39.047 5.421C39.588 5.187 40.209 5.069 40.907 5.069C41.914 5.069 42.706 5.288 43.284 5.724C43.861 6.156 44.244 6.736 44.429 7.464Z" fill="#3D3D3D"/>
<path d="M9.801 5.742L9.562 5.852L9.563 5.854L9.801 5.742ZM8.467 4.166L8.325 4.387L8.327 4.389L8.467 4.166ZM4.643 4.166L4.783 4.388H4.784L4.643 4.166ZM3.309 10.852L3.071 10.962V10.964L3.309 10.851V10.852ZM4.643 12.427L4.501 12.648L4.502 12.649L4.643 12.427ZM11.883 8.294C11.883 9.587 11.647 10.684 11.185 11.593L11.653 11.831C12.16 10.833 12.408 9.651 12.408 8.294H11.883ZM11.185 11.593C10.72 12.503 10.088 13.196 9.288 13.682L9.561 14.131C10.451 13.591 11.147 12.821 11.652 11.832L11.185 11.593ZM9.289 13.68C8.493 14.163 7.585 14.406 6.558 14.406V14.931C7.672 14.931 8.676 14.667 9.561 14.131L9.289 13.68ZM6.558 14.406C5.526 14.406 4.614 14.162 3.814 13.68L3.544 14.13C4.432 14.666 5.44 14.931 6.558 14.931V14.406ZM3.816 13.681C3.02 13.196 2.39 12.499 1.925 11.586L1.457 11.825C1.962 12.818 2.657 13.589 3.542 14.13L3.816 13.682V13.681ZM1.925 11.586C1.463 10.676 1.226 9.582 1.226 8.293H0.701C0.701 9.646 0.949 10.827 1.457 11.825L1.925 11.586ZM1.226 8.293C1.226 6.999 1.463 5.906 1.925 5.001L1.457 4.761C0.95 5.756 0.701 6.936 0.701 8.293H1.226ZM1.925 5.001C2.39 4.088 3.02 3.394 3.815 2.912L3.543 2.462C2.657 3 1.962 3.769 1.457 4.762L1.925 5.001ZM3.815 2.912C4.615 2.426 5.527 2.18 6.558 2.18V1.655C5.439 1.655 4.432 1.923 3.543 2.463L3.815 2.912ZM6.558 2.18C7.585 2.18 8.492 2.426 9.288 2.912L9.56 2.463C8.676 1.923 7.672 1.655 6.558 1.655V2.18ZM9.288 2.912C10.087 3.394 10.72 4.088 11.185 5.001L11.653 4.762C11.148 3.77 10.45 3 9.56 2.462L9.288 2.912ZM11.185 5.001C11.647 5.906 11.883 7 11.883 8.294H12.409C12.409 6.937 12.161 5.756 11.653 4.762L11.185 5.001ZM10.554 8.294C10.554 7.257 10.386 6.365 10.038 5.63L9.563 5.854C9.869 6.501 10.029 7.311 10.029 8.294H10.554ZM10.039 5.631C9.697 4.897 9.221 4.331 8.607 3.944L8.327 4.389C8.844 4.713 9.257 5.196 9.562 5.852L10.039 5.631ZM8.609 3.945C7.9964 3.55608 7.28356 3.35449 6.558 3.365V3.889C7.222 3.889 7.808 4.057 8.325 4.387L8.609 3.945ZM6.558 3.365C5.796 3.365 5.108 3.556 4.501 3.945L4.784 4.388C5.3 4.058 5.889 3.889 6.558 3.889V3.365ZM4.501 3.945C3.891 4.331 3.417 4.897 3.072 5.63L3.547 5.854C3.857 5.197 4.27 4.713 4.783 4.388L4.503 3.944L4.501 3.945ZM3.072 5.63C2.727 6.365 2.562 7.256 2.562 8.293H3.087C3.087 7.309 3.244 6.5 3.547 5.854L3.072 5.63ZM2.562 8.293C2.562 9.329 2.727 10.223 3.072 10.961L3.547 10.74C3.244 10.089 3.087 9.276 3.087 8.293H2.562ZM3.072 10.963C3.417 11.692 3.892 12.258 4.501 12.648L4.784 12.205C4.27 11.875 3.856 11.391 3.547 10.738L3.072 10.963ZM4.501 12.648C5.108 13.032 5.797 13.222 6.558 13.222V12.697C5.888 12.697 5.299 12.531 4.783 12.204L4.503 12.648H4.501ZM6.558 13.222C7.315 13.222 8.001 13.032 8.608 12.648L8.327 12.204C7.79714 12.5362 7.18228 12.7074 6.557 12.697V13.222H6.558ZM8.608 12.648C9.221 12.258 9.697 11.691 10.038 10.962L9.563 10.739C9.257 11.391 8.844 11.875 8.326 12.205L8.608 12.648ZM10.038 10.962C10.386 10.223 10.554 9.33 10.554 8.292H10.029C10.029 9.276 9.869 10.088 9.563 10.739L10.038 10.962ZM15.444 14.378L15.334 14.616H15.335L15.444 14.378ZM14.311 13.415L14.091 13.558L14.092 13.559L14.312 13.414L14.311 13.415ZM17.469 9.087L17.439 8.826L17.468 9.086L17.469 9.087ZM18.826 8.929L18.856 9.189H18.86L18.826 8.929ZM19.372 6.971L19.188 7.158V7.16L19.372 6.971ZM15.887 7.832L15.829 8.088L16.046 8.138L16.13 7.931L15.887 7.832ZM14.184 7.444L13.937 7.356L13.837 7.635L14.126 7.7L14.184 7.444ZM16.42 5.311L16.498 5.561H16.5L16.42 5.311ZM19.208 5.201L19.154 5.458L19.156 5.459L19.208 5.201ZM21.639 14.5L21.64 14.763H21.902V14.5H21.639ZM19.87 14.5H19.607V14.763H19.87V14.5ZM19.87 13.227H20.132V12.965H19.87V13.227ZM19.797 13.227V12.965H19.635L19.562 13.11L19.797 13.227ZM19.826 9.942L20.09 9.942V9.308L19.642 9.757L19.826 9.942ZM19.451 10.124L19.525 10.376H19.528L19.451 10.124ZM18.826 10.264L18.867 10.523H18.872L18.828 10.263L18.826 10.264ZM18.142 10.367L18.176 10.627H18.18L18.142 10.367ZM17.584 10.439L17.618 10.699H17.62L17.584 10.439ZM16.172 12.912L16.023 13.128H16.025L16.172 12.912ZM17.046 14.443C16.5329 14.4513 16.0241 14.3479 15.555 14.14L15.336 14.617C15.8737 14.8569 16.4572 14.977 17.046 14.969V14.443ZM15.556 14.141C15.1392 13.9528 14.784 13.6509 14.531 13.27L14.093 13.56C14.4 14.023 14.816 14.374 15.335 14.616L15.557 14.141H15.556ZM14.532 13.271C14.291 12.902 14.162 12.44 14.162 11.87H13.637C13.637 12.52 13.784 13.088 14.092 13.559L14.532 13.271ZM14.162 11.87C14.162 11.376 14.258 10.994 14.429 10.707L13.977 10.438C13.744 10.83 13.637 11.312 13.637 11.87H14.163H14.162ZM14.429 10.707C14.608 10.407 14.848 10.17 15.152 9.994L14.89 9.539C14.5126 9.75454 14.1979 10.0647 13.977 10.439L14.429 10.707ZM15.152 9.994C15.472 9.81 15.832 9.669 16.234 9.574L16.112 9.063C15.6838 9.16162 15.2721 9.32196 14.89 9.539L15.152 9.994ZM16.234 9.574C16.6516 9.47442 17.0747 9.39896 17.501 9.348L17.439 8.826C16.989 8.88 16.546 8.959 16.112 9.063L16.234 9.573V9.574ZM17.501 9.348L18.858 9.191L18.798 8.669L17.44 8.827L17.501 9.348ZM18.86 9.191C19.218 9.145 19.515 9.069 19.722 8.941L19.447 8.494C19.339 8.561 19.132 8.626 18.794 8.67L18.861 9.19L18.86 9.191ZM19.722 8.941C19.972 8.788 20.084 8.535 20.084 8.245H19.559C19.559 8.391 19.512 8.455 19.448 8.495L19.723 8.942L19.722 8.941ZM20.084 8.245V8.203H19.559V8.245H20.084ZM20.084 8.203C20.084 7.623 19.919 7.137 19.556 6.784L19.19 7.161C19.425 7.39 19.559 7.724 19.559 8.203H20.084ZM19.557 6.785C19.196 6.429 18.677 6.273 18.052 6.273V6.8C18.597 6.8 18.959 6.935 19.188 7.16L19.557 6.785ZM18.052 6.273C17.405 6.273 16.861 6.417 16.449 6.734L16.769 7.15C17.06 6.926 17.479 6.799 18.052 6.799V6.273ZM16.449 6.733C16.074 7.023 15.799 7.354 15.645 7.734L16.131 7.932C16.243 7.657 16.45 7.395 16.769 7.15L16.449 6.734V6.733ZM15.946 7.577L14.243 7.189L14.127 7.701L15.83 8.089L15.946 7.577ZM14.432 7.534C14.622 7.003 14.894 6.585 15.245 6.271L14.895 5.88C14.469 6.26 14.152 6.756 13.938 7.357L14.432 7.534ZM15.245 6.271C15.609 5.945 16.025 5.709 16.499 5.563L16.344 5.061C15.8067 5.22501 15.3118 5.50454 14.894 5.88L15.245 6.271ZM16.501 5.562C16.983 5.409 17.491 5.332 18.027 5.332V4.807C17.44 4.807 16.878 4.891 16.342 5.062L16.501 5.562ZM18.027 5.332C18.378 5.332 18.755 5.374 19.156 5.459L19.265 4.946C18.8584 4.85599 18.4434 4.81007 18.027 4.807V5.332ZM19.157 5.46C19.546 5.539 19.907 5.684 20.245 5.897L20.525 5.454C20.1386 5.208 19.7101 5.03544 19.261 4.945L19.157 5.46ZM20.246 5.898C20.571 6.102 20.842 6.395 21.058 6.789L21.518 6.537C21.2862 6.09565 20.9437 5.72211 20.524 5.453L20.246 5.898ZM21.058 6.789C21.264 7.162 21.378 7.667 21.378 8.318H21.902C21.902 7.612 21.781 7.012 21.518 6.536L21.058 6.789ZM21.378 8.318V14.5H21.902V8.318H21.378ZM21.64 14.238H19.87V14.763H21.64V14.238ZM20.13 14.5V13.227H19.605V14.5H20.13ZM19.868 12.965H19.795V13.49H19.868V12.965ZM19.56 13.11C19.4381 13.342 19.2779 13.5516 19.086 13.73L19.45 14.107C19.701 13.865 19.897 13.611 20.03 13.345L19.56 13.11ZM19.086 13.73C18.8473 13.95 18.5691 14.1227 18.266 14.239L18.464 14.725C18.8291 14.5837 19.1637 14.374 19.45 14.107L19.086 13.73ZM18.266 14.239C17.937 14.372 17.532 14.443 17.044 14.443V14.969C17.581 14.969 18.057 14.89 18.464 14.725L18.266 14.239ZM17.438 13.514C17.973 13.514 18.448 13.408 18.85 13.184L18.595 12.725C18.286 12.897 17.905 12.989 17.438 12.989V13.514ZM18.85 13.184C19.247 12.966 19.555 12.676 19.768 12.311L19.314 12.047C19.154 12.32 18.918 12.547 18.596 12.725L18.849 13.185L18.85 13.184ZM19.767 12.312C19.98 11.949 20.088 11.558 20.088 11.142H19.563C19.563 11.462 19.481 11.762 19.314 12.046L19.767 12.312ZM20.088 11.142V9.942H19.563V11.142H20.088ZM19.64 9.757C19.624 9.772 19.554 9.817 19.373 9.873L19.526 10.375C19.716 10.317 19.897 10.242 20.011 10.128L19.64 9.757ZM19.377 9.872C19.1809 9.92716 18.9819 9.97156 18.781 10.005L18.871 10.522C19.111 10.481 19.33 10.432 19.523 10.376L19.377 9.872ZM18.785 10.004L18.103 10.107L18.178 10.627L18.866 10.523L18.785 10.004ZM18.107 10.106L17.547 10.179L17.618 10.699L18.174 10.627L18.107 10.106ZM17.55 10.179C17.2023 10.2205 16.8602 10.3003 16.53 10.417L16.708 10.91C16.978 10.813 17.281 10.742 17.616 10.7L17.55 10.179ZM16.529 10.417C16.207 10.535 15.939 10.709 15.731 10.945L16.126 11.291C16.266 11.131 16.457 11.002 16.71 10.91L16.529 10.417ZM15.731 10.945C15.509 11.198 15.411 11.524 15.411 11.894H15.936C15.936 11.617 16.008 11.426 16.126 11.291L15.731 10.945ZM15.411 11.894C15.411 12.417 15.611 12.842 16.021 13.128L16.321 12.697C16.069 12.521 15.936 12.267 15.936 11.894H15.411ZM16.023 13.128C16.408 13.391 16.886 13.514 17.438 13.514V12.989C16.962 12.989 16.596 12.884 16.318 12.695L16.023 13.128ZM31.028 7.463L31.073 7.722L31.352 7.672L31.282 7.398L31.028 7.463ZM29.386 7.754L29.135 7.836L29.206 8.053L29.431 8.013L29.386 7.754ZM29.059 7.154L28.849 7.314L28.851 7.317L29.059 7.154ZM26.24 6.851L26.384 7.071L26.386 7.069L26.24 6.851ZM23.64 12.112L23.599 11.852L23.333 11.893L23.381 12.159L23.64 12.112ZM25.392 11.845L25.646 11.785L25.59 11.549L25.351 11.586L25.392 11.845ZM26.064 12.882L25.914 13.098L25.916 13.099L26.064 12.882ZM28.815 12.858L28.965 13.073H28.967L28.815 12.858ZM29.022 11.209L28.843 11.402L28.845 11.403L29.022 11.209ZM28.034 10.76L28.092 10.504H28.09L28.034 10.76ZM26.459 10.415L26.399 10.671H26.401L26.459 10.415ZM24.531 9.47L24.34 9.65L24.341 9.652L24.531 9.47ZM25.646 5.421L25.748 5.662H25.75L25.646 5.421ZM30.982 7.204L29.339 7.496L29.431 8.013L31.073 7.722L30.982 7.204ZM29.634 7.673C29.5518 7.42595 29.4265 7.1954 29.264 6.992L28.851 7.317C28.984 7.485 29.077 7.657 29.135 7.836L29.634 7.673ZM29.266 6.995C29.0828 6.76196 28.847 6.57555 28.578 6.451L28.349 6.924C28.569 7.03 28.732 7.162 28.849 7.314L29.266 6.995ZM28.578 6.451C28.282 6.308 27.926 6.243 27.524 6.243V6.768C27.874 6.768 28.144 6.825 28.349 6.924L28.579 6.451H28.578ZM27.524 6.243C26.972 6.243 26.489 6.368 26.094 6.633L26.386 7.069C26.676 6.874 27.051 6.768 27.524 6.768V6.243ZM26.094 6.633C25.69 6.9 25.462 7.268 25.462 7.73H25.987C25.987 7.473 26.102 7.257 26.384 7.071L26.094 6.633ZM25.462 7.73C25.462 8.116 25.609 8.442 25.902 8.684L26.237 8.279C26.155 8.21367 26.0896 8.12989 26.0462 8.03448C26.0027 7.93907 25.9824 7.83474 25.987 7.73H25.462ZM25.902 8.684C26.179 8.912 26.598 9.079 27.125 9.204L27.245 8.693C26.745 8.575 26.421 8.431 26.237 8.279L25.902 8.684ZM27.125 9.204L28.605 9.544L28.723 9.032L27.244 8.692L27.125 9.204ZM28.605 9.544C29.435 9.736 30.022 10.024 30.395 10.39L30.763 10.015C30.295 9.557 29.605 9.235 28.723 9.032L28.605 9.544ZM30.395 10.39C30.759 10.747 30.947 11.212 30.947 11.809H31.472C31.472 11.089 31.24 10.483 30.762 10.015L30.395 10.39ZM30.947 11.809C30.947 12.312 30.803 12.754 30.514 13.144L30.935 13.456C31.2899 12.9808 31.4786 12.4021 31.472 11.809H30.947ZM30.514 13.144C30.227 13.534 29.819 13.846 29.281 14.077L29.489 14.559C30.099 14.298 30.585 13.931 30.936 13.456L30.514 13.144ZM29.281 14.077C28.751 14.307 28.126 14.425 27.403 14.425V14.95C28.183 14.95 28.88 14.823 29.489 14.56L29.281 14.077ZM27.403 14.425C26.397 14.425 25.602 14.211 24.998 13.803L24.705 14.239C25.418 14.72 26.325 14.95 27.403 14.95V14.425ZM25 13.805C24.403 13.398 24.036 12.825 23.899 12.065L23.381 12.159C23.542 13.049 23.985 13.748 24.705 14.239L25 13.805ZM23.68 12.372L25.431 12.105L25.352 11.585L23.601 11.852L23.68 12.372ZM25.137 11.906C25.258 12.416 25.515 12.822 25.915 13.098L26.214 12.666C25.935 12.473 25.744 12.187 25.647 11.784L25.137 11.906ZM25.916 13.099C26.311 13.367 26.811 13.489 27.392 13.489V12.965C26.882 12.965 26.496 12.857 26.212 12.665L25.916 13.099ZM27.392 13.489C28.02 13.489 28.553 13.359 28.967 13.073L28.666 12.642C28.369 12.848 27.952 12.965 27.392 12.965V13.489ZM28.968 13.072C29.376 12.784 29.612 12.406 29.612 11.942H29.087C29.087 12.198 28.968 12.43 28.666 12.642L28.968 13.072ZM29.612 11.942C29.612 11.576 29.471 11.262 29.199 11.015L28.846 11.403C28.9237 11.4695 28.9856 11.5525 29.0273 11.6459C29.069 11.7393 29.0894 11.8398 29.087 11.942H29.612ZM29.201 11.016C28.939 10.774 28.559 10.61 28.093 10.504L27.976 11.017C28.399 11.113 28.677 11.247 28.843 11.402L29.201 11.016ZM28.092 10.504L26.515 10.159L26.402 10.671L27.978 11.017L28.092 10.504ZM26.517 10.159C25.675 9.967 25.087 9.669 24.72 9.287L24.341 9.652C24.806 10.135 25.505 10.467 26.401 10.671L26.517 10.159ZM24.721 9.289C24.361 8.91 24.176 8.43 24.176 7.827H23.651C23.651 8.549 23.877 9.165 24.341 9.652L24.721 9.289ZM24.176 7.827C24.176 7.33 24.313 6.905 24.584 6.541L24.163 6.228C23.8202 6.68981 23.6415 7.25193 23.651 7.827H24.176ZM24.584 6.541C24.86 6.171 25.245 5.877 25.75 5.662L25.544 5.179C24.966 5.425 24.501 5.773 24.163 6.228L24.584 6.541ZM25.751 5.661C26.254 5.444 26.837 5.331 27.507 5.331V4.807C26.779 4.807 26.122 4.929 25.542 5.18L25.75 5.662L25.751 5.661ZM27.507 5.331C28.477 5.331 29.207 5.543 29.725 5.933L30.041 5.514C29.403 5.032 28.549 4.807 27.507 4.807V5.331ZM29.726 5.934C30.253 6.329 30.602 6.857 30.774 7.528L31.283 7.398C31.083 6.616 30.669 5.983 30.041 5.514L29.726 5.934ZM33.203 14.5H32.94V14.763H33.203V14.5ZM33.203 5.19V4.928H32.94V5.191L33.203 5.19ZM35.015 5.19H35.278V4.928H35.015V5.19ZM35.015 14.5V14.763H35.278V14.5H35.015ZM33.306 3.439L33.124 3.629L33.127 3.631L33.306 3.439ZM34.924 1.912L34.741 2.1L34.744 2.103L34.924 1.912ZM33.464 14.5V5.19H32.939L32.94 14.5H33.464ZM33.202 5.453H35.014L35.015 4.928H33.203L33.202 5.453ZM34.752 5.191V14.5H35.278V5.19H34.751L34.752 5.191ZM35.014 14.237H33.202L33.203 14.763H35.015L35.014 14.237ZM34.117 3.492C33.8816 3.49742 33.6536 3.40933 33.483 3.247L33.127 3.631C33.403 3.888 33.737 4.017 34.117 4.017V3.492ZM33.487 3.25C33.4064 3.17761 33.3422 3.08889 33.2986 2.98975C33.255 2.8906 33.2329 2.78331 33.234 2.675H32.709C32.709 3.045 32.852 3.367 33.123 3.628L33.487 3.25ZM33.234 2.675C33.2321 2.56705 33.2536 2.45997 33.2969 2.36108C33.3402 2.26219 33.4054 2.17382 33.486 2.102L33.125 1.721C32.9925 1.84182 32.8869 1.98923 32.8152 2.15362C32.7435 2.31801 32.7073 2.49567 32.709 2.675H33.234ZM33.486 2.102C33.5695 2.0206 33.6674 1.95666 33.7759 1.9139C33.8845 1.87115 34.0004 1.85045 34.117 1.853V1.328C33.735 1.328 33.401 1.46 33.125 1.721L33.486 2.102ZM34.117 1.853C34.366 1.853 34.569 1.934 34.741 2.1L35.105 1.723C34.9746 1.59514 34.8201 1.4944 34.6505 1.4266C34.481 1.3588 34.2996 1.32529 34.117 1.328V1.853ZM34.744 2.103C34.8257 2.17379 34.8909 2.26256 34.9351 2.36119C34.9794 2.45982 35.0015 2.56692 35 2.675H35.525C35.5264 2.49476 35.4894 2.31629 35.4164 2.15146C35.3435 1.98663 35.2363 1.83921 35.102 1.719L34.744 2.103ZM35 2.675C35 2.894 34.92 3.081 34.743 3.248L35.103 3.63C35.379 3.37 35.525 3.047 35.525 2.675H35ZM34.743 3.248C34.6601 3.32818 34.562 3.39105 34.4545 3.43295C34.3471 3.47484 34.2323 3.49491 34.117 3.492V4.017C34.497 4.017 34.831 3.887 35.103 3.63L34.743 3.248ZM44.428 7.463L44.474 7.722L44.752 7.672L44.682 7.398L44.428 7.463ZM42.786 7.754L42.535 7.836L42.607 8.053L42.831 8.013L42.786 7.754ZM42.459 7.154L42.25 7.314L42.252 7.317L42.459 7.154ZM39.641 6.851L39.784 7.071L39.786 7.069L39.641 6.851ZM40.586 8.948L40.525 9.204H40.527L40.586 8.948ZM37.041 12.112L37 11.852L36.733 11.893L36.781 12.159L37.041 12.112ZM38.792 11.845L39.047 11.785L38.991 11.549L38.751 11.586L38.792 11.845ZM39.465 12.882L39.314 13.098L39.317 13.099L39.465 12.882ZM42.423 11.209L42.244 11.402L42.245 11.403L42.423 11.209ZM41.434 10.76L41.492 10.504H41.49L41.434 10.76ZM39.859 10.415L39.8 10.671H39.802L39.859 10.415ZM37.932 9.47L37.741 9.65V9.652L37.932 9.47ZM39.047 5.421L39.149 5.662H39.15L39.047 5.421ZM44.382 7.204L42.74 7.496L42.831 8.013L44.474 7.722L44.382 7.204ZM43.035 7.673C42.9527 7.42598 42.8275 7.19543 42.665 6.992L42.252 7.317C42.384 7.485 42.477 7.657 42.535 7.836L43.035 7.673ZM42.667 6.995C42.4837 6.76199 42.248 6.57559 41.979 6.451L41.749 6.924C41.969 7.03 42.134 7.162 42.25 7.314L42.667 6.995ZM41.979 6.451C41.682 6.308 41.327 6.243 40.925 6.243V6.768C41.275 6.768 41.544 6.825 41.749 6.924L41.979 6.451ZM40.925 6.243C40.372 6.243 39.89 6.368 39.494 6.633L39.786 7.069C40.076 6.874 40.451 6.768 40.925 6.768V6.243ZM39.495 6.632C39.091 6.899 38.862 7.268 38.862 7.73H39.387C39.387 7.473 39.502 7.257 39.784 7.071L39.495 6.632ZM38.862 7.73C38.862 8.116 39.01 8.442 39.303 8.684L39.637 8.279C39.5549 8.21373 39.4895 8.12995 39.4461 8.03453C39.4026 7.93911 39.3824 7.83475 39.387 7.73H38.862ZM39.303 8.684C39.58 8.912 39.998 9.079 40.525 9.204L40.645 8.693C40.146 8.575 39.821 8.431 39.637 8.279L39.303 8.684ZM40.527 9.204L42.006 9.544L42.123 9.032L40.644 8.692L40.527 9.204ZM42.006 9.544C42.837 9.736 43.423 10.024 43.795 10.39L44.163 10.015C43.696 9.557 43.005 9.235 42.123 9.032L42.006 9.544ZM43.795 10.39C44.159 10.747 44.347 11.212 44.347 11.809H44.872C44.872 11.089 44.64 10.483 44.163 10.015L43.796 10.39H43.795ZM44.347 11.809C44.347 12.312 44.203 12.754 43.914 13.144L44.336 13.456C44.6906 12.9807 44.8789 12.4019 44.872 11.809H44.347ZM43.914 13.144C43.626 13.534 43.22 13.846 42.682 14.077L42.889 14.559C43.499 14.298 43.985 13.931 44.336 13.456L43.914 13.144ZM42.682 14.077C42.152 14.307 41.527 14.425 40.804 14.425V14.95C41.584 14.95 42.281 14.823 42.89 14.56L42.682 14.077ZM40.804 14.425C39.797 14.425 39.002 14.211 38.399 13.803L38.105 14.239C38.819 14.72 39.725 14.95 40.804 14.95V14.425ZM38.4 13.805C37.803 13.398 37.436 12.825 37.298 12.065L36.781 12.159C36.943 13.049 37.385 13.748 38.105 14.239L38.4 13.805ZM37.08 12.372L38.83 12.105L38.752 11.585L37 11.852L37.08 12.372ZM38.536 11.906C38.658 12.416 38.914 12.822 39.314 13.098L39.613 12.666C39.335 12.473 39.143 12.188 39.047 11.785L38.536 11.906ZM39.317 13.099C39.713 13.367 40.211 13.489 40.791 13.489V12.965C40.281 12.965 39.895 12.857 39.611 12.665L39.317 13.099ZM40.791 13.489C41.419 13.489 41.953 13.359 42.366 13.073L42.066 12.642C41.768 12.848 41.351 12.965 40.791 12.965V13.489ZM42.367 13.072C42.776 12.784 43.012 12.406 43.012 11.942H42.486C42.486 12.198 42.366 12.43 42.064 12.642L42.367 13.072ZM43.012 11.942C43.012 11.576 42.87 11.262 42.598 11.015L42.245 11.403C42.3227 11.4695 42.3846 11.5525 42.4263 11.6459C42.468 11.7393 42.4884 11.8398 42.486 11.942H43.012ZM42.6 11.016C42.338 10.774 41.958 10.61 41.492 10.504L41.376 11.017C41.798 11.113 42.077 11.247 42.244 11.402L42.6 11.016ZM41.49 10.504L39.914 10.159L39.802 10.671L41.378 11.017L41.49 10.504ZM39.916 10.159C39.075 9.967 38.487 9.669 38.12 9.287L37.741 9.652C38.206 10.135 38.904 10.467 39.8 10.671L39.916 10.159ZM38.121 9.289C37.761 8.91 37.575 8.43 37.575 7.827H37.05C37.05 8.549 37.277 9.164 37.74 9.651L38.12 9.287L38.121 9.289ZM37.575 7.827C37.575 7.33 37.713 6.905 37.984 6.541L37.563 6.228C37.2205 6.68993 37.0402 7.25204 37.05 7.827H37.575ZM37.984 6.541C38.259 6.171 38.644 5.877 39.149 5.662L38.943 5.179C38.365 5.425 37.901 5.773 37.563 6.228L37.984 6.541ZM39.15 5.661C39.653 5.444 40.237 5.331 40.907 5.331V4.807C40.178 4.807 39.521 4.929 38.942 5.18L39.15 5.662V5.661ZM40.907 5.331C41.877 5.331 42.607 5.544 43.124 5.934L43.441 5.514C42.803 5.032 41.948 4.807 40.907 4.807V5.331ZM43.124 5.934C43.652 6.329 44.002 6.857 44.174 7.528L44.682 7.398C44.482 6.616 44.068 5.983 43.44 5.514L43.124 5.934Z" fill="#3D3D3D"/>
</svg>
