<svg width="57" height="19" viewBox="0 0 57 19" fill="none" xmlns="http://www.w3.org/2000/svg">
<g clip-path="url(#clip0_287_2647)">
<rect width="57" height="18" transform="translate(0 0.5)" fill="white"/>
<path d="M27.4033 14.0619C26.5003 14.0696 25.6103 13.8458 24.8183 13.4119C24.0459 12.9764 23.403 12.3435 22.9553 11.5779C22.5033 10.7879 22.2773 9.90293 22.2773 8.92093C22.2773 7.93893 22.5033 7.05793 22.9553 6.27793C23.4007 5.51425 24.0445 4.88534 24.8183 4.45793C25.6075 4.01525 26.4986 3.78637 27.4033 3.79393C28.3473 3.79393 29.2093 4.01493 29.9883 4.45793C30.7783 4.89193 31.3983 5.49793 31.8513 6.27793C32.3043 7.05793 32.5303 7.93793 32.5303 8.92093C32.5303 9.90293 32.3043 10.7889 31.8513 11.5779C31.4091 12.3476 30.7649 12.9818 29.9883 13.4119C29.2083 13.8449 28.3473 14.0619 27.4033 14.0619ZM27.4033 12.6319C28.0683 12.6319 28.6603 12.4829 29.1803 12.1849C29.7003 11.8759 30.1043 11.4429 30.3933 10.8849C30.6913 10.3169 30.8403 9.66193 30.8403 8.92093C30.8403 8.17893 30.6913 7.52993 30.3933 6.97093C30.1237 6.43297 29.7019 5.98612 29.1803 5.68593C28.6603 5.38693 28.0683 5.23793 27.4033 5.23793C26.7393 5.23793 26.1473 5.38793 25.6273 5.68593C25.1035 5.98795 24.6773 6.43392 24.3993 6.97093C24.1113 7.52993 23.9663 8.17893 23.9663 8.92093C23.9663 9.66193 24.1113 10.3169 24.3993 10.8849C24.6799 11.4239 25.1052 11.8741 25.6273 12.1849C26.1473 12.4829 26.7393 12.6319 27.4033 12.6319ZM35.7963 7.17293C36.0763 6.80793 36.4563 6.49893 36.9373 6.24893C37.4429 5.99341 38.003 5.86471 38.5693 5.87393C39.2623 5.87393 39.8933 6.04693 40.4613 6.39393C41.0393 6.73093 41.4913 7.20693 41.8193 7.82393C42.1463 8.43893 42.3093 9.14693 42.3093 9.94593C42.3093 10.7459 42.1463 11.4629 41.8193 12.0979C41.5101 12.704 41.0403 13.2135 40.4613 13.5709C39.8918 13.918 39.2363 14.0982 38.5693 14.0909C37.9633 14.0909 37.4233 13.9709 36.9523 13.7299C36.5089 13.5027 36.1157 13.1884 35.7963 12.8059V17.7449H34.1503V6.00393H35.7963V7.17293ZM40.6343 9.94593C40.6343 9.39693 40.5193 8.92593 40.2883 8.53093C40.086 8.14585 39.7742 7.82924 39.3923 7.62093C39.0333 7.41086 38.6244 7.30104 38.2083 7.30293C37.7943 7.30293 37.4003 7.40893 37.0243 7.62093C36.6583 7.83293 36.3603 8.14093 36.1293 8.54493C35.9073 8.94993 35.7963 9.42593 35.7963 9.97493C35.7963 10.5239 35.9073 11.0049 36.1293 11.4189C36.3593 11.8239 36.6593 12.1319 37.0243 12.3439C37.4003 12.5549 37.7943 12.6609 38.2083 12.6609C38.6323 12.6609 39.0273 12.5549 39.3923 12.3439C39.7683 12.1219 40.0663 11.8039 40.2883 11.3899C40.5183 10.9759 40.6343 10.4949 40.6343 9.94593ZM43.3893 9.94593C43.3893 9.14693 43.5523 8.43893 43.8793 7.82293C44.1934 7.23053 44.6638 6.73553 45.2394 6.39174C45.815 6.04795 46.4739 5.86851 47.1443 5.87293C47.7703 5.87293 48.3143 5.99893 48.7763 6.24893C49.2473 6.48893 49.6233 6.79293 49.9023 7.15893V6.00393H51.5623V13.9609H49.9023V12.7769C49.6223 13.1519 49.2423 13.4649 48.7623 13.7149C48.2803 13.9649 47.7313 14.0909 47.1153 14.0909C46.4313 14.0909 45.8053 13.9179 45.2373 13.5709C44.6633 13.2079 44.1952 12.6998 43.8803 12.0979C43.5523 11.4619 43.3893 10.7449 43.3893 9.94593ZM49.9023 9.97593C49.9023 9.42593 49.7863 8.94992 49.5553 8.54593C49.3537 8.16177 49.049 7.84144 48.6753 7.62093C48.316 7.41069 47.9067 7.30086 47.4903 7.30293C47.0673 7.30293 46.6723 7.40893 46.3063 7.62093C45.929 7.83487 45.619 8.15007 45.4113 8.53093C45.1893 8.92593 45.0783 9.39693 45.0783 9.94593C45.0783 10.4949 45.1893 10.9759 45.4113 11.3899C45.6413 11.8039 45.9413 12.1219 46.3063 12.3439C46.6823 12.5549 47.0763 12.6609 47.4903 12.6609C47.9143 12.6609 48.3093 12.5549 48.6743 12.3439C49.0403 12.1319 49.3343 11.8239 49.5553 11.4189C49.7863 11.0049 49.9023 10.5249 49.9023 9.97593ZM55.3723 3.27393V13.9609H53.7253V3.27393H55.3713H55.3723Z" fill="black"/>
<path d="M15.284 8.59C15.284 11.526 12.886 13.907 9.928 13.907C6.969 13.907 4.571 11.527 4.571 8.589M4.571 8.589C4.571 5.652 6.969 3.272 9.928 3.272C12.886 3.272 15.284 5.653 15.284 8.589C15.284 12.505 12.086 15.679 8.142 15.679C4.198 15.679 1 12.505 1 8.589M4.571 8.589C4.571 4.674 7.769 1.5 11.713 1.5C15.658 1.5 18.855 4.674 18.855 8.59" stroke="#3D3D3D" stroke-width="1.05" stroke-linecap="round" stroke-linejoin="round"/>
<path d="M27.4032 14.0619C26.5001 14.0696 25.6102 13.8459 24.8182 13.4119C24.0457 12.9764 23.4028 12.3435 22.9552 11.5779C22.5032 10.7879 22.2772 9.90294 22.2772 8.92094C22.2772 7.93894 22.5032 7.05794 22.9552 6.27794C23.4006 5.51426 24.0443 4.88536 24.8182 4.45794C25.6073 4.01526 26.4984 3.78638 27.4032 3.79394C28.3472 3.79394 29.2092 4.01494 29.9882 4.45794C30.7782 4.89194 31.3982 5.49794 31.8512 6.27794C32.3042 7.05794 32.5302 7.93794 32.5302 8.92094C32.5302 9.90294 32.3042 10.7889 31.8512 11.5779C31.4089 12.3476 30.7647 12.9818 29.9882 13.4119C29.2082 13.8449 28.3472 14.0619 27.4032 14.0619ZM27.4032 12.6319C28.0682 12.6319 28.6602 12.4829 29.1802 12.1849C29.7002 11.8759 30.1042 11.4429 30.3932 10.8849C30.6912 10.3169 30.8402 9.66194 30.8402 8.92094C30.8402 8.17894 30.6912 7.52994 30.3932 6.97094C30.1235 6.43298 29.7017 5.98613 29.1802 5.68594C28.6602 5.38694 28.0682 5.23794 27.4032 5.23794C26.7392 5.23794 26.1472 5.38794 25.6272 5.68594C25.1033 5.98796 24.6771 6.43394 24.3992 6.97094C24.1112 7.52994 23.9662 8.17894 23.9662 8.92094C23.9662 9.66194 24.1112 10.3169 24.3992 10.8849C24.6798 11.424 25.105 11.8741 25.6272 12.1849C26.1472 12.4829 26.7392 12.6319 27.4032 12.6319ZM35.7962 7.17294C36.0762 6.80794 36.4562 6.49894 36.9372 6.24894C37.4427 5.99342 38.0028 5.86472 38.5692 5.87394C39.2622 5.87394 39.8932 6.04694 40.4612 6.39394C41.0392 6.73094 41.4912 7.20694 41.8192 7.82394C42.1462 8.43894 42.3092 9.14694 42.3092 9.94594C42.3092 10.7459 42.1462 11.4629 41.8192 12.0979C41.5099 12.704 41.0402 13.2135 40.4612 13.5709C39.8917 13.918 39.2361 14.0982 38.5692 14.0909C37.9632 14.0909 37.4232 13.9709 36.9522 13.7299C36.5087 13.5027 36.1156 13.1884 35.7962 12.8059V17.7449H34.1502V6.00394H35.7962V7.17294ZM40.6342 9.94594C40.6342 9.39694 40.5192 8.92594 40.2882 8.53094C40.0858 8.14586 39.7741 7.82925 39.3922 7.62094C39.0331 7.41087 38.6242 7.30105 38.2082 7.30294C37.7942 7.30294 37.4002 7.40894 37.0242 7.62094C36.6582 7.83294 36.3602 8.14094 36.1292 8.54494C35.9072 8.94994 35.7962 9.42594 35.7962 9.97494C35.7962 10.5239 35.9072 11.0049 36.1292 11.4189C36.3592 11.8239 36.6592 12.1319 37.0242 12.3439C37.4002 12.5549 37.7942 12.6609 38.2082 12.6609C38.6322 12.6609 39.0272 12.5549 39.3922 12.3439C39.7682 12.1219 40.0662 11.8039 40.2882 11.3899C40.5182 10.9759 40.6342 10.4949 40.6342 9.94594ZM43.3892 9.94594C43.3892 9.14694 43.5522 8.43894 43.8792 7.82294C44.1932 7.23054 44.6636 6.73554 45.2392 6.39175C45.8149 6.04796 46.4737 5.86852 47.1442 5.87294C47.7702 5.87294 48.3142 5.99894 48.7762 6.24894C49.2472 6.48894 49.6232 6.79294 49.9022 7.15894V6.00394H51.5622V13.9609H49.9022V12.7769C49.6222 13.1519 49.2422 13.4649 48.7622 13.7149C48.2802 13.9649 47.7312 14.0909 47.1152 14.0909C46.4312 14.0909 45.8052 13.9179 45.2372 13.5709C44.6631 13.2079 44.195 12.6998 43.8802 12.0979C43.5522 11.4619 43.3892 10.7449 43.3892 9.94594ZM49.9022 9.97594C49.9022 9.42594 49.7862 8.94994 49.5552 8.54594C49.3536 8.16178 49.0488 7.84145 48.6752 7.62094C48.3158 7.4107 47.9065 7.30087 47.4902 7.30294C47.0672 7.30294 46.6722 7.40894 46.3062 7.62094C45.9288 7.83488 45.6188 8.15008 45.4112 8.53094C45.1892 8.92594 45.0782 9.39694 45.0782 9.94594C45.0782 10.4949 45.1892 10.9759 45.4112 11.3899C45.6412 11.8039 45.9412 12.1219 46.3062 12.3439C46.6822 12.5549 47.0762 12.6609 47.4902 12.6609C47.9142 12.6609 48.3092 12.5549 48.6742 12.3439C49.0402 12.1319 49.3342 11.8239 49.5552 11.4189C49.7862 11.0049 49.9022 10.5249 49.9022 9.97594ZM55.3722 3.27394V13.9609H53.7252V3.27394H55.3712H55.3722Z" fill="#3D3D3D"/>
<path d="M24.8182 13.4119L24.6882 13.6399L24.6922 13.6419L24.8182 13.4119ZM22.9552 11.5779L22.7272 11.7079L22.7292 11.7119L22.9552 11.5779ZM22.9552 6.27794L22.7292 6.14394V6.14594L22.9552 6.27794ZM29.9882 4.45794L29.8582 4.68694L29.8622 4.68894L29.9882 4.45894V4.45794ZM31.8512 11.5779L32.0782 11.7099L32.0792 11.7089L31.8512 11.5789V11.5779ZM29.1802 12.1849L29.3102 12.4119L29.3142 12.4099L29.1802 12.1849ZM30.3932 10.8849L30.1602 10.7629V10.7639L30.3932 10.8849ZM30.3932 6.97094L30.1592 7.09094L30.1612 7.09494L30.3932 6.97094ZM24.3992 6.96994L24.1682 6.84594L24.1662 6.84994L24.3992 6.96994ZM24.3992 10.8849L24.1652 11.0029L24.1682 11.0079L24.3992 10.8849ZM25.6272 12.1849L25.4932 12.4099L25.4962 12.4109L25.6272 12.1849ZM27.4032 13.7979C26.5446 13.8059 25.6983 13.5934 24.9452 13.1809L24.6922 13.6409C25.5222 14.0969 26.4272 14.3239 27.4032 14.3239V13.7979ZM24.9482 13.1829C24.2153 12.7699 23.6055 12.1693 23.1812 11.4429L22.7292 11.7119C23.2004 12.5167 23.8767 13.1811 24.6892 13.6389L24.9482 13.1829ZM23.1832 11.4469C22.7552 10.6999 22.5392 9.85994 22.5392 8.91994H22.0142C22.0142 9.94394 22.2502 10.8749 22.7272 11.7079L23.1832 11.4469ZM22.5402 8.91994C22.5402 7.97994 22.7562 7.14494 23.1832 6.40894L22.7292 6.14594C22.2512 6.96994 22.0142 7.89494 22.0142 8.91994H22.5402ZM23.1822 6.40994C23.6041 5.68676 24.2141 5.09135 24.9472 4.68694L24.6922 4.22694C23.8773 4.67694 23.1994 5.33899 22.7302 6.14294L23.1822 6.40994ZM24.9482 4.68594C25.698 4.26549 26.5446 4.04832 27.4042 4.05594V3.52994C26.4272 3.52994 25.5212 3.76294 24.6912 4.22794L24.9482 4.68594ZM27.4042 4.05594C28.3042 4.05594 29.1212 4.26594 29.8602 4.68594L30.1192 4.22894C29.2914 3.76124 28.3549 3.52014 27.4042 3.52994V4.05594ZM29.8632 4.68794C30.6112 5.09794 31.1972 5.66994 31.6252 6.40794L32.0792 6.14494C31.6153 5.336 30.9357 4.67195 30.1162 4.22694L29.8632 4.68694V4.68794ZM31.6252 6.40794C32.0522 7.14494 32.2682 7.97994 32.2682 8.91994H32.7942C32.7942 7.89594 32.5572 6.96894 32.0792 6.14494L31.6252 6.40794ZM32.2682 8.91994C32.2682 9.85994 32.0522 10.6999 31.6242 11.4469L32.0802 11.7069C32.5572 10.8749 32.7942 9.94394 32.7942 8.91994H32.2682ZM31.6252 11.4449C31.2066 12.174 30.5966 12.7747 29.8612 13.1819L30.1182 13.6399C30.9354 13.1868 31.6135 12.5191 32.0792 11.7089L31.6252 11.4449ZM29.8612 13.1819C29.1089 13.5966 28.2631 13.8091 27.4042 13.7989L27.4032 14.3239C28.3892 14.3239 29.2962 14.0969 30.1172 13.6409L29.8622 13.1809L29.8612 13.1819ZM27.4042 12.8939C28.1092 12.8939 28.7482 12.7349 29.3112 12.4109L29.0502 11.9559C28.5742 12.2289 28.0282 12.3689 27.4042 12.3689V12.8939ZM29.3142 12.4099C29.8769 12.0765 30.3325 11.589 30.6272 11.0049L30.1602 10.7629C29.911 11.2597 29.5253 11.6745 29.0472 11.9579L29.3152 12.4099H29.3142ZM30.6262 11.0059C30.9472 10.3949 31.1042 9.69694 31.1042 8.91994H30.5792C30.5792 9.62494 30.4372 10.2369 30.1612 10.7619L30.6262 11.0059ZM31.1042 8.91994C31.1042 8.14294 30.9472 7.44894 30.6252 6.84594L30.1622 7.09394C30.4372 7.60794 30.5792 8.21394 30.5792 8.91994H31.1042ZM30.6272 6.84994C30.3345 6.26665 29.8769 5.78225 29.3112 5.45694L29.0502 5.91294C29.5242 6.18494 29.8932 6.57494 30.1592 7.09094L30.6272 6.84994ZM29.3102 5.45794C28.7472 5.13394 28.1082 4.97594 27.4032 4.97594V5.49994C28.0272 5.49994 28.5732 5.64094 29.0492 5.91394L29.3102 5.45694V5.45794ZM27.4032 4.97594C26.6982 4.97594 26.0602 5.13394 25.4962 5.45794L25.7572 5.91394C26.2332 5.63994 26.7802 5.49994 27.4032 5.49994V4.97594ZM25.4962 5.45794C24.9299 5.78499 24.4691 6.26733 24.1682 6.84794L24.6312 7.09494C24.886 6.60148 25.2762 6.19157 25.7572 5.91394L25.4962 5.45794ZM24.1662 6.84994C23.8552 7.45094 23.7042 8.14494 23.7042 8.92094H24.2292C24.2292 8.21394 24.3662 7.60694 24.6332 7.09094L24.1662 6.84994ZM23.7042 8.92094C23.7042 9.69694 23.8552 10.3919 24.1652 11.0029L24.6342 10.7659C24.3662 10.2399 24.2292 9.62794 24.2292 8.92094H23.7042ZM24.1682 11.0079C24.4882 11.6059 24.9302 12.0769 25.4932 12.4109L25.7612 11.9589C25.2801 11.6728 24.8887 11.2579 24.6312 10.7609L24.1682 11.0079ZM25.4962 12.4109C26.0602 12.7349 26.6982 12.8949 27.4032 12.8949V12.3699C26.7802 12.3699 26.2332 12.2299 25.7582 11.9569L25.4962 12.4109ZM35.7962 7.17294H35.5342V7.94994L36.0052 7.33294L35.7962 7.17294ZM40.4612 6.39394L40.3242 6.61794L40.3292 6.61994L40.4612 6.39394ZM41.8192 12.0979L42.0512 12.2199L42.0522 12.2179L41.8192 12.0979ZM36.9522 13.7299L36.8292 13.9619L36.8322 13.9639L36.9522 13.7299ZM35.7962 12.8059L36.0002 12.6399L35.5342 12.0679V12.8059L35.7962 12.8059ZM35.7962 17.7449V18.0069H36.0592V17.7449L35.7962 17.7449ZM34.1502 17.7449L33.8882 17.7449V18.0069H34.1502V17.7449ZM34.1502 6.00394V5.73994H33.8882V6.00294H34.1502V6.00394ZM35.7962 6.00394H36.0592V5.73994H35.7962V6.00394ZM40.2882 8.53094L40.0582 8.65694L40.0612 8.66394L40.2882 8.53094ZM39.3922 7.62094L39.2612 7.84794L39.2682 7.85194L39.3922 7.62094ZM37.0242 7.62094L36.8952 7.39194L36.8922 7.39394L37.0242 7.62094ZM36.1292 8.54494L35.9012 8.41494L35.8982 8.41894L36.1282 8.54494L36.1292 8.54494ZM36.1292 11.4189L35.8972 11.5429L35.9012 11.5499L36.1292 11.4199V11.4189ZM37.0242 12.3439L36.8922 12.5709L36.8952 12.5719L37.0242 12.3439ZM39.3922 12.3439L39.5242 12.5709L39.5262 12.5699L39.3922 12.3439ZM40.2882 11.3899L40.0582 11.2619L40.0562 11.2669L40.2882 11.3899ZM36.0052 7.33294C36.2572 7.00294 36.6052 6.71794 37.0582 6.48294L36.8172 6.01594C36.3072 6.28094 35.8942 6.61294 35.5882 7.01394L36.0052 7.33294ZM37.0582 6.48294C37.4982 6.25294 38.0002 6.13594 38.5692 6.13594V5.61094C37.9252 5.61094 37.3402 5.74394 36.8172 6.01594L37.0582 6.48294ZM38.5692 6.13594C39.2162 6.13594 39.7992 6.29694 40.3242 6.61794L40.5982 6.16894C39.9874 5.79679 39.2844 5.60347 38.5692 5.61094V6.13594ZM40.3292 6.61994C40.8622 6.93194 41.2812 7.37094 41.5872 7.94594L42.0502 7.69994C41.7194 7.06136 41.2141 6.52977 40.5932 6.16694L40.3292 6.61994ZM41.5872 7.94594C41.8912 8.51994 42.0472 9.18394 42.0472 9.94594H42.5722C42.5722 9.10994 42.4012 8.35894 42.0502 7.69994L41.5872 7.94594ZM42.0472 9.94594C42.0472 10.7079 41.8912 11.3839 41.5852 11.9779L42.0522 12.2179C42.4012 11.5409 42.5722 10.7819 42.5722 9.94594H42.0472ZM41.5862 11.9759C41.2988 12.5401 40.8619 13.0144 40.3232 13.3469L40.5992 13.7939C41.218 13.4119 41.7202 12.8675 42.0512 12.2199L41.5862 11.9759ZM40.3242 13.3459C39.796 13.668 39.1878 13.835 38.5692 13.8279V14.3539C39.3092 14.3539 39.9872 14.1679 40.5982 13.7949L40.3232 13.3469L40.3242 13.3459ZM38.5692 13.8279C37.9992 13.8279 37.5012 13.7149 37.0712 13.4959L36.8322 13.9639C37.3462 14.2259 37.9272 14.3539 38.5692 14.3539V13.8279ZM37.0752 13.4979C36.6629 13.287 36.2973 12.9952 36.0002 12.6399L35.5932 12.9719C35.9162 13.3679 36.3302 13.6969 36.8292 13.9619L37.0752 13.4979ZM35.5342 12.8059V17.7449H36.0592V12.8049L35.5342 12.8059ZM35.7962 17.4819H34.1502V18.0069H35.7962V17.4819ZM34.4132 17.7449V6.00394H33.8882V17.7439H34.4132V17.7449ZM34.1502 6.26594H35.7962V5.74094H34.1502V6.26594ZM35.5342 6.00394V7.17394H36.0592V6.00394H35.5342ZM40.8972 9.94594C40.8972 9.35994 40.7732 8.84094 40.5142 8.39794L40.0612 8.66394C40.2642 9.01094 40.3712 9.43394 40.3712 9.94594H40.8972ZM40.5182 8.40494C40.2917 7.97547 39.9435 7.62239 39.5172 7.38994L39.2672 7.85194C39.5952 8.02794 39.8592 8.29294 40.0582 8.65694L40.5182 8.40494ZM39.5242 7.39394C39.125 7.16075 38.6705 7.03885 38.2082 7.04094V7.56594C38.5862 7.56594 38.9352 7.65994 39.2612 7.84794L39.5242 7.39394ZM38.2082 7.04094C37.7482 7.04094 37.3082 7.15894 36.8952 7.39194L37.1532 7.84994C37.4912 7.65994 37.8412 7.56594 38.2082 7.56594V7.04094ZM36.8922 7.39394C36.4822 7.63094 36.1522 7.97394 35.9012 8.41494L36.3572 8.67494C36.5672 8.30694 36.8342 8.03494 37.1562 7.84794L36.8922 7.39394ZM35.8982 8.41894C35.6522 8.86894 35.5342 9.39094 35.5342 9.97494H36.0592C36.0592 9.46194 36.1622 9.02994 36.3592 8.67094L35.8982 8.41894ZM35.5342 9.97494C35.5342 10.5599 35.6522 11.0849 35.8972 11.5429L36.3602 11.2949C36.1622 10.9249 36.0592 10.4879 36.0592 9.97494H35.5342ZM35.9012 11.5499C36.1522 11.9899 36.4822 12.3329 36.8922 12.5699L37.1562 12.1159C36.82 11.9173 36.5436 11.6316 36.3562 11.2889L35.9012 11.5489V11.5499ZM36.8952 12.5719C37.3082 12.8049 37.7472 12.9239 38.2082 12.9239V12.3989C37.8412 12.3989 37.4912 12.3049 37.1532 12.1149L36.8952 12.5719ZM38.2082 12.9239C38.6782 12.9239 39.1182 12.8059 39.5242 12.5709L39.2612 12.1159C38.942 12.3031 38.5782 12.4009 38.2082 12.3989V12.9239ZM39.5262 12.5699C39.9462 12.3219 40.2772 11.9669 40.5192 11.5139L40.0562 11.2669C39.8562 11.6409 39.5902 11.9219 39.2592 12.1169L39.5262 12.5699ZM40.5172 11.5179C40.7732 11.0589 40.8972 10.5329 40.8972 9.94594H40.3722C40.3722 10.4569 40.2632 10.8929 40.0582 11.2619L40.5172 11.5179ZM43.8792 7.82294L43.6502 7.69694L43.6482 7.69994L43.8792 7.82294ZM45.2372 6.39294L45.3712 6.61894H45.3732L45.2372 6.39294ZM48.7762 6.24894L48.6502 6.47994L48.6562 6.48294L48.7762 6.24894ZM49.9022 7.15894L49.6932 7.31894L50.1652 7.93594V7.15894H49.9022ZM49.9022 6.00394V5.73994H49.6392V6.00294H49.9022V6.00394ZM51.5622 6.00394H51.8252V5.73994H51.5632V6.00294L51.5622 6.00394ZM51.5622 13.9609V14.2229H51.8252V13.9609L51.5622 13.9609ZM49.9022 13.9609L49.6392 13.9609V14.2229H49.9022V13.9609ZM49.9022 12.7769L50.1652 12.7769V11.9839L49.6912 12.6199L49.9022 12.7769ZM45.2372 13.5709L45.0972 13.7939L45.1012 13.7949L45.2372 13.5709ZM43.8802 12.0979L43.6462 12.2179L43.6492 12.2229L43.8802 12.0979ZM49.5552 8.54594L49.3252 8.67094L49.3272 8.67594L49.5552 8.54594ZM46.3062 7.62094L46.4332 7.85094L46.4382 7.84794L46.3062 7.62094ZM45.4112 8.53094L45.1832 8.40094L45.1822 8.40194L45.4112 8.53094ZM45.4112 11.3899L45.1792 11.5139L45.1812 11.5179L45.4112 11.3899ZM46.3062 12.3439L46.1702 12.5679L46.1772 12.5719L46.3062 12.3439ZM49.5552 11.4189L49.3262 11.2909V11.2929L49.5552 11.4189ZM43.6512 9.94594C43.6512 9.18394 43.8072 8.51994 44.1112 7.94594L43.6482 7.69994C43.2982 8.35994 43.1262 9.10994 43.1262 9.94594H43.6512ZM44.1112 7.94894C44.4017 7.39879 44.8375 6.93879 45.3712 6.61894L45.1032 6.16794C44.4884 6.53595 43.986 7.06502 43.6502 7.69794L44.1112 7.94894ZM45.3732 6.61894C45.9072 6.29748 46.5199 6.1303 47.1432 6.13594V5.61094C46.4249 5.60519 45.7189 5.79794 45.1032 6.16794L45.3732 6.61894ZM47.1432 6.13594C47.7342 6.13594 48.2322 6.25394 48.6502 6.47994L48.9012 6.01794C48.3932 5.74394 47.8042 5.61094 47.1432 5.61094V6.13594ZM48.6562 6.48294C49.0982 6.70894 49.4412 6.98894 49.6932 7.31894L50.1112 6.99994C49.7854 6.58404 49.3697 6.24729 48.8952 6.01494L48.6562 6.48294ZM50.1652 7.15894V6.00394H49.6392V7.15894H50.1652ZM49.9022 6.26594H51.5622V5.74094H49.9022V6.26594ZM51.3002 6.00394V13.9609H51.8252V6.00394H51.3002ZM51.5632 13.6979H49.9022V14.2229H51.5622L51.5632 13.6979ZM50.1652 13.9609V12.7769H49.6392V13.9609H50.1652ZM49.6912 12.6199C49.4392 12.9589 49.0912 13.2479 48.6402 13.4829L48.8822 13.9479C49.3932 13.6829 49.8062 13.3449 50.1122 12.9329L49.6912 12.6199ZM48.6402 13.4829C48.2002 13.7109 47.6952 13.8279 47.1152 13.8279V14.3539C47.7672 14.3539 48.3592 14.2209 48.8822 13.9479L48.6402 13.4829ZM47.1152 13.8279C46.4782 13.8279 45.9002 13.6679 45.3752 13.3469L45.1012 13.7949C45.7069 14.1664 46.4047 14.3601 47.1152 14.3539V13.8279ZM45.3772 13.3479C44.8414 13.0092 44.4046 12.5348 44.1112 11.9729L43.6492 12.2229C44.0062 12.8859 44.4892 13.4119 45.0982 13.7929L45.3772 13.3489V13.3479ZM44.1132 11.9779C43.8072 11.3839 43.6512 10.7079 43.6512 9.94594H43.1262C43.1262 10.7819 43.2982 11.5409 43.6462 12.2179L44.1132 11.9779ZM50.1652 9.97494C50.1652 9.38894 50.0412 8.86494 49.7832 8.41494L49.3272 8.67594C49.5322 9.03494 49.6402 9.46394 49.6402 9.97494H50.1652ZM49.7852 8.41894C49.5603 7.99301 49.2213 7.63809 48.8062 7.39394L48.5432 7.84794C48.8632 8.03394 49.1252 8.30494 49.3252 8.67094L49.7852 8.41894ZM48.8062 7.39394C48.407 7.16075 47.9525 7.03885 47.4902 7.04094V7.56594C47.8682 7.56594 48.2172 7.65994 48.5432 7.84794L48.8062 7.39394ZM47.4902 7.04094C47.0202 7.04094 46.5802 7.15794 46.1742 7.39294L46.4382 7.84794C46.7572 7.66131 47.1206 7.56291 47.4902 7.56494V7.04094ZM46.1802 7.38994C45.7602 7.62713 45.4149 7.97695 45.1832 8.39994L45.6392 8.65994C45.8492 8.29294 46.1142 8.02594 46.4332 7.84994L46.1802 7.38994ZM45.1822 8.40194C44.9342 8.84394 44.8162 9.36094 44.8162 9.94494H45.3412C45.3412 9.43194 45.4442 9.00594 45.6402 8.65794L45.1822 8.40194ZM44.8162 9.94494C44.8162 10.5299 44.9342 11.0549 45.1792 11.5129L45.6422 11.2659C45.4442 10.8959 45.3422 10.4579 45.3422 9.94594H44.8162V9.94494ZM45.1812 11.5179C45.4322 11.9679 45.7612 12.3199 46.1712 12.5669L46.4422 12.1169C46.1041 11.9073 45.8274 11.612 45.6402 11.2609L45.1812 11.5179ZM46.1772 12.5719C46.5902 12.8049 47.0292 12.9229 47.4902 12.9229V12.3979C47.1232 12.3979 46.7732 12.3039 46.4352 12.1139L46.1772 12.5719ZM47.4902 12.9229C47.9602 12.9229 48.4002 12.8049 48.8062 12.5699L48.5432 12.1149C48.224 12.3021 47.8602 12.3999 47.4902 12.3979V12.9229ZM48.8062 12.5699C49.2217 12.3254 49.561 11.9702 49.7862 11.5439L49.3262 11.2909C49.147 11.6329 48.8758 11.919 48.5432 12.1149L48.8062 12.5699ZM49.7852 11.5459C50.0412 11.0869 50.1652 10.5599 50.1652 9.97394H49.6392C49.6392 10.4849 49.5322 10.9209 49.3262 11.2899L49.7852 11.5459ZM55.3722 3.27394L55.6342 3.27294V3.01094H55.3712V3.27394H55.3722ZM55.3722 13.9609V14.2219H55.6342V13.9599H55.3712L55.3722 13.9609ZM53.7252 13.9609L53.4632 13.9599V14.2219H53.7252V13.9609ZM53.7252 3.27394V3.01094H53.4632V3.27294L53.7252 3.27394ZM55.1092 3.27294V13.9599H55.6342V3.27294H55.1092ZM55.3712 13.6969H53.7252V14.2219H55.3712V13.6969ZM53.9882 3.27394L53.4632 3.27294V13.9609H53.9882V3.27394ZM53.7252 3.53594H55.3712V3.01094H53.7252V3.53594Z" fill="#3D3D3D"/>
</g>
<defs>
<clipPath id="clip0_287_2647">
<rect width="57" height="18" fill="white" transform="translate(0 0.5)"/>
</clipPath>
</defs>
</svg>
