<svg width="24" height="24" viewBox="0 0 24 24" fill="none" xmlns="http://www.w3.org/2000/svg">
<path d="M23.4364 5.89815C22.6737 3.31219 20.5168 1.15524 17.9308 0.39256C15.9645 -0.17945 14.606 -0.131782 13.6646 0.571313C12.5325 1.41741 12.4014 2.94277 12.4014 4.0272V6.9945C12.4014 9.92605 13.7361 11.4157 16.3578 11.4157H19.7779C20.8504 11.4157 22.3877 11.2846 23.2338 10.1525C23.9607 9.22296 24.0203 7.86444 23.4364 5.89815Z" fill="#BFBFBF"/>
<path d="M20.1484 13.5372C19.8386 13.1796 19.3857 12.9771 18.921 12.9771H14.6547C12.5573 12.9771 10.8532 11.273 10.8532 9.17558V4.90934C10.8532 4.44459 10.6506 3.99175 10.2931 3.68191C9.94755 3.37207 9.47088 3.22907 9.01804 3.28865C6.21757 3.64616 3.64353 5.18343 1.96325 7.4953C0.271058 9.81909 -0.34862 12.6553 0.187639 15.4915C0.962236 19.5909 4.23937 22.8681 8.35069 23.6427C9.00612 23.7737 9.66155 23.8333 10.317 23.8333C12.4739 23.8333 14.5594 23.166 16.335 21.867C18.6469 20.1868 20.1841 17.6127 20.5416 14.8123C20.6012 14.3475 20.4582 13.8827 20.1484 13.5372Z" fill="#BFBFBF"/>
</svg>
