<svg width="24" height="24" viewBox="0 0 24 24" fill="none" xmlns="http://www.w3.org/2000/svg">
<path d="M6 22C5.45 22 4.97933 21.8043 4.588 21.413C4.19667 21.0217 4.00067 20.5507 4 20V16C4 15.45 4.196 14.9793 4.588 14.588C4.98 14.1967 5.45067 14.0007 6 14H18C18.55 14 19.021 14.196 19.413 14.588C19.805 14.98 20.0007 15.4507 20 16V20C20 20.55 19.8043 21.021 19.413 21.413C19.0217 21.805 18.5507 22.0007 18 22H6ZM7 18H17C17.2833 18 17.521 17.904 17.713 17.712C17.905 17.52 18.0007 17.2827 18 17C17.9993 16.7173 17.9033 16.48 17.712 16.288C17.5207 16.096 17.2833 16 17 16H7C6.71667 16 6.47933 16.096 6.288 16.288C6.09667 16.48 6.00067 16.7173 6 17C5.99933 17.2827 6.09533 17.5203 6.288 17.713C6.48067 17.9057 6.718 18.0013 7 18ZM11.175 12.85L7.475 7.675C7.325 7.45833 7.221 7.221 7.163 6.963C7.105 6.705 7.09233 6.44233 7.125 6.175C7.325 4.95833 7.875 3.95833 8.775 3.175C9.675 2.39167 10.75 2 12 2C13.25 2 14.325 2.39167 15.225 3.175C16.125 3.95833 16.675 4.95833 16.875 6.175C16.9083 6.44167 16.8957 6.70433 16.837 6.963C16.7783 7.22167 16.6743 7.459 16.525 7.675L12.825 12.85C12.625 13.1333 12.35 13.275 12 13.275C11.65 13.275 11.375 13.1333 11.175 12.85Z" fill="#BFBFBF"/>
</svg>
