<svg width="18" height="21" viewBox="0 0 18 21" fill="none" xmlns="http://www.w3.org/2000/svg">
<path d="M8.55279 1.22361C8.83431 1.08284 9.16569 1.08284 9.44721 1.22361L16.2111 4.60557C16.9482 4.9741 16.9482 6.0259 16.2111 6.39443L9.44721 9.77639C9.16569 9.91716 8.83431 9.91716 8.55279 9.77639L1.78885 6.39443C1.0518 6.0259 1.05181 4.9741 1.78885 4.60557L8.55279 1.22361ZM13.5 8.25L16.2111 9.60557C16.9482 9.9741 16.9482 11.0259 16.2111 11.3944L9.44721 14.7764C9.16569 14.9172 8.83431 14.9172 8.55279 14.7764L1.78885 11.3944C1.0518 11.0259 1.05181 9.9741 1.78885 9.60557L4.5 8.25M13.5 13.25L16.2111 14.6056C16.9482 14.9741 16.9482 16.0259 16.2111 16.3944L9.44721 19.7764C9.16569 19.9172 8.83431 19.9172 8.55279 19.7764L1.78885 16.3944C1.0518 16.0259 1.05181 14.9741 1.78885 14.6056L4.5 13.25" fill="white"/>
<path d="M13.5 8.25L16.2111 9.60557C16.9482 9.9741 16.9482 11.0259 16.2111 11.3944L9.44721 14.7764C9.16569 14.9172 8.83431 14.9172 8.55279 14.7764L1.78885 11.3944C1.0518 11.0259 1.05181 9.9741 1.78885 9.60557L4.5 8.25M13.5 13.25L16.2111 14.6056C16.9482 14.9741 16.9482 16.0259 16.2111 16.3944L9.44721 19.7764C9.16569 19.9172 8.83431 19.9172 8.55279 19.7764L1.78885 16.3944C1.0518 16.0259 1.05181 14.9741 1.78885 14.6056L4.5 13.25M1.78885 6.39443L8.55279 9.77639C8.83431 9.91716 9.16569 9.91716 9.44721 9.77639L16.2111 6.39443C16.9482 6.0259 16.9482 4.9741 16.2111 4.60557L9.44721 1.22361C9.16569 1.08284 8.83431 1.08284 8.55279 1.22361L1.78885 4.60557C1.05181 4.9741 1.0518 6.0259 1.78885 6.39443Z" stroke="#BAB7B7" stroke-width="2"/>
</svg>
