<svg width="30" height="30" viewBox="0 0 30 30" fill="none" xmlns="http://www.w3.org/2000/svg">
<circle opacity="0.1" cx="15" cy="15" r="15" fill="#524E4E"/>
<path d="M22.7917 22.7917L24.1667 24.1667M17.75 20.5C17.75 21.2293 18.0397 21.9288 18.5555 22.4445C19.0712 22.9603 19.7707 23.25 20.5 23.25C21.2293 23.25 21.9288 22.9603 22.4445 22.4445C22.9603 21.9288 23.25 21.2293 23.25 20.5C23.25 19.7707 22.9603 19.0712 22.4445 18.5555C21.9288 18.0397 21.2293 17.75 20.5 17.75C19.7707 17.75 19.0712 18.0397 18.5555 18.5555C18.0397 19.0712 17.75 19.7707 17.75 20.5Z" stroke="#737373" stroke-width="1.5" stroke-linecap="round" stroke-linejoin="round"/>
<path d="M22.3337 15V9.26996C22.3337 9.1976 22.3195 9.12594 22.2918 9.05909C22.2641 8.99224 22.2235 8.93151 22.1723 8.88037L19.2867 5.99471C19.1836 5.89153 19.0438 5.8335 18.898 5.83337H8.21699C8.07112 5.83337 7.93123 5.89132 7.82808 5.99447C7.72494 6.09761 7.66699 6.2375 7.66699 6.38337V23.6167C7.66699 23.7626 7.72494 23.9025 7.82808 24.0056C7.93123 24.1088 8.07112 24.1667 8.21699 24.1667H14.0837" stroke="#737373" stroke-width="1.5" stroke-linecap="round" stroke-linejoin="round"/>
<path d="M18.667 5.83337V8.95004C18.667 9.09591 18.7249 9.2358 18.8281 9.33895C18.9312 9.44209 19.0711 9.50004 19.217 9.50004H22.3337" stroke="#737373" stroke-width="1.5" stroke-linecap="round" stroke-linejoin="round"/>
</svg>
