<svg width="21" height="21" viewBox="0 0 21 21" fill="none" xmlns="http://www.w3.org/2000/svg">
<path d="M17.9501 6.18363C18.0695 6.50654 17.9688 6.86658 17.7114 7.0967L16.0963 8.55909C16.1373 8.86716 16.1597 9.18265 16.1597 9.50186C16.1597 9.82106 16.1373 10.1365 16.0963 10.4446L15.5 11C15.7574 11.2301 15.1194 11.1771 15 11.5C14.8359 11.9417 14.2275 12.0917 14 12.5L13.6952 12.8238C13.4491 13.2321 13.6755 13.1363 13.3734 13.5C13.1533 13.7672 12.8282 14.1039 12.5 14V15.1473C12.0002 15.5296 12.3178 15.8488 11.7285 16.0901L11 17.5C10.9254 17.8378 10 18.2094 10 18.8701C9.48526 18.9555 9.53898 19 8.99813 19C8.45729 19 7.92763 18.9555 7.41289 18.8701C7.06973 18.8144 6.80863 18.5472 6.73403 18.2094L6.26778 16.0901C5.67845 15.8488 5.12641 15.5296 4.62659 15.1473L2.55272 15.808C2.22448 15.9119 1.85894 15.8191 1.63887 15.5556C1.33674 15.1918 1.06072 14.8058 0.814545 14.3975L0.639236 14.0969C0.411707 13.6886 0.214018 13.2655 0.0498982 12.8238C-0.0694614 12.5009 0.0312482 12.1408 0.288617 11.9107L1.9037 10.4483C1.86267 10.1365 1.84029 9.82106 1.84029 9.50186C1.84029 9.18265 1.86267 8.86716 1.9037 8.55909L0.288617 7.0967C0.0312482 6.86658 -0.0694614 6.50654 0.0498982 6.18363C0.214018 5.74194 0.411707 5.31881 0.639236 4.91053L0.814545 4.60988C1.06072 4.2016 1.33674 3.81559 1.63887 3.45185C1.85894 3.18461 2.22448 3.09553 2.55272 3.19945L4.63032 3.85642C5.13014 3.47412 5.68218 3.15491 6.27151 2.91366L6.73776 0.794296C6.81236 0.456534 7.07346 0.189295 7.41662 0.13362C7.93136 0.0445399 8.46102 0 9.00186 0C9.54271 0 10.0724 0.04454 10.5871 0.129908C10.9303 0.185583 11.1914 0.452823 11.266 0.790584L11.7322 2.90994C12.3216 3.1512 12.8736 3.4704 13.3734 3.85271L15.451 3.19574C15.7792 3.09181 16.1448 3.18461 16.3649 3.44813C16.667 3.81188 16.943 4.19789 17.1892 4.60617L17.3645 4.90682C17.592 5.3151 17.7897 5.73823 17.9538 6.17992L17.9501 6.18363ZM9.00186 12.4712C9.79327 12.4712 10.5523 12.1583 11.1119 11.6015C11.6715 11.0446 11.9859 10.2894 11.9859 9.50186C11.9859 8.71434 11.6715 7.95908 11.1119 7.40222C10.5523 6.84537 9.79327 6.53253 9.00186 6.53253C8.21046 6.53253 7.45147 6.84537 6.89187 7.40222C6.33226 7.95908 6.01788 8.71434 6.01788 9.50186C6.01788 10.2894 6.33226 11.0446 6.89187 11.6015C7.45147 12.1583 8.21046 12.4712 9.00186 12.4712Z" fill="#03AFBF"/>
<circle cx="9.5" cy="9.5" r="5.5" fill="white"/>
<path d="M5.34004 17.3656L8.99941 13.7063C9.72129 12.9844 10.7994 12.8438 11.6682 13.2719L14.9994 9.94063V8L18.9994 5L20.9994 7L17.9994 11H16.0588L12.7275 14.3313C13.1525 15.2 13.015 16.2781 12.2932 17L8.63379 20.6594C8.17754 21.1156 7.44004 21.1156 6.98691 20.6594L5.34004 19.0125C4.88691 18.5562 4.88691 17.8188 5.34004 17.3656ZM10.6338 12.0312C9.74941 12.0312 8.91816 12.375 8.29316 13L7.68691 13.6062C7.19316 13.3906 6.72441 13.0906 6.31816 12.6844C5.15879 11.525 4.76504 9.89375 5.13379 8.4125C5.20254 8.13125 5.55566 8.03437 5.76191 8.24062L8.08691 10.5656L10.2088 10.2125L10.5619 8.09063L8.23691 5.76562C8.03066 5.55937 8.13066 5.20625 8.41504 5.13438C9.89629 4.76875 11.5275 5.1625 12.6838 6.31875C13.5744 7.20937 13.9932 8.38438 13.9713 9.55625L11.4057 12.1219C11.1525 12.0625 10.89 12.0312 10.6338 12.0312ZM13.8807 14.5938L15.6525 12.8219L20.415 17.5875C21.1963 18.3687 21.1963 19.6344 20.415 20.4156C19.6338 21.1969 18.3682 21.1969 17.5869 20.4156L13.7244 16.5531C13.9619 15.9313 14.0338 15.2531 13.8807 14.5938ZM18.9994 19.75C19.4119 19.75 19.7494 19.4125 19.7494 19C19.7494 18.5844 19.415 18.25 18.9994 18.25C18.5838 18.25 18.2494 18.5844 18.2494 19C18.2494 19.4125 18.5838 19.75 18.9994 19.75Z" fill="#03AFBF"/>
<rect x="4.54492" y="17.0516" width="6.03006" height="0.805107" transform="rotate(-44.876 4.54492 17.0516)" fill="white"/>
<rect x="14.3281" y="7.8269" width="4.27286" height="0.805107" transform="rotate(-40.9309 14.3281 7.8269)" fill="white"/>
</svg>
