<svg width="21" height="21" viewBox="0 0 21 21" fill="none" xmlns="http://www.w3.org/2000/svg">
<path fill-rule="evenodd" clip-rule="evenodd" d="M0.76825 0.66C1.26006 0.237923 1.92729 0.000525156 2.62325 0L12.4005 0C13.0965 0.000525156 13.7637 0.237923 14.2555 0.66L20.23 5.781C20.7224 6.20255 20.9994 6.77446 21 7.371V18.75C21 19.3467 20.7234 19.919 20.2312 20.341C19.7389 20.7629 19.0712 21 18.375 21H2.625C1.92881 21 1.26113 20.7629 0.768845 20.341C0.276562 19.919 0 19.3467 0 18.75V2.25C0 1.653 0.27475 1.08 0.76825 0.66ZM8.94425 6.7905C9.08478 6.87631 9.20419 6.98502 9.29566 7.11042C9.38712 7.23582 9.44884 7.37545 9.47728 7.52132C9.50573 7.66719 9.50034 7.81643 9.46143 7.96051C9.42251 8.1046 9.35084 8.24069 9.2505 8.361L6.80575 11.295C6.69489 11.4278 6.55165 11.5382 6.38597 11.6188C6.2203 11.6993 6.03616 11.748 5.84633 11.7614C5.65651 11.7748 5.46556 11.7527 5.28673 11.6965C5.1079 11.6403 4.94548 11.5514 4.81075 11.436L3.34425 10.179C3.11241 9.96574 2.98619 9.68367 2.99219 9.39222C2.99819 9.10076 3.13594 8.82269 3.37641 8.61657C3.61688 8.41045 3.94131 8.29238 4.28134 8.28724C4.62136 8.2821 4.95044 8.39028 5.19925 8.589L5.57025 8.9055L7.11375 7.0545C7.3159 6.81166 7.62231 6.64758 7.96558 6.59835C8.30886 6.54913 8.66089 6.61728 8.94425 6.7905ZM10.6068 9.561C10.6068 9.26263 10.745 8.97648 10.9912 8.7655C11.2373 8.55453 11.5712 8.436 11.9193 8.436H16.2942C16.6423 8.436 16.9762 8.55453 17.2223 8.7655C17.4685 8.97648 17.6067 9.26263 17.6067 9.561C17.6067 9.85937 17.4685 10.1455 17.2223 10.3565C16.9762 10.5675 16.6423 10.686 16.2942 10.686H11.9193C11.5712 10.686 11.2373 10.5675 10.9912 10.3565C10.745 10.1455 10.6068 9.85937 10.6068 9.561ZM10.6068 15.5145C10.6068 15.2161 10.745 14.93 10.9912 14.719C11.2373 14.508 11.5712 14.3895 11.9193 14.3895H16.2942C16.6423 14.3895 16.9762 14.508 17.2223 14.719C17.4685 14.93 17.6067 15.2161 17.6067 15.5145C17.6067 15.8129 17.4685 16.099 17.2223 16.31C16.9762 16.521 16.6423 16.6395 16.2942 16.6395H11.9193C11.5712 16.6395 11.2373 16.521 10.9912 16.31C10.745 16.099 10.6068 15.8129 10.6068 15.5145ZM9.2505 14.4075C9.3555 14.2876 9.43147 14.1509 9.47395 14.0054C9.51643 13.86 9.52456 13.7087 9.49787 13.5605C9.47117 13.4123 9.41019 13.2702 9.3185 13.1425C9.22681 13.0149 9.10626 12.9042 8.96395 12.817C8.82164 12.7298 8.66043 12.6679 8.48979 12.6348C8.31916 12.6018 8.14255 12.5984 7.97034 12.6247C7.79812 12.651 7.63379 12.7066 7.48699 12.7881C7.34019 12.8697 7.21388 12.9755 7.1155 13.0995L5.57025 14.952L5.19925 14.634C4.95044 14.4353 4.62136 14.3271 4.28134 14.3322C3.94131 14.3374 3.61688 14.4554 3.37641 14.6616C3.13594 14.8677 2.99819 15.1458 2.99219 15.4372C2.98619 15.7287 3.11241 16.0107 3.34425 16.224L4.81075 17.481C4.94548 17.5964 5.1079 17.6853 5.28673 17.7415C5.46556 17.7977 5.65651 17.8198 5.84633 17.8064C6.03616 17.793 6.2203 17.7443 6.38597 17.6638C6.55165 17.5832 6.69489 17.4728 6.80575 17.34L9.2505 14.4075Z" fill="#BAB7B7"/>
</svg>
