<svg width="22" height="22" viewBox="0 0 22 22" fill="none" xmlns="http://www.w3.org/2000/svg">
<path d="M13.7502 4.94995C13.7502 5.6793 13.4605 6.37877 12.9447 6.89449C12.429 7.41022 11.7295 7.69995 11.0002 7.69995C10.2709 7.69995 9.57138 7.41022 9.05565 6.89449C8.53993 6.37877 8.2502 5.6793 8.2502 4.94995C8.2502 4.22061 8.53993 3.52113 9.05565 3.00541C9.57138 2.48968 10.2709 2.19995 11.0002 2.19995C11.7295 2.19995 12.429 2.48968 12.9447 3.00541C13.4605 3.52113 13.7502 4.22061 13.7502 4.94995ZM19.2502 5.49995C19.2502 6.08343 19.0184 6.64301 18.6058 7.05559C18.1933 7.46817 17.6337 7.69995 17.0502 7.69995C16.4667 7.69995 15.9071 7.46817 15.4946 7.05559C15.082 6.64301 14.8502 6.08343 14.8502 5.49995C14.8502 4.91647 15.082 4.3569 15.4946 3.94432C15.9071 3.53174 16.4667 3.29995 17.0502 3.29995C17.6337 3.29995 18.1933 3.53174 18.6058 3.94432C19.0184 4.3569 19.2502 4.91647 19.2502 5.49995ZM4.9502 7.69995C5.53367 7.69995 6.09325 7.46817 6.50583 7.05559C6.91841 6.64301 7.1502 6.08343 7.1502 5.49995C7.1502 4.91647 6.91841 4.3569 6.50583 3.94432C6.09325 3.53174 5.53367 3.29995 4.9502 3.29995C4.36672 3.29995 3.80714 3.53174 3.39456 3.94432C2.98198 4.3569 2.7502 4.91647 2.7502 5.49995C2.7502 6.08343 2.98198 6.64301 3.39456 7.05559C3.80714 7.46817 4.36672 7.69995 4.9502 7.69995ZM6.6002 10.175C6.6002 9.41595 7.2162 8.79995 7.9752 8.79995H14.0252C14.7842 8.79995 15.4002 9.41595 15.4002 10.175V15.4C15.4002 16.5669 14.9366 17.6861 14.1115 18.5112C13.2863 19.3364 12.1671 19.8 11.0002 19.8C9.83324 19.8 8.71409 19.3364 7.88893 18.5112C7.06377 17.6861 6.6002 16.5669 6.6002 15.4V10.175ZM5.5002 10.175C5.5002 9.66565 5.6542 9.19375 5.9171 8.79995H3.5752C2.8162 8.79995 2.2002 9.41595 2.2002 10.175V14.3C2.20014 14.7709 2.30089 15.2364 2.49566 15.6651C2.69043 16.0939 2.97471 16.476 3.32941 16.7858C3.6841 17.0956 4.10099 17.3259 4.55207 17.4612C5.00314 17.5965 5.47795 17.6337 5.9446 17.5703C5.65079 16.8844 5.49959 16.146 5.5002 15.4V10.175ZM16.5002 15.4C16.5002 16.17 16.3418 16.9048 16.0558 17.5703C16.201 17.5901 16.3491 17.6 16.5002 17.6C17.3754 17.6 18.2148 17.2523 18.8336 16.6334C19.4525 16.0145 19.8002 15.1752 19.8002 14.3V10.175C19.8002 9.41595 19.1842 8.79995 18.4252 8.79995H16.0833C16.3473 9.19375 16.5002 9.66565 16.5002 10.175V15.4Z" fill="#03AFBF"/>
</svg>
