<svg width="38" height="33" viewBox="0 0 38 33" fill="none" xmlns="http://www.w3.org/2000/svg">
<path d="M6.42857 5H18.5714C19.9108 5 21 6.17287 21 7.6151V15.4604C21 16.9026 19.9108 18.0755 18.5714 18.0755H10.8243C11.3487 17.5895 11.7697 16.9876 12.0589 16.3107C12.348 15.6338 12.4985 14.8979 12.5 14.1529C12.4985 13.4078 12.348 12.6719 12.0589 11.995C11.7697 11.3182 11.3487 10.7163 10.8243 10.2302H16.75C16.911 10.2302 17.0655 10.1613 17.1793 10.0387C17.2932 9.91612 17.3571 9.74982 17.3571 9.57643C17.3571 9.40304 17.2932 9.23675 17.1793 9.11414C17.0655 8.99154 16.911 8.92266 16.75 8.92266H7.64286C6.95097 8.92431 6.26751 9.08631 5.63893 9.39767C5.01036 9.70902 4.45138 10.1624 4 10.7271V7.6151C4 6.17287 5.08921 5 6.42857 5ZM14.3214 14.1529H16.75C16.911 14.1529 17.0655 14.084 17.1793 13.9614C17.2932 13.8388 17.3571 13.6725 17.3571 13.4991C17.3571 13.3257 17.2932 13.1594 17.1793 13.0368C17.0655 12.9142 16.911 12.8453 16.75 12.8453H14.3214C14.1604 12.8453 14.006 12.9142 13.8921 13.0368C13.7783 13.1594 13.7143 13.3257 13.7143 13.4991C13.7143 13.6725 13.7783 13.8388 13.8921 13.9614C14.006 14.084 14.1604 14.1529 14.3214 14.1529ZM7.64286 18.0755C8.609 18.0755 9.53558 17.6622 10.2187 16.9266C10.9019 16.191 11.2857 15.1932 11.2857 14.1529C11.2857 13.1125 10.9019 12.1148 10.2187 11.3791C9.53558 10.6435 8.609 10.2302 7.64286 10.2302C6.67671 10.2302 5.75014 10.6435 5.06697 11.3791C4.3838 12.1148 4 13.1125 4 14.1529C4 15.1932 4.3838 16.191 5.06697 16.9266C5.75014 17.6622 6.67671 18.0755 7.64286 18.0755ZM5.21429 21.3444V18.6548C5.94937 19.1253 6.7877 19.3763 7.64286 19.3818C8.53171 19.3818 9.35379 19.1046 10.0714 18.6548V21.3431C10.0715 21.4615 10.0417 21.5776 9.98522 21.6792C9.92876 21.7807 9.84776 21.8639 9.75086 21.9197C9.6541 21.9756 9.54506 22.0023 9.43537 21.9967C9.32567 21.9912 9.21942 21.9537 9.12793 21.8883L7.64286 20.8214L6.15779 21.887C6.06672 21.9539 5.96039 21.9927 5.85032 21.9991C5.74026 22.0055 5.63067 21.9793 5.53344 21.9234C5.43622 21.8674 5.35507 21.7839 5.29881 21.6819C5.24254 21.5798 5.21331 21.4631 5.21429 21.3444Z" fill="#BAB7B7"/>
<path fill-rule="evenodd" clip-rule="evenodd" d="M0 0V32H25.5851V29.7143H2.28571V2.28571H33.1429V4.70857H35.4286V0H0ZM35.4286 11.4286C35.4286 12.0348 35.1878 12.6162 34.7591 13.0448C34.3304 13.4735 33.7491 13.7143 33.1429 13.7143C32.5366 13.7143 31.9553 13.4735 31.5266 13.0448C31.098 12.6162 30.8571 12.0348 30.8571 11.4286C30.8571 10.8224 31.098 10.241 31.5266 9.81233C31.9553 9.38367 32.5366 9.14286 33.1429 9.14286C33.7491 9.14286 34.3304 9.38367 34.7591 9.81233C35.1878 10.241 35.4286 10.8224 35.4286 11.4286ZM37.7143 11.4286C37.7143 12.641 37.2327 13.8037 36.3753 14.6611C35.518 15.5184 34.3553 16 33.1429 16C31.9304 16 30.7677 15.5184 29.9104 14.6611C29.0531 13.8037 28.5714 12.641 28.5714 11.4286C28.5714 10.2162 29.0531 9.05339 29.9104 8.19608C30.7677 7.33877 31.9304 6.85714 33.1429 6.85714C34.3553 6.85714 35.518 7.33877 36.3753 8.19608C37.2327 9.05339 37.7143 10.2162 37.7143 11.4286Z" fill="#BAB7B7"/>
<path fill-rule="evenodd" clip-rule="evenodd" d="M29.1807 17.6324C29.5938 17.2267 30.1428 17.0003 30.7139 17H33.7373C34.8216 17 35.8311 17.3794 36.6088 18.1352C37.3569 18.8621 37.7465 19.7939 37.9057 20.6769C38.1561 22.0651 37.8968 23.5821 37.2591 24.9268V31.0952C37.2591 31.5732 37.0844 32.0337 36.7697 32.3853C36.455 32.737 36.0233 32.9541 35.5602 32.9935C35.0971 33.0329 34.6365 32.8918 34.2699 32.5982C33.9033 32.3045 33.6574 31.8798 33.581 31.4083L33.1855 28.9672L32.79 31.4083C32.7136 31.8798 32.4677 32.3045 32.101 32.5982C31.7344 32.8918 31.2738 33.0329 30.8108 32.9935C30.3477 32.9541 29.9159 32.737 29.6012 32.3853C29.2865 32.0337 29.1118 31.5732 29.1118 31.0952V23.928C28.7741 24.1286 28.3909 24.2342 28.0008 24.2343H24.222C23.6327 24.2343 23.0675 23.9934 22.6508 23.5648C22.2341 23.1361 22 22.5548 22 21.9485C22 21.3423 22.2341 20.761 22.6508 20.3323C23.0675 19.9037 23.6327 19.6628 24.222 19.6628H27.1106L29.1807 17.6324ZM30.5932 26.5047V31.0952C30.5934 31.1906 30.6285 31.2825 30.6914 31.3526C30.7543 31.4227 30.8406 31.4659 30.933 31.4738C31.0255 31.4816 31.1174 31.4535 31.1907 31.395C31.2639 31.3364 31.3132 31.2517 31.3286 31.1576L32.1011 26.3912C32.1299 26.2133 32.2191 26.0516 32.3528 25.935C32.4865 25.8184 32.6561 25.7543 32.8314 25.7542H33.5395C33.7148 25.7543 33.8844 25.8184 34.0182 25.935C34.1519 26.0516 34.2411 26.2133 34.2698 26.3912L35.0423 31.1576C35.0578 31.2517 35.107 31.3364 35.1803 31.395C35.2535 31.4535 35.3455 31.4816 35.4379 31.4738C35.5304 31.4659 35.6166 31.4227 35.6795 31.3526C35.7425 31.2825 35.7775 31.1906 35.7778 31.0952V24.7462C35.7778 24.6243 35.8062 24.5041 35.8607 24.3958C36.4325 23.2598 36.6407 22.0156 36.4496 20.955C36.3333 20.3105 36.0615 19.6994 35.5919 19.243C35.1127 18.7775 34.4772 18.5238 33.7373 18.5238H30.7146C30.5243 18.5238 30.3406 18.5992 30.2028 18.7341L27.9186 20.9756C27.781 21.1109 27.598 21.1865 27.4076 21.1866H24.222C24.0256 21.1866 23.8372 21.2669 23.6983 21.4098C23.5594 21.5527 23.4813 21.7465 23.4813 21.9485C23.4813 22.1506 23.5594 22.3444 23.6983 22.4873C23.8372 22.6302 24.0256 22.7104 24.222 22.7104H28.0008C28.1912 22.7103 28.3742 22.6347 28.5119 22.4994L29.3414 21.6857C29.4464 21.5828 29.5784 21.5138 29.7211 21.4873C29.8638 21.4609 30.0109 21.4781 30.1442 21.5368C30.2774 21.5956 30.391 21.6932 30.4708 21.8178C30.5507 21.9423 30.5932 22.0882 30.5932 22.2373V26.5047Z" fill="#BAB7B7"/>
</svg>
