<svg width="22" height="22" viewBox="0 0 22 22" fill="none" xmlns="http://www.w3.org/2000/svg">
<path fill-rule="evenodd" clip-rule="evenodd" d="M15.3855 3.84997C15.3855 5.97626 13.6634 7.69999 11.5391 7.69999C9.41482 7.69999 7.69276 5.97626 7.69276 3.84997C7.69276 1.72369 9.41482 0 11.5391 0C13.6634 0 15.3855 1.72369 15.3855 3.84997ZM6.59377 7.14998C6.59377 8.66875 5.36372 9.90001 3.84638 9.90001C2.32904 9.90001 1.099 8.66875 1.099 7.14998C1.099 5.6312 2.32899 4.39999 3.84638 4.39999C5.36377 4.39999 6.59377 5.6312 6.59377 7.14998ZM0 14.3C0 12.4775 1.47608 11 3.29688 11H4.39588C4.52868 11 4.65973 11.0078 4.78847 11.0232C4.53538 11.6562 4.39572 12.3503 4.39572 13.078V18.7H5.14855e-05L0 14.3ZM14.9518 11H18.0045V12.1775C18.5349 12.3655 19.0261 12.6499 19.4535 13.0163L20.4736 12.4268L21.9999 15.073L20.9803 15.6622C21.0312 15.9385 21.0568 16.2189 21.0567 16.4999C21.0568 16.7809 21.0312 17.0613 20.9803 17.3377L22 17.9269L20.4736 20.5731L19.4535 19.9835C19.0261 20.3499 18.5349 20.6343 18.0045 20.8223V22H14.9518V20.8226C14.4212 20.6347 13.9297 20.3503 13.5022 19.9838L12.4827 20.573L10.9564 17.9268L11.9751 17.3381C11.9241 17.0616 11.8985 16.7811 11.8987 16.4999C11.8987 16.2136 11.9249 15.9335 11.9751 15.6618L10.9564 15.0731L12.4827 12.4269L13.5021 13.016C13.9297 12.6495 14.4211 12.3651 14.9518 12.1772V11ZM18.3092 16.5C18.3092 17.5126 17.4892 18.3334 16.4777 18.3334C15.4661 18.3334 14.646 17.5126 14.646 16.5C14.646 15.4875 15.4661 14.6667 16.4777 14.6667C17.4892 14.6667 18.3092 15.4875 18.3092 16.5ZM5.49467 13.2C5.49467 10.7699 7.46275 8.79998 9.89055 8.79998H13.1874C14.308 8.79998 15.3307 9.2197 16.1071 9.91064C12.641 10.1064 9.89065 12.9817 9.89065 16.5C9.89065 17.2714 10.0229 18.0119 10.2659 18.7H5.49467V13.2Z" fill="#BAB7B7"/>
</svg>
